<?xml version="1.0" encoding="UTF-8" standalone="no"?><!DOCTYPE svg PUBLIC "-//W3C//DTD SVG 1.1//EN" "http://www.w3.org/Graphics/SVG/1.1/DTD/svg11.dtd"><svg width="100%" height="100%" viewBox="0 0 3334 3334" version="1.1" xmlns="http://www.w3.org/2000/svg" xmlns:xlink="http://www.w3.org/1999/xlink" xml:space="preserve" xmlns:serif="http://www.serif.com/" style="fill-rule:evenodd;clip-rule:evenodd;stroke-linejoin:round;stroke-miterlimit:2;"><rect id="light-logo" x="0" y="0" width="3333.33" height="3333.33" style="fill:none;"/><g id="Layer-1" serif:id="Layer 1"><path d="M2913.07,2394.85l0,-1445.37l-1251.72,-722.679l-1251.72,722.679l-0,1445.37l1251.72,722.679l1251.72,-722.679Z" style="fill:#ffc800;fill-rule:nonzero;"/><path d="M1761.45,582.365c-5.312,-1.475 -9.658,2.405 -11.596,7.25c-10.266,27.859 -40.491,46.955 -79.15,60.196c-5.495,1.909 -11.166,3.663 -16.979,5.317c-8.079,2.329 -16.441,4.412 -24.987,6.317c-22.934,5.133 -47.204,8.866 -71.004,11.633c-38.013,4.45 -74.842,6.458 -103.488,7.821c0.971,-13.996 1.438,-27.067 0.971,-37.688c-2.908,-43.937 -67.633,-22.221 -67.633,0c-0,11.592 -0,25.125 -0.967,40.6c-31.875,1.9 -62.779,4.809 -90.817,10.117c-28.504,4.846 -52.154,11.129 -71.971,19.317c-23.191,9.687 -41.066,21.754 -55.066,36.72c-10.625,11.596 -18.846,25.13 -23.654,40.096c-5.313,15.475 -7.717,33.35 -6.788,52.159c0,5.312 4.379,9.658 9.692,9.658l0.471,-0c5.308,-0.471 9.187,-4.813 9.187,-10.125c-1.475,-32.846 6.75,-58.438 25.592,-78.754c38.162,-41.534 116.416,-54.1 202.387,-59.413c-0.971,20.321 -2.408,42.504 -4.341,66.663c-4.346,73.441 -9.663,157.008 -9.192,228.479c0.967,86.475 10.625,136.692 30.437,157.008c6.784,7.721 15.471,11.563 24.625,11.563l0.971,-0c20.284,-0.471 40.096,-17.842 60.879,-52.625c15.434,-26.1 31.371,-61.85 47.346,-106.292c9.159,-25.917 16.229,-47.562 21.575,-64.825c10.196,-32.921 14.146,-49.971 14.146,-50.617c1.471,-4.808 -1.904,-10.125 -7.254,-11.591c-4.808,-0.975 -10.121,1.937 -11.558,7.246c-0,0.108 -0.142,0.825 -0.43,2.083c-2.045,9.008 -11.595,46.342 -34.858,111.421c-15.433,43.512 -30.904,77.787 -45.404,102.412c-29.438,49.292 -32.346,-54.558 -32.846,-117.375c-0.467,-69.071 4.846,-147.787 9.188,-217.358c1.937,-25.125 3.375,-48.783 4.341,-69.567c4.85,-0.466 9.192,-0.466 14,-0.466c28.9,-1.217 58.263,-2.405 86.692,-4.38c23.871,-1.616 47.096,-3.841 68.812,-7.141c11.671,-1.763 22.867,-3.842 33.53,-6.317l-0,-0.037c0.75,-0.142 1.508,-0.321 2.262,-0.5c5.454,-1.334 10.658,-2.767 15.683,-4.309c22.184,-6.75 40.275,-15.404 54.85,-25.633c20.28,-14.971 33.817,-34.279 39.13,-57.471c1.437,-5.308 -1.942,-10.154 -6.784,-11.592" style="fill:#fff;fill-rule:nonzero;"/><path d="M1619.95,708.9c0.863,-7.571 1.829,-14.467 2.838,-20.675c1.829,-10.842 3.841,-19.709 5.958,-26.78c9.083,-30.258 20.104,-27.854 24.983,-6.316c1.655,7.033 2.588,16.116 2.588,26.741l-0,0.034c-0,15.041 -1.871,33.166 -6.425,53.096c-6.283,28.966 -19.817,54.091 -33.35,73.908c-0.933,-38.158 -0,-71.971 3.408,-100.008m262.763,167.133c-4.846,-1.433 -10.159,1.475 -12.059,6.283c0,0.217 -2.695,9.225 -7.466,23.475c-7.109,20.925 -18.738,53.092 -33.134,84.717c-14.466,30.942 -28,55.567 -41.533,72.942c-17.375,21.245 -13.029,-0 -10.154,-21.255c2.904,-21.245 9.687,-46.379 15.467,-70.5c6.75,-25.125 12.566,-48.312 14.97,-68.595c3.375,-26.567 -6.283,-41.53 -15.437,-49.755c-27.067,-23.691 -76.35,-13.529 -98.571,9.192c-10.125,10.125 -20.279,24.625 -30.404,43.471c-11.592,21.717 -22.721,49.25 -32.846,79.692c-6.283,-40.567 -12.096,-94.196 -14.033,-146.855c10.158,-12.062 19.35,-25.129 27.062,-38.158c11.596,-19.817 19.817,-40.562 24.625,-61.817c4.238,-20.887 6.034,-42.066 5.063,-61.812c-0.217,-4.95 -0.609,-9.796 -1.184,-14.5c-0.645,-4.379 -1.437,-8.65 -2.366,-12.746c-3.775,-17.046 -9.838,-31.333 -18.417,-41.854c-9.158,-11.125 -20.279,-16.904 -32.346,-16.438c-14.5,0 -27.062,6.784 -37.691,19.813c-10.659,13.317 -18.917,34.137 -24.517,61.742c-1.433,7 -2.688,14.429 -3.767,22.291c-0.075,0.504 -0.141,0.967 -0.216,1.471c-4.342,32.846 -6.284,72.942 -4.809,119.788c0.575,24.479 1.975,49.645 3.909,74.054c1.437,18.237 3.2,36.075 5.1,52.875c3.95,34.425 8.687,64.687 13.212,85.612c3.375,15.938 63.25,13.534 67.125,0.471c13.029,-43.937 27.533,-85.008 43.004,-114.942c17.875,-33.345 36.221,-51.695 51.188,-51.695c3.371,-0 4.846,0.975 5.812,2.412c2.404,2.433 5.317,11.121 1.904,35.279c-2.404,18.813 -7.716,41.534 -13.495,65.192c-14.038,57 -27.067,110.633 -7.755,134.754c4.346,5.817 13.067,12.563 28.034,12.563c24.625,-0 43.937,-20.746 57.004,-38.159c14,-18.341 28.971,-44.437 43.475,-76.783c7.712,-16.758 14.604,-33.596 20.458,-48.85c13.213,-34.425 21.213,-60.954 21.538,-61.275c1.471,-5.317 -1.434,-10.625 -6.75,-12.1" style="fill:#fff;fill-rule:nonzero;"/><path d="M1939.68,849.757c4.667,-3.159 4.667,-3.159 6.571,4.308c0.971,3.767 0.754,14.787 -21.179,34.283c0.396,-18.021 5.383,-31.771 14.608,-38.591m106.363,24.375c-5.275,-1.15 -10.446,2.154 -11.596,7.429c-9.584,38.804 -19.779,79.258 -32.413,109.879c-32.704,73.55 -61.058,-34.35 -75.491,-79.546c30.37,-23.658 43.079,-44.296 38.445,-62.571c-3.554,-14.033 -14,-23.829 -28.212,-26.737c-9.479,-2.084 -19.567,-0.504 -29.979,3.625c-10.3,4.591 -19.884,12.021 -27.313,21.896c-7.971,9.979 -12.604,23.116 -15.112,38.695c-0.754,6.28 -1.154,12.675 -1.184,18.988c-0.145,14.683 1.58,29.329 4.734,43.617c5.925,26.275 16.871,51.295 30.729,72.725c20.283,30.725 43.15,44.37 64.687,38.912c29.505,-7.504 44.867,-37.296 56.5,-62.175c13.388,-31.804 23.796,-73.3 33.13,-113.037c1.15,-5.275 -1.65,-10.55 -6.925,-11.7" style="fill:#fff;fill-rule:nonzero;"/><path d="M991.512,1829.91c-28.721,4.562 -63.933,-28.038 -72.404,-51.508c-14.358,-39.813 1.975,-85.438 42.392,-119.359c58.05,-48.246 121.295,-71.075 182.608,-92.612c11.087,24.125 16.296,48.929 16.296,72.404c-0,76.958 -50.221,170.862 -168.892,191.075m-161.104,-734.979c20.892,-63.246 58.046,-44.329 32.629,13.029c-9.8,21.537 -25.45,39.129 -45.658,54.137c3.262,-27.395 7.179,-50.22 13.029,-67.166m502.158,312.371c-6.5,-3.267 -13.683,-0 -16.946,6.533c-4.204,9.621 -9.012,18.417 -14.358,26.454c-21.037,31.95 -50.4,52.767 -84.792,69.425c-6.491,-7.825 -14.316,-15.004 -22.791,-22.183c-24.804,-19.563 -55.459,-35.213 -91.317,-45.663c-16.946,-4.558 -35.221,-8.471 -54.137,-11.733c28.037,-15.008 54.783,-38.483 79.583,-68.458c20.212,-25.446 37.154,-54.13 48.892,-82.85c12.383,-29.971 18.916,-59.98 18.916,-86.721c0,-32.6 -10.441,-59.988 -29.329,-78.904c-20.887,-21.538 -52.833,-32.63 -93.258,-32.63c-54.129,0 -101.729,29.363 -142.184,86.763c-31.3,44.333 -58.691,105.642 -80.875,181.925c-14.32,50.217 -24.766,101.079 -32.591,144.121c-4.563,-87.371 -8.471,-207.371 -2.621,-298.013c31.3,-18.916 57.396,-43.037 72.4,-76.962c19.562,-43.684 7.183,-70.425 -2.621,-82.163c-14.354,-18.271 -39.125,-27.391 -65.867,-22.833c-16.3,2.621 -32.595,10.446 -45.625,22.183c-15.004,13.029 -26.095,30.659 -32.633,51.517c-9.112,26.092 -15,66.508 -17.583,120.646c-18.917,6.533 -37.838,12.379 -57.404,18.266c-50.217,15.655 -102.375,31.305 -140.855,56.721c-36.579,24.05 -58.079,53.913 -65.187,91.029c-0.108,0.542 -0.217,1.042 -0.288,1.58c-1.579,8.725 -2.37,17.841 -2.37,27.391c-0,7.179 5.887,13.029 13.066,13.029c4.417,0 8.367,-2.225 10.696,-5.633c0.829,-7.683 2.121,-18.162 3.808,-27.712c0,0.07 0.034,0.108 0.034,0.175c1.079,-6.959 2.762,-13.563 5.062,-19.884c0.038,-0.075 0.038,-0.104 0.075,-0.179c8.288,-22.683 24.479,-41.533 49.425,-57.612c35.217,-23.48 83.496,-38.48 134.363,-54.134c16.296,-5.204 32.591,-9.762 48.241,-15.004c-1.937,45.017 -1.287,98.463 0.65,159.775c3.267,114.15 12.417,214.554 12.417,215.879c2.588,53.45 89.346,23.479 94.55,-8.471c0,-1.325 9.121,-119.354 46.313,-245.891c20.854,-74.338 46.95,-133.029 76.275,-174.742c43.72,-60.667 135.008,-106.971 149.366,-1.325c5.204,38.479 -8.471,91.963 -36.546,142.829c-27.387,49.571 -67.804,89.346 -97.166,102.375c-17.592,7.825 -4.563,24.771 2.621,24.771c81.52,15.004 132.387,50.217 160.42,92.613c-58.691,20.891 -125.208,45.658 -185.837,95.879c-24.804,20.858 -42.392,45.658 -50.867,72.404c-7.821,25.412 -7.821,51.508 0.65,74.987c16.296,45.621 59.979,73.692 113.467,73.692c37.15,0 73.046,-6.533 105.646,-19.562c14.75,-6.105 28.854,-13.459 42.104,-21.967l0.037,-0.038c12.596,-8.108 24.338,-17.229 35.175,-27.458c0,-0.037 0,-0.037 0.038,-0.037c0.967,-0.863 1.937,-1.759 2.871,-2.692c44.333,-43.038 70.429,-100.442 70.429,-157.154c-0,-37.192 -11.092,-71.759 -30.658,-101.088c8.475,-3.908 16.3,-8.471 24.77,-13.712c16.905,-10.3 31.267,-21.859 43.58,-34.892c15.72,-16.654 28.07,-35.75 37.941,-57.683c2.621,-6.534 0,-14.359 -7.175,-16.979" style="fill:#fff;fill-rule:nonzero;"/><path d="M1427.8,1342.76c7.18,-2.621 7.18,-2.621 7.18,7.825c-0,5.204 -3.913,19.562 -39.13,37.8c6.534,-23.479 17.592,-39.775 31.95,-45.625m131.096,67.162c-6.533,-3.266 -14.358,-0.645 -17.629,5.85c-7.108,13.321 -14.321,26.817 -21.608,40.096c-18.775,34.209 -38.05,67.129 -57.292,92.975c-67.158,85.434 -68.492,-65.225 -72.4,-129.158c47.633,-20.854 71.108,-43.683 71.108,-69.1c0,-19.563 -10.445,-35.896 -28.07,-44.371c-11.738,-5.846 -25.417,-7.175 -40.417,-5.204c-15.008,2.621 -30.008,9.121 -43.042,19.567c-13.712,10.445 -24.121,26.095 -32.596,45.662c-9.154,23.688 -14.179,48.783 -15.683,74.05c-0.825,13.892 -0.612,27.896 0.538,41.675c2.15,25.238 7.429,49.9 15.145,72.729c16.3,46.954 41.713,72.4 71.721,72.4c41.104,0 71.075,-33.916 94.554,-62.6c11.13,-14.716 22.109,-31.587 32.95,-49.646c16.48,-27.533 32.559,-57.791 47.925,-87.333c3.263,-6.5 1.288,-14.325 -5.204,-17.592" style="fill:#fff;fill-rule:nonzero;"/><path d="M1641.7,1535.13c-28.683,50.862 -34.57,15.004 -34.57,-34.571c-0,-76.279 32.591,-129.117 77.608,-54.775c-0,0.646 0.646,1.292 1.296,1.971c-12.388,33.241 -27.392,63.25 -44.334,87.375m241.938,-128.475c-5.346,-1.579 -11.125,1.183 -14.104,5.816c-0.288,0.43 -0.538,0.896 -0.754,1.33l-0,0.033c-0.325,0.612 -0.575,1.254 -0.788,1.937c0,0.396 -5.958,25.559 -16.55,60.092c-6.967,22.617 -15.904,49.25 -26.496,75.563c-56.066,138.92 -63.891,75.02 -48.925,-49.538c7.825,-62.604 16.984,-101.083 16.984,-101.083c11.091,-52.196 -78.905,-56.104 -84.146,-31.984l-12.384,48.28c-29.358,-38.484 -73.05,-56.75 -110.845,-46.305c-21.538,5.205 -38.48,19.563 -50.905,41.063c-6.887,12.35 -11.95,27.142 -15.075,44.012c-2.545,13.421 -3.804,28.175 -3.804,44.042c0,5.208 0.104,10.196 0.321,14.933c3.521,79.617 35.396,95.375 55.104,97.246c55.421,0 90.638,-55.425 111.492,-93.904c-3.229,29.971 -4.558,56.713 -3.913,79.542c1.33,35.862 7.825,61.962 18.917,78.258c10.45,15 24.125,21.538 39.775,21.538c56.75,-0 95.879,-95.88 111.533,-136.3c1.83,-4.559 3.588,-9.121 5.309,-13.642c24.158,-63.575 38.412,-122.838 39.058,-125.279c1.938,-7.179 -2.625,-14.354 -9.804,-15.65" style="fill:#fff;fill-rule:nonzero;"/><path d="M1941.69,1509.71c0,-26.746 3.913,-49.571 11.738,-67.846c31.945,-66.517 60.666,8.471 81.525,39.775c-0,15.004 -0,29.362 0.641,43.042c-57.396,63.929 -93.904,90.025 -93.904,-14.971m220.438,-297.404c22.795,-91.284 80.841,-196.93 46.275,-43.038c-13.03,60.663 -37.8,126.533 -56.071,170.867c-5.854,13.712 -12.384,28.033 -20.213,42.396c5.85,-58.692 16.3,-118.713 30.009,-170.225m189.104,194.345c-6.529,-1.937 -13.675,1.292 -16.296,8.471c-0,0.646 -24.767,72.404 -63.25,143.475c-22.183,41.104 -44.367,73.7 -66.517,97.175c-75.025,85.434 -82.846,-89.35 -78.291,-204.108c0.683,-2.621 0.683,-5.238 0.683,-8.508c19.567,-31.95 37.154,-64.542 48.892,-93.221c18.92,-45.013 44.366,-112.179 57.4,-174.779c13.712,-64.58 11.737,-107.617 -5.85,-131.742c-8.509,-10.446 -24.159,-22.829 -52.842,-20.208c-22.829,2.583 -44.329,22.791 -63.933,61.275c-16.296,31.3 -31.3,75.666 -43.684,128.47c-16.941,68.492 -27.387,146.1 -31.304,218.467c-11.092,-16.296 -22.829,-29.325 -35.858,-39.771c-24.767,-19.562 -51.509,-28.033 -76.313,-22.829c-22.15,4.592 -40.425,18.917 -53.454,41.746c-0.392,0.642 -0.75,1.254 -1.075,1.9c-0.287,0.433 -0.537,0.9 -0.754,1.329l-0,0.033c-9.442,16.98 -15.15,37.984 -17.338,62.034c-0.72,7.721 -1.079,15.758 -1.079,24.046c0,17.77 1.329,33.675 4.021,47.675c4.704,25.125 13.679,44.116 26.633,56.679c13.067,12.383 29.367,18.916 47.638,18.271c44.333,-3.267 74.342,-31.984 109.554,-62.638c3.913,44.367 11.738,80.875 23.479,107.617c7.825,17.625 17.584,31.304 28.679,41.1c11.738,10.408 26.096,15.65 41.746,15.65l1.296,-0c10.446,-0 21.538,-2.621 31.95,-7.175l0.679,-0c42.359,-16.984 85.434,-65.871 128.475,-146.1c39.771,-73.013 63.896,-144.771 65.184,-147.354c1.975,-7.18 -1.288,-14.359 -8.471,-16.98" style="fill:#fff;fill-rule:nonzero;"/><path d="M1235.28,1872.52c26.995,-84.071 55.533,-24.017 32.27,28.537c-10.516,22.504 -24.766,41.246 -42.033,57.792c0,-36.042 3.013,-66.05 9.763,-86.329m342.958,51.041c21.029,-48.025 63.067,-106.575 77.317,-83.312c9.762,15.758 12.745,36.037 9.762,60.054c-3.017,27.746 -15.754,59.267 -35.287,90.063c-19.525,30.762 -49.534,57.041 -87.046,79.545c7.5,-59.3 19.491,-110.341 35.254,-146.35m214.658,307.709c-7.504,-2.263 -16.516,1.504 -18.775,9.758c0,0.292 -3.266,10.2 -9.258,26.421c-0,0.037 -0,0.037 -0.038,0.075c-11.416,31.012 -32.666,85 -59.733,138.629c-58.546,118.567 -103.562,198.867 -142.617,45.771c-13.495,-49.538 -21.75,-111.817 -25.487,-179.375c-3.013,-56.288 -2.263,-113.325 2.225,-165.125c54.817,-30.763 93.079,-63.788 116.342,-100.546c22.508,-36.037 35.287,-70.571 39.77,-103.596c3.771,-30.008 -0.754,-57.041 -13.491,-78.041c-15.759,-27.03 -42.038,-41.28 -72.8,-39.017c-24.013,1.504 -48.029,12.746 -70.571,33.025c-24.017,21.754 -45.017,52.512 -62.283,92.287c-16.509,36.796 -29.255,88.559 -36.759,148.613c-3.012,21 -5.271,42.033 -6.783,63.787c-43.504,17.267 -89.308,33.025 -133.567,48.03l-58.55,20.279c-5.996,-66.046 -12.746,-135.867 -15.004,-195.129c32.267,-24.013 54.779,-51.8 69.029,-84.067c9.009,-19.529 13.534,-39.025 12.021,-56.288c-0.75,-17.266 -5.992,-32.27 -15.754,-45.016c-17.267,-21.788 -46.525,-33.025 -76.571,-27.784c-8.004,1.4 -15.9,3.917 -23.437,7.542c-0.038,0 -0.038,0 -0.038,0.033c-8.687,4.13 -16.942,9.621 -24.55,16.442c-3.804,3.446 -7.362,7.108 -10.625,11.017l-0.037,0.037c-10.338,12.242 -18.2,26.85 -23.871,44.475c-11.988,35.288 -13.5,92.325 -10.484,158.379c-24.016,10.48 -48.783,20.242 -74.304,30.009c-28.466,10.625 -55.996,21 -81.054,32.666c-10.733,4.95 -21,10.155 -30.692,15.759c-7.645,4.379 -14.97,8.971 -21.858,13.854c-42.754,30.046 -63.792,66.8 -63.792,112.604c0,8.258 6.75,15.008 15.009,15.008c8.254,0 15,-6.75 15,-15.008c-0,-78.825 82.566,-110.346 178.621,-147.1c21.791,-8.258 43.545,-16.512 65.295,-25.521c3.771,61.521 15.763,120.071 15.763,177.863l-21.004,11.271c-26.275,14.25 -46.521,28.504 -60.054,44.262c-16.513,18.771 -24.73,39.021 -24.73,60.808c0,8.259 6.746,15.005 15,15.005c8.259,-0 15.009,-6.746 15.009,-15.005c-0,-33.025 31.516,-60.054 79.546,-84.07c5.241,57.795 9.766,111.066 9.766,153.85c0.75,27.787 -1.512,49.541 -4.525,63.791c-4.491,17.263 -23.258,19.525 -21.754,32.271c-1.504,23.258 94.55,30.763 113.325,2.263c23.258,-35.288 20.279,-132.855 3.767,-293.455l65.296,-22.508c40.529,-14.25 82.566,-27.783 122.337,-43.542c-0.754,28.538 -1.508,57.796 -0.754,87.805c2.225,63.783 8.254,125.35 18.737,177.145c12.025,57.759 27.784,102.055 47.313,131.309c19.487,29.291 41.246,43.541 66.766,43.541l1.505,0c39.025,0 71.295,-32.27 93.837,-58.541c24.017,-29.259 48.783,-69.034 73.55,-118.567c10.375,-20.75 19.888,-41.571 28.321,-61.133c25.742,-59.696 41.642,-107.904 42.217,-108.479c2.262,-7.5 -1.509,-15.759 -9.763,-18.771" style="fill:#fff;fill-rule:nonzero;"/><path d="M1991.04,2235.03c-8.254,-1.504 -15.754,4.488 -17.266,12.746c-0,0.142 -0.534,3.479 -1.575,9.333c-4.346,24.263 -17.488,92.25 -37.442,158.767c-42.788,141.112 -69.821,135.871 -69.821,-36.758c0.754,-66.8 6.033,-108.838 6.033,-109.592c1.471,-53.271 -99.075,-54.775 -103.6,-29.254c-0.25,1.221 -1.291,11.308 -2.508,27.171c0,0.037 0,0.037 -0.037,0.075c-1.688,21.966 -3.7,55.029 -4.384,90.995c-0.283,17.017 -0.283,34.675 0.184,52.125c1.508,48.025 6.745,87.8 15.754,117.092c24.771,86.296 98.325,87.05 138.85,14.25c17.266,-27.783 33.025,-67.558 48.783,-117.846c3.229,-10.7 6.283,-21.433 9.154,-32.058c19.6,-72.758 29.867,-139.171 29.867,-139.813c1.504,-8.262 -3.738,-15.758 -11.992,-17.233m-166.629,-164.371c-20.246,0 -36.758,15.759 -36.758,36.759c-0,20.283 16.512,36.037 36.758,36.037c21.788,0 38.3,-15.754 38.3,-36.037c0,-21 -16.512,-36.759 -38.3,-36.759" style="fill:#fff;fill-rule:nonzero;"/><path d="M2186.18,2296.56c-37.55,-9.767 -66.05,-140.359 -28.538,-147.859c3.771,-0.754 14.288,0 22.546,21c7.5,15.796 11.233,39.059 11.233,67.559c0,18.77 -2.262,39.016 -5.241,59.3m162.862,-57.038c-3.017,-7.504 -12.025,-11.275 -19.529,-7.504c-5.992,2.262 -7.5,5.992 -9.008,9.767c-4.525,9.72 -9.117,18.337 -14.105,25.804c-18.204,27.066 -42.108,39.091 -90.966,34.962c3.771,-21.75 6.033,-44.258 6.033,-65.291c0,-32.275 -4.525,-60.021 -13.533,-79.546c-14.25,-33.784 -37.513,-39.021 -50.292,-39.021c-37.512,-0 -62.279,26.275 -64.542,67.554c-2.225,29.258 8.259,63.792 26.28,90.783c16.512,24.017 37.508,41.284 61.558,49.538c-36.038,126.104 -95.342,222.917 -105.1,25.521c-2.983,-55.529 0.75,-105.067 0.75,-105.067c3.771,-57.796 -96.054,-58.546 -102.054,-19.525c-0,0.929 -1.146,12.454 -2.329,29.613c-1.692,24.658 -3.521,61.025 -2.192,94.225c0.679,14.429 1.758,28.037 3.158,40.745c6.209,56.109 19.313,95.446 38.875,116.88c12.025,12.741 27.029,19.487 43.542,19.487c26.279,0 51.046,-10.479 73.554,-31.512c19.488,-17.271 36.004,-42.038 51.046,-72.8c12.742,-27.746 23.258,-59.263 30.008,-91.571c42.463,1.791 72.438,-5.204 96.054,-23.692c16.05,-12.529 29.15,-30.371 41.288,-54.35l-0,-0.754c3.012,-4.488 3.729,-9.763 1.504,-14.246" style="fill:#fff;fill-rule:nonzero;"/><path d="M2451.85,2157.72c8.254,-3.017 8.254,-3.017 8.254,9.008c-0,5.996 -4.488,22.504 -45.013,43.542c7.504,-27.029 20.246,-45.804 36.759,-52.55m150.87,77.321c-7.5,-3.771 -16.512,-0.754 -20.279,6.75c-29.258,54.775 -60.054,111.816 -90.816,153.096c-77.288,98.32 -78.792,-75.063 -83.317,-148.613c54.812,-24.017 81.808,-50.287 81.808,-79.546c0,-22.504 -11.987,-41.279 -32.275,-51.046c-13.496,-6.745 -29.254,-8.254 -46.521,-5.991c-17.262,3.012 -34.533,10.516 -49.533,22.504c-15.758,12.029 -27.746,30.046 -37.512,52.55c-10.267,26.533 -16.013,54.604 -17.875,82.85c-0.938,13.75 -0.975,27.571 -0.146,41.283c1.829,32.163 8.221,63.717 18.021,92.759c18.775,54.02 48.029,83.312 82.558,83.312c47.279,0 81.808,-39.017 108.804,-72.042c32.271,-42.787 63.788,-101.337 93.079,-157.62c3.734,-7.505 1.509,-16.517 -5.996,-20.246" style="fill:#fff;fill-rule:nonzero;"/><path d="M2871.63,1674.35c-0.188,11.116 -1.117,21.904 -2.883,32.471c-0.584,4.237 -1.371,8.491 -2.267,12.658c-14.9,68.221 -60.442,119.629 -118.888,125.621c-58.145,5.958 -112.816,-34.667 -141.195,-97.942c-2.075,-4.371 -3.971,-8.962 -5.567,-13.587c-3.608,-9.405 -6.546,-19.184 -8.913,-29.325c-10.683,10.97 -21.937,21.391 -33.629,30.529c4.346,13.608 9.663,26.708 16.013,38.987c37,72.888 105.066,119.063 177.425,111.646c72.754,-7.458 130.108,-66.796 151.5,-146.175c3.529,-13.292 6.075,-27.2 7.458,-41.496c-13.308,-6.679 -26.454,-14.7 -39.054,-23.387m-24.863,-179.929c-0.116,-0.192 -0.341,-0.371 -0.462,-0.559c-37.788,-40.833 -88.092,-63.679 -140.692,-58.287c-52.6,5.391 -97.312,38.079 -126.012,85.925c-0.088,0.116 -0.179,0.225 -0.171,0.329c-8.692,14.533 -15.929,30.346 -21.425,47.304c12.262,-3.6 24.358,-6.775 35.792,-9.471l12.441,-2.804c8.804,-18.417 20.192,-34.454 33.629,-47.437c19.567,-18.705 43.375,-30.817 69.875,-33.538c26.505,-2.717 52.163,4.225 75.121,18.571c15.779,9.887 30.284,23.271 42.642,39.521c4.175,-0.021 8.558,0.033 12.958,0.196c11.638,0.333 23.917,0.908 36.638,1.845c-8.796,-15.287 -18.979,-29.216 -30.334,-41.595" style="fill:#fff;fill-rule:nonzero;"/><path d="M2658.05,1617.23c-0.612,0.979 -1.116,2.046 -1.716,3.129c-12.646,22.68 -36.213,55.034 -64.413,83.892c2.363,10.142 5.3,19.921 8.913,29.325c2.516,-1.275 5.721,-2.825 9.504,-4.637c1.271,-0.538 2.525,-1.18 3.987,-1.838c1.359,-0.646 2.821,-1.304 4.38,-1.971c4.287,-1.871 9.175,-3.896 14.458,-5.966c0.292,-0.13 0.583,-0.263 0.875,-0.396l0.104,-0.009c25.7,-28.395 46.008,-57.77 57.596,-78.812c2.329,-4.109 4.346,-8.288 6.279,-12.25c-13.992,-1.421 -27.487,-4.925 -39.967,-10.467m-1.716,3.129c-12.646,22.68 -36.213,55.034 -64.413,83.892c-10.687,10.971 -21.941,21.392 -33.629,30.529c-26.637,21.263 -54.854,36.071 -80.425,35.942c-25.996,-0.284 -47.333,-16.738 -65.129,-50.246c-12.721,-23.746 -14.05,-44.683 -4.3,-63.812c20.942,-41.046 88.254,-69.838 149.571,-87.525c12.262,-3.6 24.358,-6.775 35.791,-9.471l12.438,-2.804c17.733,-3.859 33.137,-6.559 44.687,-8.146c8.767,-0.9 14.875,1.121 18.013,5.891c6.262,9.438 5.142,32.263 -10.888,62.621c-0.612,0.979 -1.116,2.046 -1.716,3.129m46.466,-88.058c-5.783,-8.775 -13.9,-15.375 -23.483,-19.487c-9.675,-4 -20.833,-5.6 -32.929,-4.363l-0.604,0.063c-0.404,0.041 -2.509,0.358 -5.913,0.912c-10.129,1.546 -32.441,5.363 -60.266,12.079l-0.3,0.034c-15.013,3.579 -31.563,8.02 -48.725,13.445c-83.363,26.163 -136.513,60.938 -158.15,103.171c-16.134,31.392 -14.567,65.546 4.483,101.371c31.383,58.796 71.987,71.433 100.621,71.658c3.971,0 7.929,-0.104 11.962,-0.516c28.909,-3.067 57.9,-17.238 84.804,-36.9c11.092,-8.059 21.871,-17.104 32.1,-26.604c9.755,-9.15 18.884,-18.434 27.55,-28.284l0.088,-0.112l0.104,-0.009c25.7,-28.395 46.008,-57.77 57.596,-78.812c2.329,-4.108 4.346,-8.288 6.279,-12.25c18.092,-38.108 19.975,-72.413 4.783,-95.396" style="fill:#fff;fill-rule:nonzero;"/><path d="M2900.52,1524.47c96.586,14.345 170.092,59.052 164.044,99.774c-6.048,40.722 -8.124,112.137 -104.711,97.792c-96.586,-14.345 -216.967,-127.802 -210.919,-168.524c6.048,-40.722 54.999,-43.387 151.586,-29.042Z" style="fill:#ffc800;"/><path d="M3052.01,1654.94c-10.625,36.425 -28.183,56.858 -53.575,62.412c-25.508,5.467 -56.787,-3.646 -87.754,-19.617c-13.308,-6.679 -26.454,-14.7 -39.054,-23.387c-32.733,-22.304 -61.808,-48.654 -78.458,-68.025c-0.93,-1.125 -1.959,-2.242 -2.788,-3.379c-21.412,-26.113 -27.125,-48.029 -22.896,-58.442c2.104,-5.308 7.679,-8.529 16.446,-9.429c11.229,-0.738 26.246,-1.258 43.571,-1.1c4.175,-0.021 8.558,0.037 12.958,0.2c11.638,0.333 23.917,0.904 36.638,1.842c64.129,4.729 136.996,19.254 166.175,55.57c13.429,16.746 16.375,37.525 8.737,63.355m22.771,-88.788c-29.654,-36.975 -88.858,-60.233 -175.796,-68.937c-18.521,-1.871 -36.341,-2.896 -52.166,-3.305c-0.213,-0.083 -0.313,-0.07 -0.517,-0.05c-29.617,-0.833 -52.538,0.088 -61.442,0.592c-2.337,0.038 -3.75,0.179 -4.054,0.213l-0.6,0.062c-24.187,2.483 -42.537,15.158 -50.404,34.796c-10.108,25.579 -1.425,58.6 23.804,92.162c2.708,3.592 5.746,7.35 8.867,11.005c15.833,18.337 41.908,43.258 73.158,66.02c9.808,7.242 20.196,14.221 30.846,20.767c11.85,7.338 24.246,14.013 36.746,19.754c30.687,14.267 62.5,22.613 91.929,19.6c4.025,-0.412 7.925,-1.121 11.812,-1.925c27.996,-6.029 65.288,-26.65 83.992,-90.583c11.383,-38.942 5.988,-72.708 -16.175,-100.171" style="fill:#fff;fill-rule:nonzero;"/><path d="M2869.12,1733.58c-137.845,-46.1 -261.312,25.008 -262.541,25.733l-25.796,-43.583c5.792,-3.45 144.071,-83.809 304.396,-30.188l-16.059,48.038Z" style="fill:#fff;fill-rule:nonzero;"/><path d="M2864.7,1818.06c-124.537,-44.479 -235.608,22.196 -236.712,22.88l-26.63,-43.084c5.346,-3.308 132.35,-80.358 280.367,-27.491l-17.025,47.695Z" style="fill:#fff;fill-rule:nonzero;"/><path d="M2758.61,1951.55l29.129,-92.917l-76.5,7.846l47.371,85.071Z" style="fill:#fff;fill-rule:nonzero;"/><path d="M2678.25,1469.99l-30.362,1.204l15.179,-0.6l-15.179,0.629c-0.03,-0.683 -3.471,-68.808 -46.925,-101.383l18.229,-24.312c55.146,41.333 58.925,121.083 59.058,124.462" style="fill:#fff;fill-rule:nonzero;"/><path d="M2627.36,1360.46c-1.317,-12.883 -12.833,-22.254 -25.712,-20.933c-12.884,1.321 -22.255,12.833 -20.934,25.713c1.321,12.879 12.834,22.254 25.717,20.933c12.879,-1.321 22.25,-12.833 20.929,-25.713" style="fill:#fff;fill-rule:nonzero;"/><path d="M2739.29,1463.73l29.975,-4.979l-14.983,2.487l14.988,-2.458c-0.109,-0.679 -10.559,-68.079 25.383,-108.8l-22.783,-20.104c-45.609,51.658 -33.13,130.52 -32.58,133.854" style="fill:#fff;fill-rule:nonzero;"/><path d="M2766.9,1346.15c-1.321,-12.883 8.05,-24.395 20.929,-25.716c12.883,-1.321 24.396,8.054 25.717,20.933c1.32,12.879 -8.05,24.392 -20.934,25.713c-12.879,1.32 -24.396,-8.05 -25.712,-20.93" style="fill:#fff;fill-rule:nonzero;"/><path d="M2597.48,2276.74c36.071,-64.005 53.384,-130.355 57.025,-191.971c0.884,-15.021 0.671,-30.113 -0.862,-45.084c-1.488,-14.579 -3.517,-29.525 -8.279,-43.445c-4.68,-13.7 -11.909,-27.509 -23.43,-36.684c-11.254,-8.962 -25.595,-15.133 -40.27,-13.846c-16.971,1.492 -30,10.95 -39.13,25.046c-7.004,10.821 -11.9,23.654 -14.533,36.254c-5.179,24.817 -3.217,53.046 11.733,74.359c16.475,23.483 44,35.446 72.425,34.379c28.963,-1.083 54.88,-14.654 76.1,-33.763c20.684,-18.629 37.438,-42.466 50.492,-66.933c13.492,-25.296 23.525,-52.658 29.046,-80.8c1.504,-7.687 2.617,-15.433 3.6,-23.208c1.062,-8.413 -8.192,-16.509 -16.154,-16.154c-9.663,0.437 -15.013,7.137 -16.154,16.154c-0.634,5.021 0.541,-3.213 -0.242,1.783c-0.242,1.513 -0.463,3.029 -0.708,4.542c-0.496,3.025 -1.042,6.037 -1.646,9.046c-1.292,6.508 -2.825,12.975 -4.592,19.375c-1.633,5.908 -3.458,11.766 -5.479,17.55c-1.008,2.895 -2.067,5.775 -3.167,8.629c-0.554,1.433 -1.116,2.858 -1.696,4.279c-0.383,0.942 -0.77,1.892 -1.166,2.833c0.629,-1.508 0.571,-1.387 -0.179,0.363c-5.275,11.658 -11.034,23.016 -17.746,33.921c-3.209,5.22 -6.596,10.333 -10.15,15.325c-1.767,2.475 -3.563,4.92 -5.417,7.333c2.108,-2.742 -0.862,1.054 -1.067,1.308c-1.22,1.513 -2.458,3.017 -3.72,4.496c-3.78,4.45 -7.742,8.75 -11.921,12.829c-2.084,2.034 -4.221,4.017 -6.409,5.934c-1.091,0.958 -2.195,1.895 -3.316,2.82c-0.746,0.613 -1.496,1.221 -2.259,1.817c1.367,-1.046 1.309,-1.008 -0.179,0.113c-4.291,3.091 -8.683,6.016 -13.321,8.57c-2.525,1.396 -5.116,2.646 -7.733,3.867c-4.242,1.987 2.963,-0.95 -1.475,0.592c-1.721,0.595 -3.417,1.245 -5.154,1.791c-2.567,0.8 -5.167,1.479 -7.792,2.038c-1.321,0.279 -2.646,0.491 -3.971,0.741c-4.379,0.838 3.4,-0.175 -1.05,0.134c-5.875,0.396 -11.554,0.446 -17.429,-0.05c4.075,0.346 -0.279,-0.054 -0.979,-0.179c-1.312,-0.234 -2.608,-0.5 -3.904,-0.809c-2.571,-0.6 -5.117,-1.337 -7.604,-2.22c-0.6,-0.213 -4.579,-1.955 -1.021,-0.321c-1.192,-0.55 -2.383,-1.105 -3.546,-1.713c-2.725,-1.421 -5.292,-3.066 -7.804,-4.833c3.087,2.171 -0.392,-0.371 -0.854,-0.779c-0.984,-0.863 -1.938,-1.763 -2.863,-2.692c-0.887,-0.896 -1.75,-1.821 -2.579,-2.771c-0.479,-0.55 -2.862,-3.883 -0.596,-0.633c-1.421,-2.038 -2.8,-4.079 -4.012,-6.254c-0.609,-1.075 -1.175,-2.171 -1.717,-3.288c-0.358,-0.737 -0.704,-1.487 -1.033,-2.242c0.816,1.963 0.896,2.101 0.229,0.417c-1.408,-4.3 -4.004,-9.883 -3.758,-14.496c-0.213,4.03 0.045,0.284 -0.05,-0.725c-0.121,-1.266 -0.209,-2.541 -0.271,-3.808c-0.15,-2.992 -0.142,-5.987 0.004,-8.979c0.062,-1.288 0.15,-2.575 0.262,-3.863c0.013,-0.12 0.421,-4.354 0.146,-1.712c-0.275,2.637 0.254,-1.567 0.279,-1.7c0.217,-1.279 0.455,-2.554 0.725,-3.829c1.155,-5.534 2.892,-10.817 4.771,-16.138c1.438,-4.054 -1.466,2.992 0.354,-0.887c0.542,-1.159 1.067,-2.321 1.634,-3.471c1.258,-2.542 2.612,-5.042 4.129,-7.438c0.758,-1.195 1.542,-2.383 2.392,-3.516c-2.13,2.829 0.775,-0.721 1.079,-1.046c0.958,-1.008 1.975,-1.971 3.041,-2.867c-2.666,2.242 1.796,-0.904 2.434,-1.296c3.233,-1.97 -2.838,0.471 0.829,-0.279c0.979,-0.2 2.642,-1.079 3.654,-0.879c-0.604,0.083 -1.208,0.158 -1.812,0.242c0.833,-0.084 1.67,-0.129 2.512,-0.15c1.271,-0.021 2.521,0.091 3.792,0.133c-4.05,-0.133 -0.209,-0.004 0.75,0.208c1.262,0.284 2.512,0.625 3.741,1.021c0.684,0.221 4.463,1.959 0.984,0.267c1.575,0.767 3.121,1.546 4.621,2.458c1.112,0.679 2.195,1.417 3.258,2.179c-3.092,-2.229 0.267,0.355 0.737,0.796c0.98,0.917 1.913,1.875 2.805,2.871c0.291,0.317 3.112,4.004 1.062,1.167c1.667,2.308 3.179,4.712 4.529,7.221c0.679,1.258 1.279,2.55 1.921,3.824c0.763,1.709 0.792,1.738 0.083,0.084c0.363,0.891 0.705,1.787 1.034,2.687c1.996,5.438 3.487,11.05 4.683,16.717c0.625,2.962 1.171,5.942 1.663,8.933c0.275,1.634 0.52,3.267 0.762,4.909c0.283,1.975 0.313,2.179 0.088,0.612c0.137,1.092 0.266,2.183 0.387,3.279c1.463,13.05 1.913,26.213 1.492,39.338c-0.242,7.662 -0.784,15.312 -1.584,22.933c-0.17,1.638 -0.354,3.275 -0.55,4.908c-0.133,1.092 -0.27,2.18 -0.412,3.271c0.217,-1.571 0.187,-1.366 -0.088,0.609c-0.57,3.812 -1.158,7.62 -1.825,11.42c-2.675,15.3 -6.27,30.434 -10.508,45.375c-8.533,30.075 -19.675,59.33 -31.721,88.155c-3.266,7.82 3.517,18.1 11.284,19.87c9.441,2.15 10.316,3.625 10.316,3.625" style="fill:#fff;fill-rule:nonzero;"/><path d="M972.018,2105.95c-3.625,6.929 -14.288,10.016 -20.855,5.458c-5.35,-3.658 -10.695,-7.358 -16.012,-11.092c-1.004,-0.683 -1.971,-1.4 -2.979,-2.083c-51.221,-36.113 -100.867,-74.488 -148.717,-114.975c-46.237,-39.129 -91.033,-80.158 -133.425,-123.446c-41.533,-42.396 -80.55,-87.592 -113.433,-137.092c-32.813,-49.429 -55.463,-103.666 -70.721,-161.137c-15.471,-58.296 -18.413,-126.75 -6.783,-186.233c0.075,-0.538 0.179,-1.038 0.291,-1.58c0,0 6.642,-4.987 14.213,-3.266c5.991,1.404 9.654,6.358 10.696,11.921c-1.684,9.55 -2.98,20.029 -3.805,27.712c0.113,-0.142 0.217,-0.325 0.325,-0.467c-0.504,3.192 -0.895,6.388 -1.225,9.617c-0.104,1.258 -0.179,1.942 -0.179,1.942c-0.929,9.908 -1.183,19.921 -1.25,29.791c-0.075,14.363 0.679,28.755 2.225,43.009c0.217,1.862 0.429,3.729 0.646,5.596c0.104,0.754 0.175,1.508 0.283,2.295c0,0.075 0.038,0.146 0.038,0.217c-0,0.075 0.037,0.183 0.037,0.288c0.034,0.358 0.105,0.716 0.142,1.075c0.471,3.125 0.933,6.283 1.475,9.445c1.146,7.034 2.471,13.996 4.021,20.963c3.121,14.358 6.958,28.537 11.45,42.537c2.187,6.821 4.521,13.567 6.996,20.28c1.333,3.554 2.696,7.07 4.096,10.591c0.608,1.579 1.254,3.121 1.866,4.7c0.25,0.542 1.146,2.729 1.325,3.163c0,0.033 0.038,0.033 0.038,0.033c5.562,13.175 11.771,26.096 18.412,38.767c13.317,25.271 28.542,49.5 45.121,72.762c4.242,5.888 8.508,11.742 12.892,17.517c1.112,1.437 2.187,2.875 3.3,4.312l-0,0.03c-0,-0 0.037,0.037 0.071,0.037c-0,0.038 -0,0.038 0.037,0.075c0,0.033 0.033,0.033 0.033,0.033c0.075,0.071 0.109,0.18 0.184,0.255l0.033,0.033c0.038,0.037 0.071,0.108 0.108,0.146c0,0.037 0.075,0.071 0.075,0.071c0.105,0.141 0.18,0.25 0.246,0.325c0.396,0.462 0.754,0.966 1.117,1.433c2.154,2.767 4.342,5.529 6.567,8.296c8.975,11.158 18.2,22.108 27.679,32.841c19.096,21.684 39.125,42.538 59.658,62.855c42.792,42.358 87.588,82.704 133.929,121.079c11.879,9.8 23.834,19.491 35.934,29.041c5.562,4.413 11.129,8.792 16.762,13.171c0.038,0 0.071,0.038 0.142,0.071l0.075,0.075c0.066,0.071 0.104,0.104 0.179,0.142l0.037,0.037c0.034,0.038 0.067,0.038 0.105,0.071c0.537,0.429 1.329,1.042 1.437,1.113c0.717,0.537 1.4,1.079 2.121,1.616c1.362,1.079 2.762,2.117 4.162,3.196l8.938,6.779c24.196,18.275 48.746,35.971 73.696,53.167c0.25,0.179 0.466,0.321 0.712,0.5c7.042,4.846 9.588,13.104 5.459,20.892" style="fill:#fff;fill-rule:nonzero;"/><path d="M954.834,2109.03c12.438,10.463 24.879,20.921 37.317,31.388c11.317,9.516 21.292,20.316 30.35,31.991c-0.792,-1.029 -1.592,-2.058 -2.383,-3.087c5.716,7.412 10.616,15.287 14.27,23.925c-0.512,-1.213 -1.025,-2.429 -1.537,-3.646c3.179,7.667 5.358,15.675 6.471,23.896c-0.179,-1.35 -0.363,-2.704 -0.546,-4.054c1.112,8.57 1.062,17.22 -0.046,25.795c0.179,-1.354 0.363,-2.704 0.546,-4.062c-1.321,9.721 -3.975,19.187 -7.754,28.237c0.512,-1.216 1.025,-2.433 1.537,-3.645c-4.166,9.837 -9.604,19.066 -16.116,27.537c0.8,-1.029 1.595,-2.058 2.387,-3.087c-6.554,8.45 -14.117,16.062 -22.558,22.637c1.033,-0.796 2.062,-1.592 3.091,-2.387c-7.925,6.108 -16.537,11.25 -25.741,15.175c1.216,-0.513 2.429,-1.025 3.646,-1.538c-8.434,3.542 -17.255,6.025 -26.321,7.25c1.354,-0.183 2.704,-0.367 4.058,-0.546c-7.446,0.963 -15.021,1.138 -22.479,0.188c1.35,0.183 2.704,0.366 4.054,0.546c-6.4,-0.875 -12.608,-2.596 -18.571,-5.084c1.213,0.513 2.429,1.025 3.646,1.538c-6.021,-2.579 -11.654,-5.892 -16.858,-9.867c1.029,0.8 2.058,1.592 3.091,2.388c-5.291,-4.117 -10.02,-8.846 -14.145,-14.125c0.791,1.029 1.591,2.062 2.383,3.091c-4.467,-5.821 -8.05,-12.175 -10.933,-18.916c0.512,1.216 1.025,2.433 1.537,3.645c-3.529,-8.445 -5.787,-17.283 -7.021,-26.35c0.184,1.35 0.367,2.7 0.546,4.055c-2.008,-15.479 -1.25,-31.146 -0.471,-46.688c0.4,-7.987 -7.308,-15.621 -15.266,-15.267c-8.613,0.388 -14.834,6.713 -15.267,15.267c-1.021,20.409 -1.746,41.042 2.879,61.113c4.5,19.525 14.583,38.404 29.546,51.904c15.154,13.679 33.908,21.992 54.271,23.65c15.275,1.246 31.346,-1.404 45.646,-6.833c29.937,-11.355 55.27,-33.292 71.07,-61.163c15.859,-27.983 21.83,-61.996 12.45,-93.162c-2.47,-8.205 -5.933,-16.259 -10.2,-23.692c-5.079,-8.85 -11.579,-16.904 -18.141,-24.679c-14.063,-16.646 -31.196,-29.988 -47.804,-43.959c-4.346,-3.654 -8.696,-7.312 -13.042,-10.97c-3.167,-2.659 -6.529,-4.471 -10.796,-4.471c-3.746,-0 -8.217,1.666 -10.796,4.47c-5.196,5.667 -6.525,16.105 0,21.592" style="fill:#fff;fill-rule:nonzero;"/><path d="M480.489,1410.14c0.109,-0.142 0.217,-0.325 0.325,-0.467c-0.504,3.192 -0.9,6.388 -1.225,9.617c0.146,-1.938 0.467,-5.167 0.9,-9.15" style="fill:#ffc800;fill-rule:nonzero;"/><path d="M489.392,1362.72c-2.3,6.321 -3.983,12.925 -5.062,19.883c-0,-0.067 -0.038,-0.104 -0.038,-0.179c1.4,-8 3.125,-15.288 5.1,-19.704" style="fill:#ffc800;fill-rule:nonzero;"/></g></svg>