<?xml version="1.0" encoding="UTF-8" standalone="no"?><!DOCTYPE svg PUBLIC "-//W3C//DTD SVG 1.1//EN" "http://www.w3.org/Graphics/SVG/1.1/DTD/svg11.dtd"><svg width="100%" height="100%" viewBox="0 0 3334 3334" version="1.1" xmlns="http://www.w3.org/2000/svg" xmlns:xlink="http://www.w3.org/1999/xlink" xml:space="preserve" xmlns:serif="http://www.serif.com/" style="fill-rule:evenodd;clip-rule:evenodd;stroke-linejoin:round;stroke-miterlimit:2;"><rect id="main-logo" x="0" y="0" width="3333.33" height="3333.33" style="fill:none;"/><g id="Layer-1" serif:id="Layer 1"><path d="M2916.81,2391.72l0,-1445.37l-1251.72,-722.679l-1251.72,722.679l0,1445.37l1251.72,722.679l1251.72,-722.679Z" style="fill:#ffc800;fill-rule:nonzero;"/><path d="M2904.43,1521.48c96.586,14.345 170.092,59.052 164.044,99.774c-6.048,40.722 -8.124,112.136 -104.711,97.792c-96.586,-14.345 -216.967,-127.802 -210.919,-168.524c6.048,-40.722 54.999,-43.387 151.586,-29.042Z" style="fill:#ffc800;"/><path d="M1765.19,579.24c-5.313,-1.475 -9.655,2.405 -11.592,7.25c-10.271,27.859 -40.492,46.955 -79.154,60.196c-5.492,1.909 -11.163,3.663 -16.979,5.317c-8.075,2.329 -16.442,4.412 -24.984,6.317c-22.937,5.133 -47.204,8.866 -71.004,11.633c-38.012,4.45 -74.846,6.458 -103.487,7.821c0.966,-13.996 1.437,-27.067 0.966,-37.688c-2.904,-43.937 -67.629,-22.221 -67.629,0c0,11.592 0,25.125 -0.967,40.6c-31.875,1.9 -62.783,4.809 -90.816,10.117c-28.504,4.846 -52.159,11.129 -71.975,19.317c-23.188,9.687 -41.067,21.754 -55.063,36.72c-10.625,11.596 -18.846,25.13 -23.654,40.096c-5.317,15.475 -7.721,33.35 -6.787,52.159c-0,5.312 4.379,9.658 9.691,9.658l0.467,-0c5.312,-0.471 9.192,-4.813 9.192,-10.125c-1.475,-32.846 6.745,-58.438 25.591,-78.754c38.159,-41.534 116.413,-54.1 202.384,-59.413c-0.967,20.321 -2.405,42.504 -4.342,66.663c-4.342,73.441 -9.658,157.008 -9.192,228.479c0.971,86.475 10.625,136.692 30.442,157.008c6.783,7.721 15.471,11.563 24.625,11.563l0.971,-0c20.279,-0.471 40.096,-17.842 60.879,-52.625c15.433,-26.1 31.371,-61.85 47.346,-106.292c9.154,-25.917 16.225,-47.562 21.575,-64.825c10.191,-32.921 14.141,-49.971 14.141,-50.617c1.475,-4.808 -1.9,-10.125 -7.25,-11.591c-4.808,-0.975 -10.12,1.937 -11.558,7.246c0,0.108 -0.146,0.825 -0.433,2.083c-2.042,9.008 -11.592,46.342 -34.854,111.421c-15.434,43.512 -30.905,77.787 -45.409,102.412c-29.433,49.292 -32.341,-54.558 -32.841,-117.375c-0.471,-69.071 4.845,-147.787 9.187,-217.358c1.938,-25.125 3.375,-48.783 4.342,-69.567c4.846,-0.466 9.191,-0.466 14,-0.466c28.896,-1.217 58.258,-2.405 86.691,-4.38c23.871,-1.616 47.096,-3.841 68.813,-7.141c11.667,-1.763 22.867,-3.842 33.529,-6.317l0,-0.037c0.75,-0.142 1.504,-0.321 2.258,-0.5c5.459,-1.334 10.663,-2.767 15.688,-4.309c22.183,-6.75 40.275,-15.404 54.85,-25.633c20.279,-14.971 33.817,-34.279 39.125,-57.471c1.437,-5.308 -1.938,-10.154 -6.783,-11.592" style="fill-rule:nonzero;"/><path d="M1623.69,705.775c0.862,-7.571 1.829,-14.467 2.837,-20.675c1.83,-10.842 3.842,-19.709 5.959,-26.78c9.083,-30.258 20.104,-27.854 24.983,-6.316c1.65,7.033 2.588,16.116 2.588,26.741l-0,0.034c-0,15.041 -1.871,33.166 -6.43,53.096c-6.279,28.966 -19.812,54.091 -33.345,73.908c-0.934,-38.158 -0,-71.971 3.408,-100.008m262.762,167.133c-4.845,-1.433 -10.158,1.475 -12.062,6.283c-0,0.217 -2.692,9.225 -7.467,23.475c-7.108,20.925 -18.737,53.092 -33.133,84.717c-14.463,30.942 -27.996,55.567 -41.529,72.942c-17.375,21.245 -13.029,-0 -10.159,-21.255c2.909,-21.245 9.692,-46.379 15.471,-70.5c6.75,-25.125 12.567,-48.312 14.971,-68.595c3.371,-26.567 -6.283,-41.53 -15.437,-49.755c-27.067,-23.691 -76.355,-13.529 -98.571,9.192c-10.125,10.125 -20.284,24.625 -30.404,43.471c-11.596,21.717 -22.725,49.25 -32.846,79.692c-6.284,-40.567 -12.1,-94.196 -14.034,-146.855c10.159,-12.062 19.346,-25.129 27.063,-38.158c11.596,-19.817 19.817,-40.562 24.625,-61.817c4.237,-20.887 6.033,-42.066 5.062,-61.812c-0.216,-4.95 -0.612,-9.796 -1.187,-14.5c-0.642,-4.379 -1.433,-8.65 -2.367,-12.746c-3.771,-17.046 -9.837,-31.333 -18.416,-41.854c-9.155,-11.125 -20.28,-16.904 -32.342,-16.438c-14.5,0 -27.067,6.784 -37.692,19.813c-10.658,13.317 -18.916,34.137 -24.516,61.742c-1.434,7 -2.692,14.429 -3.767,22.291c-0.075,0.504 -0.146,0.967 -0.217,1.471c-4.346,32.846 -6.283,72.942 -4.812,119.788c0.575,24.479 1.975,49.645 3.912,74.054c1.438,18.237 3.2,36.075 5.1,52.875c3.946,34.425 8.688,64.687 13.209,85.612c3.375,15.938 63.25,13.534 67.125,0.471c13.033,-43.937 27.533,-85.008 43.008,-114.942c17.875,-33.345 36.217,-51.695 51.187,-51.695c3.371,-0 4.846,0.975 5.813,2.412c2.404,2.433 5.317,11.121 1.904,35.279c-2.404,18.813 -7.717,41.534 -13.496,65.192c-14.037,57 -27.066,110.633 -7.754,134.754c4.342,5.817 13.067,12.563 28.033,12.563c24.625,-0 43.938,-20.746 57.005,-38.159c14,-18.341 28.97,-44.437 43.47,-76.783c7.717,-16.758 14.609,-33.596 20.463,-48.85c13.208,-34.425 21.212,-60.954 21.537,-61.275c1.471,-5.317 -1.437,-10.625 -6.75,-12.1" style="fill-rule:nonzero;"/><path d="M1943.42,846.632c4.667,-3.159 4.667,-3.159 6.571,4.308c0.967,3.767 0.75,14.787 -21.179,34.283c0.392,-18.021 5.383,-31.771 14.608,-38.591m106.359,24.375c-5.275,-1.15 -10.442,2.154 -11.592,7.429c-9.588,38.804 -19.779,79.258 -32.417,109.879c-32.7,73.55 -61.058,-34.35 -75.487,-79.546c30.366,-23.658 43.075,-44.296 38.446,-62.571c-3.555,-14.033 -14,-23.829 -28.217,-26.737c-9.475,-2.084 -19.563,-0.504 -29.975,3.625c-10.3,4.591 -19.888,12.021 -27.317,21.896c-7.966,9.979 -12.6,23.116 -15.112,38.695c-0.75,6.28 -1.15,12.675 -1.184,18.988c-0.145,14.683 1.58,29.329 4.738,43.617c5.925,26.275 16.871,51.295 30.729,72.725c20.283,30.725 43.146,44.37 64.683,38.912c29.509,-7.504 44.871,-37.296 56.5,-62.175c13.392,-31.804 23.8,-73.3 33.134,-113.037c1.15,-5.275 -1.65,-10.55 -6.929,-11.7" style="fill-rule:nonzero;"/><path d="M995.252,1826.78c-28.717,4.562 -63.934,-28.038 -72.405,-51.508c-14.358,-39.813 1.975,-85.438 42.392,-119.359c58.05,-48.246 121.296,-71.075 182.608,-92.612c11.092,24.125 16.296,48.929 16.296,72.404c0,76.958 -50.221,170.862 -168.891,191.075m-161.105,-734.979c20.892,-63.246 58.046,-44.329 32.634,13.029c-9.804,21.537 -25.454,39.129 -45.663,54.137c3.267,-27.395 7.179,-50.22 13.029,-67.166m502.155,312.371c-6.496,-3.267 -13.675,-0 -16.942,6.533c-4.2,9.621 -9.008,18.417 -14.358,26.454c-21.034,31.95 -50.4,52.767 -84.788,69.425c-6.496,-7.825 -14.325,-15.004 -22.796,-22.183c-24.804,-19.563 -55.458,-35.213 -91.316,-45.663c-16.946,-4.558 -35.217,-8.471 -54.134,-11.733c28.034,-15.008 54.775,-38.483 79.579,-68.458c20.213,-25.446 37.155,-54.13 48.892,-82.85c12.383,-29.971 18.917,-59.98 18.917,-86.721c-0,-32.6 -10.442,-59.988 -29.325,-78.904c-20.892,-21.538 -52.838,-32.63 -93.259,-32.63c-54.133,0 -101.733,29.363 -142.187,86.763c-31.3,44.333 -58.692,105.642 -80.875,181.925c-14.321,50.217 -24.767,101.079 -32.592,144.121c-4.558,-87.371 -8.471,-207.371 -2.621,-298.013c31.3,-18.916 57.396,-43.037 72.405,-76.962c19.562,-43.684 7.179,-70.425 -2.621,-82.163c-14.359,-18.271 -39.129,-27.391 -65.871,-22.833c-16.296,2.621 -32.596,10.446 -45.625,22.183c-15.004,13.029 -26.096,30.659 -32.629,51.517c-9.117,26.092 -15.004,66.508 -17.588,120.646c-18.921,6.533 -37.837,12.379 -57.4,18.266c-50.221,15.655 -102.379,31.305 -140.858,56.721c-36.579,24.05 -58.079,53.913 -65.188,91.029c-0.108,0.542 -0.216,1.042 -0.287,1.58c-1.579,8.725 -2.367,17.841 -2.367,27.391c0,7.179 5.884,13.029 13.067,13.029c4.412,0 8.362,-2.225 10.692,-5.633c0.829,-7.683 2.12,-18.162 3.808,-27.712c-0,0.07 0.033,0.108 0.033,0.175c1.079,-6.959 2.767,-13.563 5.063,-19.884c0.037,-0.075 0.037,-0.104 0.071,-0.179c8.295,-22.683 24.483,-41.533 49.433,-57.612c35.212,-23.48 83.492,-38.48 134.358,-54.134c16.296,-5.204 32.592,-9.762 48.246,-15.004c-1.942,45.017 -1.292,98.463 0.646,159.775c3.267,114.15 12.421,214.554 12.421,215.879c2.583,53.45 89.346,23.479 94.55,-8.471c-0,-1.325 9.116,-119.354 46.308,-245.891c20.854,-74.338 46.95,-133.029 76.279,-174.742c43.721,-60.667 135.004,-106.971 149.363,-1.325c5.204,38.479 -8.471,91.963 -36.542,142.829c-27.387,49.571 -67.808,89.346 -97.171,102.375c-17.591,7.825 -4.558,24.771 2.621,24.771c81.521,15.004 132.388,50.217 160.421,92.613c-58.692,20.891 -125.208,45.658 -185.838,95.879c-24.804,20.858 -42.391,45.658 -50.866,72.404c-7.821,25.412 -7.821,51.508 0.65,74.987c16.296,45.621 59.983,73.692 113.466,73.692c37.155,0 73.05,-6.533 105.646,-19.562c14.75,-6.105 28.859,-13.459 42.104,-21.967l0.034,-0.038c12.6,-8.108 24.341,-17.229 35.179,-27.458c-0,-0.037 -0,-0.037 0.037,-0.037c0.971,-0.863 1.938,-1.759 2.871,-2.692c44.334,-43.038 70.429,-100.442 70.429,-157.154c0,-37.192 -11.091,-71.759 -30.654,-101.088c8.471,-3.908 16.296,-8.471 24.767,-13.712c16.908,-10.3 31.267,-21.859 43.579,-34.892c15.721,-16.654 28.071,-35.75 37.942,-57.683c2.621,-6.534 -0,-14.359 -7.179,-16.979" style="fill-rule:nonzero;"/><path d="M1431.54,1339.63c7.179,-2.621 7.179,-2.621 7.179,7.825c0,5.204 -3.912,19.562 -39.125,37.8c6.533,-23.479 17.588,-39.775 31.946,-45.625m131.096,67.162c-6.534,-3.266 -14.359,-0.645 -17.629,5.85c-7.105,13.321 -14.321,26.817 -21.609,40.096c-18.771,34.209 -38.05,67.129 -57.291,92.975c-67.159,85.434 -68.488,-65.225 -72.4,-129.158c47.633,-20.854 71.108,-43.683 71.108,-69.1c-0,-19.563 -10.446,-35.896 -28.067,-44.371c-11.741,-5.846 -25.416,-7.175 -40.421,-5.204c-15.008,2.621 -30.012,9.121 -43.041,19.567c-13.713,10.445 -24.121,26.095 -32.596,45.662c-9.15,23.688 -14.175,48.783 -15.683,74.05c-0.825,13.892 -0.613,27.896 0.537,41.675c2.154,25.238 7.429,49.9 15.146,72.729c16.3,46.954 41.712,72.4 71.721,72.4c41.104,0 71.075,-33.916 94.554,-62.6c11.129,-14.716 22.112,-31.587 32.95,-49.646c16.479,-27.533 32.558,-57.791 47.925,-87.333c3.267,-6.5 1.292,-14.325 -5.204,-17.592" style="fill-rule:nonzero;"/><path d="M1645.44,1532c-28.683,50.862 -34.566,15.004 -34.566,-34.571c-0,-76.279 32.591,-129.117 77.604,-54.775c-0,0.646 0.646,1.292 1.296,1.971c-12.388,33.241 -27.392,63.25 -44.334,87.375m241.942,-128.475c-5.35,-1.579 -11.129,1.183 -14.108,5.816c-0.288,0.43 -0.538,0.896 -0.754,1.33l-0,0.033c-0.325,0.612 -0.575,1.254 -0.788,1.937c0,0.396 -5.962,25.559 -16.55,60.092c-6.962,22.617 -15.904,49.25 -26.492,75.563c-56.07,138.92 -63.895,75.02 -48.929,-49.538c7.829,-62.604 16.984,-101.083 16.984,-101.083c11.091,-52.196 -78.905,-56.104 -84.142,-31.984l-12.388,48.28c-29.358,-38.484 -73.045,-56.75 -110.845,-46.305c-21.538,5.205 -38.48,19.563 -50.9,41.063c-6.896,12.35 -11.955,27.142 -15.08,44.012c-2.545,13.421 -3.804,28.175 -3.804,44.042c0,5.208 0.109,10.196 0.325,14.933c3.517,79.617 35.392,95.375 55.1,97.246c55.425,0 90.638,-55.425 111.492,-93.904c-3.229,29.971 -4.558,56.713 -3.908,79.542c1.325,35.862 7.82,61.962 18.916,78.258c10.446,15 24.121,21.538 39.771,21.538c56.754,-0 95.879,-95.88 111.533,-136.3c1.83,-4.559 3.588,-9.121 5.309,-13.642c24.158,-63.575 38.412,-122.838 39.058,-125.279c1.938,-7.179 -2.621,-14.354 -9.8,-15.65" style="fill-rule:nonzero;"/><path d="M1945.43,1506.59c0,-26.746 3.913,-49.571 11.738,-67.846c31.946,-66.517 60.662,8.471 81.521,39.775c-0,15.004 -0,29.362 0.645,43.042c-57.4,63.929 -93.904,90.025 -93.904,-14.971m220.438,-297.404c22.796,-91.284 80.841,-196.93 46.271,-43.038c-13.03,60.663 -37.8,126.533 -56.067,170.867c-5.854,13.712 -12.383,28.033 -20.213,42.396c5.85,-58.692 16.3,-118.713 30.009,-170.225m189.104,194.345c-6.533,-1.937 -13.675,1.292 -16.296,8.471c0,0.646 -24.771,72.404 -63.25,143.475c-22.183,41.104 -44.367,73.7 -66.517,97.175c-75.025,85.434 -82.845,-89.35 -78.291,-204.108c0.683,-2.621 0.683,-5.238 0.683,-8.508c19.563,-31.95 37.154,-64.542 48.892,-93.221c18.916,-45.013 44.366,-112.179 57.4,-174.779c13.712,-64.58 11.737,-107.617 -5.854,-131.742c-8.509,-10.446 -24.155,-22.829 -52.838,-20.208c-22.829,2.583 -44.333,22.791 -63.933,61.275c-16.296,31.3 -31.3,75.666 -43.684,128.47c-16.945,68.492 -27.391,146.1 -31.304,218.467c-11.091,-16.296 -22.829,-29.325 -35.862,-39.771c-24.767,-19.562 -51.509,-28.033 -76.313,-22.829c-22.15,4.592 -40.421,18.917 -53.45,41.746c-0.396,0.642 -0.754,1.254 -1.075,1.9c-0.287,0.433 -0.541,0.9 -0.758,1.329l-0,0.033c-9.438,16.98 -15.146,37.984 -17.333,62.034c-0.721,7.721 -1.08,15.758 -1.08,24.046c0,17.77 1.33,33.675 4.021,47.675c4.7,25.125 13.675,44.116 26.634,56.679c13.066,12.383 29.366,18.916 47.637,18.271c44.329,-3.267 74.338,-31.984 109.554,-62.638c3.913,44.367 11.738,80.875 23.475,107.617c7.829,17.625 17.588,31.304 28.684,41.1c11.737,10.408 26.095,15.65 41.745,15.65l1.292,-0c10.45,-0 21.538,-2.621 31.95,-7.175l0.683,-0c42.355,-16.984 85.434,-65.871 128.471,-146.1c39.775,-73.013 63.896,-144.771 65.188,-147.354c1.975,-7.18 -1.292,-14.359 -8.471,-16.98" style="fill-rule:nonzero;"/><path d="M1239.02,1869.39c26.996,-84.071 55.529,-24.017 32.271,28.537c-10.517,22.504 -24.771,41.246 -42.034,57.792c0,-36.042 3.013,-66.05 9.763,-86.329m342.954,51.041c21.033,-48.025 63.071,-106.575 77.321,-83.312c9.762,15.758 12.741,36.037 9.762,60.054c-3.016,27.746 -15.758,59.267 -35.287,90.063c-19.525,30.762 -49.534,57.041 -87.046,79.545c7.5,-59.3 19.492,-110.341 35.25,-146.35m214.658,307.709c-7.5,-2.263 -16.512,1.504 -18.771,9.758c0,0.292 -3.266,10.2 -9.262,26.421c-0,0.037 -0,0.037 -0.038,0.075c-11.412,31.012 -32.666,85 -59.729,138.629c-58.546,118.567 -103.562,198.867 -142.616,45.771c-13.5,-49.538 -21.755,-111.817 -25.488,-179.375c-3.012,-56.288 -2.262,-113.325 2.225,-165.125c54.817,-30.763 93.079,-63.788 116.342,-100.546c22.508,-36.037 35.283,-70.571 39.771,-103.596c3.77,-30.008 -0.755,-57.041 -13.496,-78.041c-15.759,-27.03 -42.038,-41.28 -72.796,-39.017c-24.017,1.504 -48.033,12.746 -70.575,33.025c-24.013,21.754 -45.013,52.512 -62.279,92.287c-16.513,36.796 -29.259,88.559 -36.759,148.613c-3.012,21 -5.275,42.033 -6.783,63.787c-43.508,17.267 -89.308,33.025 -133.571,48.03l-58.55,20.279c-5.991,-66.046 -12.741,-135.867 -15,-195.129c32.267,-24.013 54.775,-51.8 69.025,-84.067c9.013,-19.529 13.534,-39.025 12.025,-56.288c-0.75,-17.266 -5.991,-32.27 -15.758,-45.016c-17.263,-21.788 -46.521,-33.025 -76.567,-27.784c-8.004,1.4 -15.9,3.917 -23.437,7.542c-0.038,0 -0.038,0 -0.038,0.033c-8.687,4.13 -16.941,9.621 -24.554,16.442c-3.804,3.446 -7.358,7.108 -10.625,11.017l-0.033,0.037c-10.342,12.242 -18.2,26.85 -23.875,44.475c-11.988,35.288 -13.496,92.325 -10.479,158.379c-24.017,10.48 -48.784,20.242 -74.305,30.009c-28.466,10.625 -56,21 -81.058,32.666c-10.729,4.95 -20.996,10.155 -30.687,15.759c-7.646,4.379 -14.971,8.971 -21.863,13.854c-42.754,30.046 -63.787,66.8 -63.787,112.604c-0,8.258 6.75,15.008 15.004,15.008c8.258,0 15.004,-6.75 15.004,-15.008c-0,-78.825 82.562,-110.346 178.621,-147.1c21.787,-8.258 43.541,-16.512 65.296,-25.521c3.77,61.521 15.758,120.071 15.758,177.863l-21,11.271c-26.275,14.25 -46.521,28.504 -60.054,44.262c-16.513,18.771 -24.734,39.021 -24.734,60.808c0,8.259 6.75,15.005 15.005,15.005c8.258,-0 15.004,-6.746 15.004,-15.005c-0,-33.025 31.521,-60.054 79.55,-84.07c5.241,57.795 9.762,111.066 9.762,153.85c0.754,27.787 -1.508,49.541 -4.521,63.791c-4.491,17.263 -23.262,19.525 -21.758,32.271c-1.504,23.258 94.554,30.763 113.329,2.263c23.259,-35.288 20.279,-132.855 3.767,-293.455l65.296,-22.508c40.529,-14.25 82.562,-27.783 122.337,-43.542c-0.754,28.538 -1.508,57.796 -0.754,87.805c2.225,63.783 8.254,125.35 18.738,177.145c12.025,57.759 27.783,102.055 47.312,131.309c19.488,29.291 41.246,43.541 66.767,43.541l1.504,0c39.021,0 71.292,-32.27 93.833,-58.541c24.017,-29.259 48.784,-69.034 73.554,-118.567c10.371,-20.75 19.888,-41.571 28.321,-61.133c25.738,-59.696 41.642,-107.904 42.213,-108.479c2.262,-7.5 -1.504,-15.759 -9.763,-18.771" style="fill-rule:nonzero;"/><path d="M1994.79,2231.91c-8.254,-1.504 -15.758,4.488 -17.266,12.746c-0,0.142 -0.538,3.479 -1.579,9.333c-4.342,24.263 -17.484,92.25 -37.438,158.767c-42.792,141.112 -69.821,135.871 -69.821,-36.758c0.754,-66.8 6.034,-108.838 6.034,-109.592c1.47,-53.271 -99.075,-54.775 -103.6,-29.254c-0.25,1.221 -1.292,11.308 -2.513,27.171c0,0.037 0,0.037 -0.033,0.075c-1.688,21.966 -3.7,55.029 -4.384,90.995c-0.287,17.017 -0.287,34.675 0.184,52.125c1.508,48.025 6.746,87.8 15.754,117.092c24.771,86.296 98.325,87.05 138.85,14.25c17.267,-27.783 33.021,-67.558 48.783,-117.846c3.229,-10.7 6.284,-21.433 9.154,-32.058c19.6,-72.758 29.863,-139.171 29.863,-139.813c1.508,-8.262 -3.733,-15.758 -11.988,-17.233m-166.633,-164.371c-20.246,0 -36.754,15.759 -36.754,36.759c-0,20.283 16.508,36.037 36.754,36.037c21.792,0 38.304,-15.754 38.304,-36.037c0,-21 -16.512,-36.759 -38.304,-36.759" style="fill-rule:nonzero;"/><path d="M2189.92,2293.44c-37.55,-9.766 -66.05,-140.358 -28.537,-147.858c3.766,-0.754 14.287,0 22.541,21c7.504,15.796 11.238,39.059 11.238,67.559c-0,18.77 -2.263,39.016 -5.242,59.299m162.863,-57.037c-3.017,-7.504 -12.025,-11.275 -19.53,-7.504c-5.995,2.262 -7.5,5.991 -9.008,9.766c-4.525,9.721 -9.121,18.338 -14.108,25.805c-18.2,27.066 -42.109,39.091 -90.963,34.962c3.771,-21.75 6.029,-44.258 6.029,-65.292c0,-32.275 -4.52,-60.02 -13.529,-79.545c-14.254,-33.784 -37.512,-39.021 -50.291,-39.021c-37.513,-0 -62.28,26.275 -64.542,67.554c-2.225,29.258 8.254,63.792 26.275,90.783c16.512,24.017 37.512,41.284 61.562,49.538c-36.037,126.104 -95.341,222.916 -105.104,25.521c-2.979,-55.53 0.754,-105.067 0.754,-105.067c3.771,-57.796 -96.058,-58.546 -102.054,-19.525c0,0.929 -1.15,12.454 -2.333,29.612c-1.688,24.659 -3.517,61.025 -2.188,94.225c0.68,14.43 1.759,28.038 3.159,40.746c6.208,56.109 19.312,95.446 38.875,116.879c12.025,12.742 27.029,19.488 43.541,19.488c26.275,0 51.046,-10.479 73.555,-31.513c19.487,-17.27 36,-42.037 51.041,-72.8c12.746,-27.745 23.263,-59.262 30.013,-91.57c42.462,1.791 72.437,-5.204 96.054,-23.692c16.046,-12.529 29.15,-30.371 41.283,-54.35l0,-0.754c3.017,-4.488 3.734,-9.763 1.509,-14.246" style="fill-rule:nonzero;"/><path d="M2455.59,2154.59c8.254,-3.017 8.254,-3.017 8.254,9.008c-0,5.996 -4.484,22.504 -45.013,43.542c7.504,-27.029 20.246,-45.804 36.759,-52.55m150.87,77.321c-7.5,-3.771 -16.508,-0.754 -20.279,6.75c-29.254,54.775 -60.054,111.816 -90.816,153.096c-77.284,98.32 -78.792,-75.063 -83.317,-148.613c54.817,-24.017 81.808,-50.287 81.808,-79.546c0,-22.504 -11.987,-41.279 -32.271,-51.046c-13.495,-6.745 -29.258,-8.254 -46.525,-5.991c-17.262,3.012 -34.529,10.516 -49.533,22.504c-15.758,12.029 -27.746,30.046 -37.512,52.55c-10.267,26.533 -16.009,54.604 -17.875,82.85c-0.934,13.75 -0.971,27.571 -0.146,41.283c1.833,32.163 8.221,63.717 18.021,92.758c18.775,54.021 48.029,83.313 82.562,83.313c47.275,0 81.808,-39.017 108.8,-72.042c32.271,-42.787 63.788,-101.337 93.079,-157.621c3.734,-7.504 1.509,-16.516 -5.996,-20.245" style="fill-rule:nonzero;"/><path d="M2875.37,1671.23c-0.183,11.116 -1.116,21.904 -2.883,32.471c-0.583,4.237 -1.371,8.491 -2.267,12.658c-14.9,68.221 -60.441,119.629 -118.887,125.621c-58.142,5.958 -112.817,-34.667 -141.196,-97.942c-2.075,-4.371 -3.971,-8.962 -5.567,-13.587c-3.608,-9.405 -6.545,-19.184 -8.912,-29.325c-10.683,10.97 -21.938,21.391 -33.629,30.529c4.346,13.608 9.662,26.708 16.012,38.987c37,72.888 105.071,119.063 177.425,111.646c72.754,-7.458 130.109,-66.796 151.5,-146.175c3.529,-13.292 6.075,-27.2 7.463,-41.496c-13.313,-6.679 -26.459,-14.7 -39.059,-23.387m-24.858,-179.929c-0.121,-0.192 -0.342,-0.371 -0.467,-0.559c-37.787,-40.833 -88.087,-63.679 -140.691,-58.287c-52.6,5.391 -97.313,38.079 -126.009,85.925c-0.091,0.116 -0.183,0.225 -0.17,0.329c-8.696,14.533 -15.934,30.346 -21.425,47.304c12.258,-3.6 24.354,-6.775 35.787,-9.471l12.442,-2.804c8.804,-18.417 20.196,-34.454 33.629,-47.437c19.567,-18.705 43.375,-30.817 69.879,-33.538c26.5,-2.717 52.163,4.225 75.117,18.571c15.779,9.887 30.287,23.271 42.646,39.521c4.17,-0.021 8.554,0.033 12.954,0.196c11.637,0.333 23.916,0.908 36.637,1.845c-8.796,-15.287 -18.979,-29.216 -30.329,-41.595" style="fill-rule:nonzero;"/><path d="M2661.79,1614.1c-0.613,0.979 -1.117,2.046 -1.717,3.129c-12.646,22.679 -36.212,55.034 -64.412,83.892c2.366,10.142 5.3,19.921 8.912,29.325c2.517,-1.275 5.721,-2.825 9.504,-4.638c1.267,-0.537 2.53,-1.179 3.988,-1.837c1.358,-0.646 2.817,-1.304 4.379,-1.971c4.288,-1.871 9.175,-3.896 14.458,-5.967c0.292,-0.129 0.584,-0.262 0.875,-0.395l0.105,-0.009c25.7,-28.396 46.008,-57.771 57.595,-78.812c2.33,-4.109 4.346,-8.288 6.28,-12.25c-13.992,-1.421 -27.488,-4.925 -39.967,-10.467m-1.717,3.129c-12.646,22.679 -36.212,55.034 -64.412,83.892c-10.688,10.971 -21.938,21.392 -33.629,30.529c-26.638,21.263 -54.855,36.071 -80.425,35.942c-25.996,-0.284 -47.334,-16.738 -65.13,-50.246c-12.716,-23.746 -14.05,-44.683 -4.3,-63.813c20.946,-41.045 88.255,-69.837 149.575,-87.525c12.259,-3.6 24.355,-6.774 35.788,-9.47l12.437,-2.804c17.738,-3.859 33.138,-6.559 44.688,-8.146c8.767,-0.9 14.879,1.12 18.017,5.891c6.262,9.438 5.137,32.263 -10.892,62.621c-0.613,0.979 -1.117,2.046 -1.717,3.129m46.471,-88.058c-5.792,-8.775 -13.9,-15.375 -23.487,-19.488c-9.671,-3.999 -20.834,-5.6 -32.925,-4.362l-0.609,0.063c-0.404,0.041 -2.508,0.358 -5.912,0.912c-10.129,1.546 -32.442,5.362 -60.267,12.079l-0.3,0.034c-15.008,3.579 -31.558,8.02 -48.725,13.445c-83.362,26.163 -136.512,60.938 -158.15,103.171c-16.129,31.392 -14.562,65.546 4.483,101.371c31.384,58.796 71.984,71.433 100.621,71.658c3.971,0 7.934,-0.104 11.963,-0.516c28.908,-3.067 57.904,-17.238 84.808,-36.9c11.088,-8.059 21.867,-17.104 32.096,-26.604c9.754,-9.15 18.883,-18.434 27.546,-28.284l0.091,-0.112l0.105,-0.009c25.7,-28.395 46.008,-57.77 57.595,-78.812c2.33,-4.108 4.346,-8.288 6.28,-12.25c18.091,-38.108 19.97,-72.413 4.787,-95.396" style="fill-rule:nonzero;"/><path d="M3055.75,1651.82c-10.625,36.425 -28.179,56.858 -53.579,62.412c-25.505,5.467 -56.784,-3.646 -87.746,-19.617c-13.313,-6.679 -26.459,-14.7 -39.059,-23.387c-32.733,-22.304 -61.808,-48.654 -78.458,-68.025c-0.925,-1.125 -1.958,-2.242 -2.787,-3.379c-21.413,-26.113 -27.121,-48.029 -22.896,-58.442c2.104,-5.308 7.679,-8.529 16.45,-9.429c11.225,-0.738 26.241,-1.258 43.571,-1.1c4.17,-0.021 8.554,0.037 12.954,0.2c11.637,0.333 23.916,0.904 36.637,1.842c64.129,4.729 137,19.254 166.179,55.57c13.425,16.746 16.371,37.525 8.734,63.355m22.771,-88.788c-29.655,-36.975 -88.859,-60.233 -175.796,-68.937c-18.521,-1.871 -36.342,-2.896 -52.167,-3.305c-0.212,-0.083 -0.312,-0.07 -0.517,-0.05c-29.616,-0.833 -52.533,0.088 -61.441,0.592c-2.338,0.038 -3.75,0.179 -4.05,0.213l-0.604,0.062c-24.188,2.483 -42.538,15.158 -50.405,34.796c-10.104,25.579 -1.425,58.6 23.805,92.162c2.712,3.592 5.745,7.35 8.866,11.005c15.834,18.337 41.909,43.258 73.159,66.02c9.808,7.242 20.195,14.221 30.845,20.767c11.855,7.338 24.246,14.013 36.75,19.754c30.688,14.267 62.5,22.613 91.921,19.6c4.029,-0.412 7.929,-1.121 11.817,-1.925c28,-6.029 65.292,-26.65 83.992,-90.583c11.387,-38.942 5.987,-72.708 -16.175,-100.171" style="fill-rule:nonzero;"/><path d="M2872.86,1730.46c-137.846,-46.101 -261.313,25.008 -262.542,25.733l-25.796,-43.584c5.788,-3.45 144.071,-83.808 304.396,-30.187l-16.058,48.037Z" style="fill-rule:nonzero;"/><path d="M2868.43,1814.94c-124.534,-44.479 -235.605,22.196 -236.713,22.879l-26.629,-43.083c5.35,-3.308 132.354,-80.358 280.371,-27.492l-17.029,47.696Z" style="fill-rule:nonzero;"/><path d="M2762.35,1948.42l29.13,-92.917l-76.505,7.846l47.375,85.071Z" style="fill-rule:nonzero;"/><path d="M2681.99,1466.87l-30.366,1.204l15.183,-0.6l-15.179,0.629c-0.029,-0.683 -3.475,-68.808 -46.925,-101.383l18.229,-24.312c55.142,41.333 58.921,121.083 59.058,124.462" style="fill-rule:nonzero;"/><path d="M2631.1,1357.33c-1.321,-12.883 -12.834,-22.254 -25.713,-20.933c-12.883,1.321 -22.254,12.833 -20.933,25.712c1.321,12.88 12.833,22.255 25.712,20.934c12.879,-1.321 22.254,-12.834 20.934,-25.713" style="fill-rule:nonzero;"/><path d="M2743.03,1460.61l29.975,-4.979l-14.988,2.487l14.992,-2.458c-0.109,-0.679 -10.559,-68.079 25.383,-108.8l-22.783,-20.104c-45.609,51.658 -33.129,130.52 -32.579,133.854" style="fill-rule:nonzero;"/><path d="M2770.64,1343.03c-1.321,-12.883 8.05,-24.395 20.933,-25.716c12.879,-1.321 24.392,8.054 25.713,20.933c1.321,12.879 -8.05,24.392 -20.934,25.713c-12.879,1.32 -24.391,-8.05 -25.712,-20.93" style="fill-rule:nonzero;"/><path d="M2601.22,2273.62c36.071,-64.005 53.379,-130.355 57.021,-191.971c0.887,-15.021 0.671,-30.113 -0.859,-45.084c-1.487,-14.579 -3.52,-29.525 -8.279,-43.445c-4.679,-13.7 -11.908,-27.509 -23.429,-36.684c-11.254,-8.962 -25.596,-15.133 -40.271,-13.846c-16.971,1.492 -30,10.95 -39.129,25.046c-7.004,10.821 -11.9,23.654 -14.533,36.254c-5.179,24.817 -3.221,53.046 11.733,74.359c16.471,23.483 44,35.446 72.425,34.379c28.963,-1.083 54.879,-14.654 76.1,-33.763c20.683,-18.629 37.438,-42.466 50.492,-66.933c13.491,-25.296 23.521,-52.658 29.041,-80.8c1.509,-7.687 2.617,-15.433 3.605,-23.208c1.062,-8.413 -8.192,-16.509 -16.155,-16.154c-9.662,0.437 -15.012,7.137 -16.154,16.154c-0.637,5.021 0.542,-3.213 -0.246,1.783c-0.237,1.513 -0.458,3.029 -0.704,4.542c-0.496,3.025 -1.046,6.037 -1.646,9.046c-1.295,6.508 -2.829,12.975 -4.595,19.375c-1.63,5.908 -3.455,11.766 -5.475,17.55c-1.009,2.895 -2.067,5.775 -3.171,8.629c-0.55,1.433 -1.117,2.858 -1.692,4.279c-0.383,0.942 -0.771,1.892 -1.167,2.833c0.63,-1.508 0.571,-1.387 -0.179,0.363c-5.275,11.658 -11.037,23.016 -17.746,33.921c-3.212,5.22 -6.595,10.333 -10.154,15.325c-1.762,2.475 -3.562,4.92 -5.412,7.333c2.104,-2.742 -0.863,1.054 -1.067,1.308c-1.221,1.513 -2.458,3.017 -3.721,4.496c-3.779,4.45 -7.741,8.75 -11.921,12.829c-2.083,2.034 -4.22,4.017 -6.408,5.934c-1.092,0.958 -2.2,1.895 -3.321,2.82c-0.741,0.613 -1.496,1.221 -2.254,1.817c1.367,-1.046 1.304,-1.008 -0.179,0.112c-4.296,3.092 -8.683,6.017 -13.325,8.571c-2.525,1.396 -5.117,2.646 -7.729,3.867c-4.246,1.987 2.962,-0.95 -1.475,0.592c-1.725,0.595 -3.417,1.245 -5.159,1.791c-2.562,0.8 -5.162,1.479 -7.787,2.038c-1.321,0.279 -2.65,0.491 -3.971,0.741c-4.379,0.838 3.4,-0.175 -1.05,0.134c-5.875,0.396 -11.558,0.446 -17.429,-0.05c4.075,0.346 -0.279,-0.054 -0.983,-0.179c-1.309,-0.234 -2.609,-0.5 -3.9,-0.809c-2.575,-0.6 -5.117,-1.337 -7.605,-2.221c-0.6,-0.212 -4.579,-1.954 -1.025,-0.32c-1.191,-0.55 -2.379,-1.104 -3.541,-1.713c-2.729,-1.421 -5.292,-3.066 -7.804,-4.833c3.087,2.171 -0.392,-0.371 -0.855,-0.779c-0.983,-0.863 -1.937,-1.763 -2.862,-2.692c-0.892,-0.896 -1.75,-1.821 -2.583,-2.771c-0.475,-0.55 -2.863,-3.883 -0.592,-0.633c-1.425,-2.038 -2.8,-4.079 -4.017,-6.254c-0.604,-1.075 -1.175,-2.171 -1.712,-3.288c-0.363,-0.737 -0.704,-1.487 -1.038,-2.241c0.821,1.962 0.896,2.1 0.234,0.416c-1.409,-4.3 -4.005,-9.883 -3.759,-14.496c-0.212,4.03 0.046,0.284 -0.05,-0.725c-0.121,-1.266 -0.208,-2.541 -0.275,-3.808c-0.146,-2.992 -0.141,-5.987 0.004,-8.979c0.067,-1.288 0.155,-2.575 0.267,-3.863c0.013,-0.12 0.421,-4.354 0.146,-1.712c-0.275,2.637 0.254,-1.567 0.275,-1.7c0.217,-1.279 0.458,-2.554 0.725,-3.829c1.158,-5.534 2.896,-10.817 4.775,-16.138c1.433,-4.054 -1.471,2.992 0.35,-0.887c0.546,-1.159 1.071,-2.321 1.633,-3.471c1.259,-2.542 2.617,-5.042 4.134,-7.438c0.754,-1.196 1.541,-2.383 2.391,-3.516c-2.129,2.829 0.771,-0.721 1.079,-1.046c0.959,-1.008 1.975,-1.971 3.042,-2.867c-2.671,2.242 1.796,-0.904 2.433,-1.296c3.23,-1.97 -2.841,0.471 0.825,-0.279c0.984,-0.2 2.646,-1.079 3.655,-0.879c-0.605,0.083 -1.205,0.158 -1.809,0.242c0.834,-0.084 1.671,-0.129 2.509,-0.15c1.275,-0.021 2.525,0.091 3.791,0.133c-4.046,-0.133 -0.204,-0.004 0.754,0.208c1.263,0.284 2.513,0.625 3.738,1.021c0.683,0.221 4.467,1.959 0.987,0.267c1.575,0.767 3.121,1.546 4.617,2.458c1.117,0.679 2.2,1.417 3.258,2.179c-3.087,-2.229 0.271,0.354 0.742,0.796c0.975,0.917 1.908,1.875 2.804,2.871c0.288,0.317 3.109,4.004 1.063,1.167c1.662,2.308 3.179,4.712 4.529,7.22c0.679,1.259 1.275,2.55 1.921,3.825c0.762,1.709 0.791,1.738 0.083,0.084c0.358,0.891 0.704,1.787 1.033,2.687c1.996,5.438 3.484,11.05 4.684,16.717c0.625,2.962 1.171,5.942 1.662,8.933c0.271,1.634 0.517,3.267 0.763,4.909c0.279,1.975 0.308,2.179 0.083,0.612c0.138,1.092 0.267,2.183 0.392,3.279c1.458,13.05 1.912,26.213 1.491,39.338c-0.245,7.662 -0.783,15.312 -1.583,22.933c-0.175,1.638 -0.358,3.275 -0.554,4.908c-0.129,1.092 -0.267,2.18 -0.408,3.271c0.216,-1.571 0.187,-1.366 -0.092,0.609c-0.567,3.812 -1.154,7.62 -1.821,11.42c-2.675,15.3 -6.271,30.434 -10.508,45.375c-8.538,30.075 -19.675,59.33 -31.721,88.155c-3.267,7.82 3.517,18.1 11.283,19.87c9.442,2.15 10.317,3.625 10.317,3.625" style="fill-rule:nonzero;"/><path d="M975.759,2102.82c-3.625,6.929 -14.288,10.016 -20.854,5.458c-5.35,-3.658 -10.7,-7.358 -16.013,-11.092c-1.004,-0.683 -1.971,-1.4 -2.979,-2.083c-51.221,-36.113 -100.867,-74.488 -148.717,-114.975c-46.237,-39.129 -91.033,-80.158 -133.429,-123.446c-41.533,-42.396 -80.55,-87.592 -113.429,-137.092c-32.813,-49.429 -55.463,-103.666 -70.721,-161.137c-15.471,-58.296 -18.412,-126.75 -6.783,-186.233c0.075,-0.538 0.179,-1.038 0.287,-1.58c0,0 6.642,-4.987 14.217,-3.266c5.992,1.404 9.654,6.358 10.696,11.921c-1.684,9.55 -2.979,20.029 -3.804,27.712c0.108,-0.142 0.212,-0.325 0.32,-0.467c-0.5,3.192 -0.895,6.388 -1.22,9.617c-0.105,1.258 -0.18,1.942 -0.18,1.942c-0.933,9.908 -1.183,19.921 -1.254,29.791c-0.071,14.363 0.684,28.755 2.225,43.009c0.217,1.862 0.429,3.729 0.646,5.596c0.108,0.754 0.179,1.508 0.288,2.295c-0,0.075 0.037,0.146 0.037,0.217c0,0.075 0.038,0.183 0.038,0.288c0.033,0.358 0.104,0.716 0.141,1.075c0.467,3.125 0.934,6.283 1.471,9.445c1.15,7.034 2.475,13.996 4.021,20.963c3.125,14.358 6.962,28.537 11.45,42.537c2.192,6.821 4.525,13.567 7,20.28c1.329,3.554 2.692,7.07 4.092,10.591c0.612,1.579 1.254,3.121 1.866,4.7c0.254,0.542 1.15,2.729 1.329,3.163c0,0.033 0.038,0.033 0.038,0.033c5.562,13.175 11.771,26.096 18.412,38.767c13.317,25.271 28.538,49.5 45.121,72.762c4.238,5.888 8.509,11.742 12.888,17.517c1.116,1.437 2.191,2.875 3.304,4.312l-0,0.03c-0,-0 0.033,0.037 0.071,0.037c-0,0.038 -0,0.038 0.037,0.075c0,0.033 0.034,0.033 0.034,0.033c0.075,0.071 0.108,0.18 0.183,0.255l0.033,0.033c0.038,0.037 0.071,0.108 0.109,0.146c-0,0.037 0.07,0.071 0.07,0.071c0.109,0.141 0.18,0.25 0.25,0.325c0.396,0.462 0.755,0.966 1.113,1.433c2.158,2.767 4.346,5.529 6.571,8.296c8.975,11.158 18.2,22.108 27.675,32.841c19.1,21.684 39.129,42.538 59.662,62.855c42.788,42.358 87.588,82.704 133.929,121.079c11.88,9.8 23.834,19.491 35.93,29.041c5.566,4.413 11.129,8.792 16.766,13.171c0.034,0 0.071,0.038 0.142,0.071c0.037,0.038 0.037,0.038 0.071,0.075c0.071,0.071 0.108,0.104 0.179,0.142l0.037,0.037c0.038,0.038 0.071,0.038 0.109,0.071c0.537,0.429 1.325,1.042 1.433,1.113c0.721,0.537 1.404,1.079 2.121,1.616c1.362,1.079 2.762,2.117 4.162,3.196l8.938,6.779c24.196,18.275 48.75,35.971 73.696,53.167c0.254,0.179 0.466,0.321 0.716,0.5c7.038,4.846 9.588,13.104 5.459,20.892" style="fill-rule:nonzero;"/><path d="M958.575,2105.91c12.438,10.463 24.875,20.921 37.317,31.388c11.313,9.516 21.292,20.316 30.35,31.991l-2.387,-3.087c5.72,7.412 10.62,15.287 14.275,23.925c-0.513,-1.213 -1.025,-2.429 -1.538,-3.646c3.179,7.667 5.354,15.675 6.471,23.896c-0.183,-1.35 -0.363,-2.704 -0.546,-4.054c1.113,8.57 1.063,17.22 -0.05,25.795c0.183,-1.354 0.363,-2.704 0.546,-4.062c-1.317,9.721 -3.971,19.187 -7.75,28.237c0.512,-1.216 1.025,-2.433 1.537,-3.645c-4.166,9.837 -9.608,19.066 -16.116,27.537l2.387,-3.087c-6.554,8.45 -14.116,16.062 -22.558,22.637c1.029,-0.796 2.058,-1.592 3.092,-2.387c-7.925,6.108 -16.542,11.25 -25.746,15.175c1.216,-0.513 2.433,-1.025 3.646,-1.538c-8.43,3.542 -17.25,6.025 -26.317,7.25c1.35,-0.183 2.704,-0.367 4.058,-0.546c-7.45,0.963 -15.025,1.138 -22.483,0.188c1.354,0.183 2.708,0.366 4.058,0.546c-6.4,-0.875 -12.612,-2.596 -18.571,-5.084c1.213,0.513 2.43,1.025 3.646,1.538c-6.021,-2.579 -11.654,-5.892 -16.858,-9.867c1.029,0.8 2.058,1.592 3.092,2.388c-5.292,-4.117 -10.021,-8.846 -14.146,-14.125c0.791,1.029 1.587,2.062 2.383,3.091c-4.467,-5.821 -8.05,-12.175 -10.937,-18.916c0.516,1.216 1.029,2.433 1.541,3.645c-3.533,-8.445 -5.791,-17.283 -7.021,-26.35c0.18,1.35 0.363,2.7 0.546,4.055c-2.008,-15.48 -1.25,-31.146 -0.471,-46.688c0.4,-7.987 -7.308,-15.621 -15.266,-15.267c-8.613,0.388 -14.838,6.713 -15.267,15.267c-1.021,20.408 -1.746,41.042 2.879,61.113c4.496,19.525 14.579,38.404 29.542,51.904c15.158,13.679 33.912,21.991 54.271,23.65c15.279,1.246 31.35,-1.404 45.65,-6.834c29.937,-11.354 55.271,-33.291 71.071,-61.162c15.858,-27.983 21.825,-61.996 12.45,-93.163c-2.471,-8.204 -5.934,-16.258 -10.2,-23.691c-5.084,-8.85 -11.58,-16.904 -18.146,-24.679c-14.059,-16.646 -31.196,-29.988 -47.8,-43.959c-4.35,-3.654 -8.696,-7.312 -13.046,-10.971c-3.163,-2.658 -6.525,-4.47 -10.796,-4.47c-3.742,-0 -8.212,1.666 -10.792,4.47c-5.2,5.667 -6.525,16.105 0,21.592" style="fill-rule:nonzero;"/><path d="M484.228,1407.01c0.109,-0.142 0.217,-0.325 0.325,-0.467c-0.504,3.192 -0.9,6.388 -1.221,9.617c0.142,-1.938 0.467,-5.167 0.896,-9.15" style="fill:#ffc800;fill-rule:nonzero;"/><path d="M493.132,1359.59c-2.296,6.321 -3.984,12.925 -5.063,19.883c0,-0.067 -0.033,-0.104 -0.033,-0.179c1.4,-8 3.121,-15.288 5.096,-19.704" style="fill:#ffc800;fill-rule:nonzero;"/></g></svg>