<?xml version="1.0" encoding="UTF-8" standalone="no"?><!DOCTYPE svg PUBLIC "-//W3C//DTD SVG 1.1//EN" "http://www.w3.org/Graphics/SVG/1.1/DTD/svg11.dtd"><svg width="100%" height="100%" viewBox="0 0 3334 3334" version="1.1" xmlns="http://www.w3.org/2000/svg" xmlns:xlink="http://www.w3.org/1999/xlink" xml:space="preserve" xmlns:serif="http://www.serif.com/" style="fill-rule:evenodd;clip-rule:evenodd;stroke-linejoin:round;stroke-miterlimit:2;"><rect id="mono-logo-black" x="0" y="0" width="3333.33" height="3333.33" style="fill:none;"/><g id="Layer-1" serif:id="Layer 1"><g id="bee"><path d="M2186.18,2296.56c-37.55,-9.767 -66.05,-140.359 -28.537,-147.859c3.771,-0.754 14.287,0 22.546,21c7.5,15.796 11.233,39.059 11.233,67.559c0,18.77 -2.262,39.016 -5.242,59.3Z"/><path d="M2451.85,2157.72c8.255,-3.017 8.255,-3.017 8.255,9.008c-0,5.996 -4.488,22.504 -45.013,43.542c7.504,-27.029 20.246,-45.804 36.758,-52.55Z"/><path d="M1578.24,1923.56c21.029,-48.025 63.066,-106.575 77.317,-83.312c9.762,15.758 12.745,36.037 9.762,60.054c-3.017,27.746 -15.754,59.267 -35.288,90.063c-19.524,30.762 -49.533,57.041 -87.045,79.545c7.5,-59.3 19.491,-110.341 35.254,-146.35Z"/><path d="M1941.69,1509.71c0,-26.746 3.913,-49.571 11.738,-67.846c31.945,-66.517 60.666,8.471 81.525,39.775c-0,15.004 -0,29.362 0.641,43.042c-57.396,63.929 -93.904,90.025 -93.904,-14.971Z"/><path d="M1641.7,1535.13c-28.683,50.862 -34.571,15.004 -34.571,-34.571c0,-76.279 32.592,-129.117 77.609,-54.775c-0,0.646 0.646,1.292 1.296,1.971c-12.388,33.241 -27.392,63.25 -44.334,87.375Z"/><path d="M2162.12,1212.31c22.795,-91.284 80.841,-196.93 46.275,-43.038c-13.03,60.663 -37.8,126.533 -56.071,170.867c-5.854,13.712 -12.384,28.033 -20.213,42.396c5.85,-58.692 16.3,-118.713 30.009,-170.225Z"/><path d="M830.408,1094.93c20.892,-63.246 58.046,-44.329 32.629,13.029c-9.8,21.537 -25.45,39.129 -45.658,54.137c3.262,-27.395 7.179,-50.22 13.029,-67.166Z"/><path d="M1939.68,849.757c4.667,-3.159 4.667,-3.159 6.571,4.308c0.971,3.767 0.754,14.788 -21.179,34.283c0.396,-18.02 5.383,-31.77 14.608,-38.591Z"/><path d="M1553.97,695.365l-0,0c-28.429,1.975 -57.792,3.163 -86.692,4.38c-4.808,-0 -9.15,-0 -14,0.466c-0.966,20.784 -2.404,44.442 -4.341,69.567c-4.342,69.571 -9.655,148.287 -9.188,217.358c0.5,62.817 3.408,166.667 32.846,117.375c14.5,-24.625 29.971,-58.9 45.404,-102.412c23.253,-65.053 32.805,-102.383 34.856,-111.41l-0.001,-0.01c-1.934,-24.409 -3.334,-49.575 -3.909,-74.054c-1.475,-46.846 0.467,-86.942 4.809,-119.788l0.216,-1.472Z"/><path d="M1656.31,681.87l-0,0.034c-0,15.041 -1.871,33.166 -6.425,53.096c-6.283,28.966 -19.817,54.091 -33.35,73.908c-0.933,-38.158 -0,-71.971 3.408,-100.008c0.863,-7.571 1.829,-14.467 2.838,-20.675l17.142,-2.892c5.465,-1.143 16.387,2.119 16.387,-3.463l-0,-0Z"/><path d="M1628.74,661.444c4.542,-15.128 9.568,-22.092 14.068,-22.58c4.501,-0.489 8.476,5.496 10.915,16.265l-24.983,6.315Z"/><path d="M1939.68,849.757c4.667,-3.159 4.667,-3.159 6.571,4.308c0.971,3.767 0.754,14.788 -21.179,34.283c0.396,-18.02 5.383,-31.77 14.608,-38.591Z"/><path d="M1552.86,890.689l1.329,15.097c0,-0 -1.329,-15.097 -1.329,-15.097Z"/><path d="M991.512,1829.91c-28.721,4.562 -63.933,-28.038 -72.404,-51.508c-14.358,-39.813 1.975,-85.438 42.392,-119.359c58.05,-48.246 121.295,-71.075 182.608,-92.612c11.087,24.125 16.296,48.929 16.296,72.404c-0,76.958 -50.221,170.862 -168.892,191.075Z"/><path d="M1941.69,1509.71c0,-26.746 3.913,-49.571 11.738,-67.846c31.945,-66.517 60.666,8.471 81.525,39.775c-0,15.004 -0,29.362 0.641,43.042c-57.396,63.929 -93.904,90.025 -93.904,-14.971Z"/><path d="M1641.7,1535.13c-28.683,50.862 -34.571,15.004 -34.571,-34.571c0,-76.279 32.592,-129.117 77.609,-54.775c-0,0.646 0.646,1.292 1.296,1.971c-12.388,33.241 -27.392,63.25 -44.334,87.375Z"/><path d="M2162.12,1212.31c22.795,-91.284 80.841,-196.93 46.275,-43.038c-13.03,60.663 -37.8,126.533 -56.071,170.867c-5.854,13.712 -12.384,28.033 -20.213,42.396c5.85,-58.692 16.3,-118.713 30.009,-170.225Z"/><path d="M830.408,1094.93c20.892,-63.246 58.046,-44.329 32.629,13.029c-9.8,21.537 -25.45,39.129 -45.658,54.137c3.262,-27.395 7.179,-50.22 13.029,-67.166Z"/><path d="M1578.24,1923.56c21.029,-48.025 63.066,-106.575 77.316,-83.312c9.763,15.758 12.746,36.037 9.763,60.054c-3.017,27.746 -15.754,59.267 -35.288,90.063c-19.525,30.762 -49.533,57.041 -87.045,79.545c7.5,-59.3 19.491,-110.341 35.254,-146.35Z"/><path d="M1235.28,1872.52c26.996,-84.071 55.534,-24.017 32.271,28.537c-10.516,22.504 -24.766,41.246 -42.033,57.792c-0,-36.042 3.012,-66.05 9.762,-86.329Z"/><path d="M2913.07,1743.59l0,651.264l-1251.72,722.679l-1251.72,-722.679l-0,-1445.37l1251.72,-722.679l1251.72,722.679l0,549.303c-4.614,-0.567 -9.303,-1.089 -14.076,-1.566c-18.521,-1.871 -36.342,-2.896 -52.167,-3.305c-0.212,-0.083 -0.312,-0.07 -0.516,-0.05l-0.001,0c-22.437,-24.246 -49.289,-42.15 -78.407,-51.564c-0.661,-18.658 0.938,-49.867 15.422,-76.126c2.919,0.9 6.062,1.241 9.291,0.91c12.884,-1.321 22.254,-12.834 20.934,-25.713c-1.321,-12.879 -12.834,-22.254 -25.717,-20.933c-7.921,0.812 -14.515,5.479 -18.111,11.95c-27.353,32.823 -32.45,75.621 -32.392,103.317c-10.419,-1.152 -21.017,-1.223 -31.711,-0.127c-10.725,1.099 -21.122,3.333 -31.12,6.599c-5.557,-27.136 -19.231,-68.027 -52.68,-94.621c-4.833,-5.61 -12.242,-8.845 -20.167,-8.032c-12.883,1.321 -22.254,12.833 -20.933,25.713c1.321,12.879 12.833,22.254 25.717,20.933c3.229,-0.331 6.237,-1.303 8.91,-2.776c19.537,22.805 27.429,53.094 30.557,71.49c-26.604,15.181 -49.269,38.232 -66.296,66.619l-0.3,0.034c-15.012,3.579 -31.562,8.02 -48.725,13.445c-83.362,26.163 -136.512,60.938 -158.15,103.171c-16.133,31.392 -14.566,65.546 4.484,101.371c31.383,58.796 71.987,71.433 100.621,71.658c3.97,0 7.929,-0.104 11.962,-0.516c28.908,-3.067 57.9,-17.238 84.804,-36.9l0.004,-0.001c31.846,62.735 86.706,105.68 147.506,111.698l16.647,29.896l-0.315,2.012c-0.496,3.025 -1.042,6.037 -1.646,9.046c-1.292,6.508 -2.825,12.975 -4.592,19.375c-1.633,5.908 -3.458,11.766 -5.479,17.55c-1.008,2.895 -2.067,5.775 -3.167,8.629c-0.554,1.433 -1.116,2.858 -1.696,4.279l-0.741,1.799c0,0 0.006,-0.013 0.006,-0.013l-0.61,1.41c-5.275,11.658 -11.034,23.016 -17.746,33.921c-3.209,5.22 -6.596,10.333 -10.15,15.325l-1.778,2.465l-1.804,2.445l-1.22,1.618l0.136,-0.183c0.045,-0.077 -1.664,2.106 -1.818,2.296c-1.22,1.513 -2.458,3.017 -3.72,4.496c-3.78,4.45 -7.742,8.75 -11.921,12.829c-2.084,2.034 -4.221,4.017 -6.409,5.934c-1.091,0.958 -2.195,1.895 -3.316,2.82c-0.549,0.451 -1.1,0.9 -1.657,1.343l-0.781,0.587c-0.995,0.717 -1.996,1.425 -3.005,2.122c0.006,-9.275 -0.437,-18.549 -1.382,-27.777c-1.488,-14.579 -3.517,-29.525 -8.279,-43.445c-4.68,-13.7 -11.909,-27.509 -23.43,-36.684c-10.198,-8.122 -22.932,-13.951 -36.154,-14.015c-1.366,-0.007 -2.74,0.049 -4.116,0.169c-16.971,1.492 -30,10.95 -39.13,25.046c-7.004,10.821 -11.9,23.654 -14.533,36.254c-5.179,24.817 -3.217,53.046 11.733,74.359c15.831,22.565 41.865,34.492 69.099,34.444c1.105,-0.002 2.215,-0.023 3.326,-0.065c2.251,-0.084 4.483,-0.244 6.697,-0.476c-0.239,1.482 -0.487,2.963 -0.747,4.443c-2.675,15.3 -6.27,30.433 -10.508,45.375c-8.533,30.075 -19.675,59.329 -31.721,88.154l-0.497,1.492l-0.06,0.258c-27.089,50.624 -55.409,101.921 -83.702,139.885c-77.287,98.321 -78.791,-75.062 -83.316,-148.612c54.812,-24.017 81.808,-50.288 81.808,-79.546c0,-22.504 -11.987,-41.279 -32.275,-51.046c-13.496,-6.746 -29.254,-8.254 -46.521,-5.991c-17.262,3.012 -34.533,10.516 -49.533,22.504c-15.758,12.029 -27.746,30.046 -37.513,52.55c-10.266,26.533 -16.012,54.604 -17.875,82.85l0,0.002c-18.203,27.065 -42.107,39.09 -90.965,34.961c3.77,-21.75 6.033,-44.258 6.033,-65.292c-0,-32.275 -4.525,-60.02 -13.533,-79.545c-14.25,-33.784 -37.513,-39.021 -50.292,-39.021c-37.513,-0 -62.279,26.275 -64.542,67.554c-2.225,29.258 8.259,63.792 26.279,90.783c16.513,24.017 37.509,41.284 61.559,49.538c-36.038,126.104 -95.342,222.916 -105.1,25.521c-2.984,-55.53 0.75,-105.067 0.75,-105.067c3.771,-57.796 -96.054,-58.546 -102.054,-19.525c-0,0.929 -1.146,12.454 -2.33,29.612l0,0.003c-4.345,24.262 -17.487,92.249 -37.441,158.766c-42.788,141.112 -69.821,135.871 -69.821,-36.758c0.754,-66.801 6.033,-108.838 6.033,-109.592c1.471,-53.271 -99.075,-54.775 -103.6,-29.254c-0.25,1.22 -1.291,11.308 -2.508,27.17c-0,0.038 -0,0.038 -0.038,0.075l0,0.004l-1.098,2.971c-11.648,31.404 -32.408,83.689 -58.629,135.645l-0.005,0.01c-35.678,72.255 -66.331,130.298 -93.67,129.971c-17.528,-0.21 -33.692,-24.401 -48.947,-84.2c-13.496,-49.538 -21.75,-111.817 -25.487,-179.375c-3.013,-56.288 -2.263,-113.325 2.225,-165.125c54.816,-30.763 93.079,-63.788 116.341,-100.546c22.509,-36.037 35.288,-70.571 39.771,-103.596c3.771,-30.008 -0.754,-57.041 -13.491,-78.041c-14.651,-25.129 -38.395,-39.213 -66.38,-39.251c-2.117,-0.003 -4.258,0.075 -6.42,0.234c-24.013,1.504 -48.03,12.746 -70.571,33.025c-24.017,21.754 -45.017,52.512 -62.284,92.287c-16.508,36.796 -29.254,88.559 -36.758,148.613c-3.012,21 -5.271,42.033 -6.783,63.787c-43.504,17.267 -89.309,33.025 -133.567,48.03l-58.55,20.279c-5.996,-66.046 -12.746,-135.867 -15.004,-195.129c32.267,-24.013 54.779,-51.8 69.029,-84.067c9.008,-19.529 13.533,-39.025 12.021,-56.288c-0.75,-17.266 -5.992,-32.27 -15.754,-45.016c-14.433,-18.212 -37.246,-29.053 -61.896,-29.059c-4.835,-0.001 -9.744,0.415 -14.675,1.275c-8.004,1.4 -15.9,3.917 -23.438,7.542l0.001,-0.002c0.967,-0.863 1.937,-1.759 2.871,-2.692c44.333,-43.038 70.429,-100.442 70.429,-157.154c-0,-37.192 -11.092,-71.759 -30.658,-101.088c8.475,-3.908 16.3,-8.471 24.77,-13.712c16.905,-10.3 31.267,-21.859 43.58,-34.892c2.15,25.238 7.429,49.9 15.145,72.729c16.3,46.954 41.713,72.4 71.721,72.4c41.104,0 71.075,-33.916 94.554,-62.6c11.13,-14.716 22.109,-31.587 32.95,-49.645c3.521,79.616 35.396,95.374 55.104,97.245c55.421,0 90.638,-55.425 111.492,-93.904c-3.229,29.971 -4.559,56.713 -3.913,79.542c1.329,35.862 7.825,61.962 18.917,78.258c10.45,15 24.125,21.538 39.775,21.538c56.75,-0 95.879,-95.88 111.533,-136.3c1.829,-4.559 3.588,-9.121 5.309,-13.642l0,0.002c4.704,25.125 13.679,44.116 26.633,56.679c13.067,12.383 29.367,18.916 47.638,18.271c44.333,-3.267 74.342,-31.984 109.554,-62.638c3.913,44.367 11.738,80.875 23.479,107.617c7.825,17.625 17.584,31.304 28.679,41.1c11.738,10.408 26.096,15.65 41.746,15.65l1.296,-0c10.446,-0 21.538,-2.621 31.95,-7.175l0.679,-0c42.359,-16.984 85.434,-65.871 128.475,-146.1c39.771,-73.013 63.896,-144.771 65.184,-147.354c1.975,-7.18 -1.288,-14.359 -8.471,-16.98c-6.529,-1.937 -13.675,1.292 -16.296,8.471c-0,0.646 -24.767,72.404 -63.25,143.475c-22.183,41.104 -44.367,73.7 -66.517,97.175c-75.025,85.434 -82.846,-89.35 -78.291,-204.108c0.683,-2.621 0.683,-5.238 0.683,-8.508c19.567,-31.95 37.154,-64.542 48.892,-93.221c18.92,-45.013 44.366,-112.179 57.4,-174.779c13.712,-64.58 11.737,-107.617 -5.85,-131.742c-8.509,-10.446 -24.159,-22.829 -52.842,-20.208c-22.829,2.583 -44.329,22.791 -63.933,61.275c-16.296,31.3 -31.3,75.666 -43.684,128.47c-16.941,68.492 -27.387,146.1 -31.304,218.467c-11.092,-16.296 -22.829,-29.325 -35.858,-39.771c-24.767,-19.562 -51.509,-28.033 -76.313,-22.829c-22.15,4.592 -40.425,18.917 -53.454,41.746c-0.392,0.642 -0.75,1.254 -1.075,1.9l-0.755,1.332l0,0.031c-9.44,16.977 -15.148,37.979 -17.336,62.028l-0.001,0.003c-6.967,22.617 -15.904,49.25 -26.496,75.563c-56.067,138.92 -63.892,75.02 -48.925,-49.538c7.825,-62.604 16.983,-101.083 16.983,-101.083c11.092,-52.196 -78.904,-56.104 -84.145,-31.984l-12.384,48.28c-29.358,-38.484 -73.05,-56.75 -110.846,-46.305c-21.537,5.205 -38.479,19.563 -50.904,41.063c-6.886,12.349 -11.949,27.139 -15.074,44.007l-0,0.001c-18.775,34.209 -38.05,67.129 -57.292,92.975c-67.158,85.434 -68.492,-65.225 -72.4,-129.158c47.633,-20.854 71.108,-43.683 71.108,-69.1c0,-19.563 -10.445,-35.896 -28.07,-44.371c-11.738,-5.846 -25.417,-7.175 -40.417,-5.204c-15.008,2.621 -30.008,9.121 -43.042,19.567c-13.712,10.445 -24.121,26.095 -32.596,45.662c-9.011,23.318 -14.021,48.001 -15.61,72.866l-0.073,1.184c-21.037,31.95 -50.4,52.767 -84.792,69.425c-6.491,-7.825 -14.316,-15.004 -22.791,-22.183c-24.804,-19.563 -55.459,-35.213 -91.317,-45.663c-16.946,-4.558 -35.221,-8.471 -54.137,-11.733c28.037,-15.008 54.783,-38.483 79.583,-68.458c20.212,-25.446 37.154,-54.13 48.892,-82.85c12.383,-29.971 18.916,-59.98 18.916,-86.721c0,-32.6 -10.441,-59.988 -29.329,-78.904c-20.887,-21.538 -52.833,-32.63 -93.258,-32.63c-54.129,0 -101.729,29.363 -142.184,86.763c-31.3,44.333 -58.691,105.642 -80.875,181.925c-14.32,50.217 -24.766,101.079 -32.591,144.121c-4.563,-87.371 -8.471,-207.371 -2.621,-298.013c31.3,-18.916 57.396,-43.037 72.4,-76.962c19.562,-43.684 7.183,-70.425 -2.621,-82.163c-14.354,-18.271 -39.125,-27.391 -65.867,-22.833c-16.3,2.621 -32.595,10.446 -45.625,22.183c-15.004,13.029 -26.095,30.659 -32.633,51.517c-9.112,26.092 -15,66.508 -17.583,120.646c-18.917,6.533 -37.838,12.379 -57.404,18.266c-50.217,15.655 -102.375,31.305 -140.855,56.721c-36.579,24.05 -58.079,53.913 -65.187,91.029l-0.291,1.58c-11.629,59.483 -8.687,127.937 6.784,186.233c15.258,57.471 37.908,111.708 70.721,161.137c32.883,49.5 71.9,94.696 113.433,137.092c42.392,43.288 87.187,84.317 133.425,123.446c47.85,40.487 97.496,78.862 148.717,114.975c1.008,0.683 1.975,1.4 2.979,2.083l0.002,0.003c-7.646,4.379 -14.971,8.971 -21.858,13.854c-37.927,26.654 -58.765,58.586 -62.986,97.438c-0.305,1.151 -0.494,2.363 -0.558,3.623c-1.021,20.408 -1.746,41.042 2.879,61.113c4.5,19.525 14.583,38.404 29.546,51.904c15.154,13.679 33.908,21.991 54.271,23.65c15.275,1.246 31.345,-1.404 45.645,-6.834c29.938,-11.354 55.271,-33.291 71.071,-61.162c15.859,-27.983 21.829,-61.996 12.45,-93.163c-2.471,-8.204 -5.933,-16.258 -10.2,-23.691c-5.079,-8.85 -11.579,-16.904 -18.141,-24.679c-12.09,-14.311 -26.449,-26.179 -40.792,-38.104c16.882,-7.336 34.898,-14.338 53.506,-21.472l8.146,-3.119c21.792,-8.258 43.546,-16.512 65.296,-25.521c3.771,61.521 15.763,120.071 15.763,177.863l-21.004,11.271c-26.275,14.25 -46.521,28.504 -60.055,44.262c-16.512,18.771 -24.729,39.021 -24.729,60.808c0,8.259 6.746,15.005 15,15.005c8.259,-0 15.009,-6.746 15.009,-15.005c-0,-33.025 31.516,-60.054 79.545,-84.07c5.242,57.795 9.767,111.066 9.767,153.85c0.75,27.787 -1.512,49.541 -4.525,63.791c-4.492,17.263 -23.258,19.525 -21.754,32.271c-0.823,12.72 27.534,20.728 56.468,20.711c23.978,-0.013 48.35,-5.535 56.857,-18.448c23.258,-35.288 20.279,-132.855 3.767,-293.455l65.295,-22.508c40.53,-14.25 82.567,-27.783 122.338,-43.542c-0.754,28.538 -1.508,57.796 -0.754,87.805c2.225,63.783 8.254,125.35 18.737,177.145c12.025,57.759 27.784,102.055 47.313,131.309c19.487,29.291 41.246,43.541 66.766,43.541l1.505,0c39.025,0 71.295,-32.27 93.837,-58.541c24.017,-29.259 48.783,-69.034 73.55,-118.567l0.001,-0.001c9.726,-19.452 18.694,-38.967 26.726,-57.45c0,0 1.593,-3.68 1.593,-3.68c-0.283,17.014 -0.283,34.672 0.183,52.122c1.509,48.025 6.746,87.8 15.755,117.092c24.77,86.296 98.325,87.05 138.85,14.25c17.266,-27.783 33.025,-67.558 48.783,-117.846c3.229,-10.7 6.283,-21.433 9.154,-32.057l0,0.001c6.208,56.109 19.313,95.446 38.875,116.879c12.025,12.742 27.029,19.488 43.542,19.488c26.279,-0 51.046,-10.479 73.554,-31.513c19.487,-17.27 36.004,-42.037 51.046,-72.8c12.741,-27.745 23.258,-59.262 30.008,-91.57c42.463,1.791 72.438,-5.205 96.054,-23.692l0.004,-0.001c1.829,32.163 8.22,63.717 18.02,92.758c18.775,54.021 48.03,83.313 82.559,83.313c47.279,-0 81.808,-39.017 108.804,-72.042c28.185,-37.37 55.795,-86.765 81.773,-136.206c-0.054,-0.066 -0.167,-0.174 -0.381,-0.321l-0.221,-0.142c-0.42,-0.257 -1.102,-0.598 -2.193,-1.009l-2.555,-0.847l0.788,0.241l1.767,0.606c0.946,0.354 1.586,0.656 2.016,0.894l0.622,0.402l0.177,0.158l0.053,0.063c32.002,-56.784 49.239,-115.415 55.263,-170.944c12.895,-5.929 24.804,-14.164 35.516,-23.81c20.684,-18.629 37.438,-42.466 50.492,-66.933c13.492,-25.296 23.525,-52.658 29.046,-80.8c1.504,-7.688 2.617,-15.433 3.6,-23.208l0.047,-0.456l9.797,-31.25c58.551,-18.345 103.579,-71.806 121.985,-140.104l-0,-0.001c3.268,1.52 6.549,2.972 9.838,4.35Zm-1947.24,374.694c-46.743,23.536 -80.152,51.709 -85.548,95.677c0.025,0.424 0.027,0.85 0.005,1.277c-0.747,14.903 -1.475,29.921 0.238,44.78c1.183,7.65 3.116,15.127 5.95,22.332c2.457,5.451 5.393,10.635 8.907,15.472c3.427,4.192 7.247,8.02 11.44,11.451c4.256,3.097 8.789,5.76 13.576,7.952c4.702,1.819 9.55,3.163 14.52,3.996c6.221,0.635 12.508,0.51 18.72,-0.18c7.613,-1.202 15.045,-3.289 22.208,-6.142c7.911,-3.532 15.373,-7.966 22.324,-13.139c7.351,-5.893 14.014,-12.583 19.901,-19.933c5.6,-7.504 10.365,-15.585 14.162,-24.141c3.131,-7.838 5.417,-15.979 6.725,-24.316c0.816,-7.339 0.852,-14.724 0.043,-22.06c-1.09,-6.854 -2.926,-13.552 -5.468,-20.017c-3.29,-7.303 -7.472,-14.062 -12.275,-20.467c-8.725,-11.066 -18.304,-21.318 -29.104,-30.4c-8.774,-7.384 -17.549,-14.763 -26.324,-22.142Zm-30.912,202.937c-0.631,-0.064 -1.26,-0.136 -1.889,-0.216c1.35,0.183 2.704,0.366 4.054,0.546c-0.724,-0.099 -1.447,-0.209 -2.165,-0.33Zm18.72,-0.18c-0.728,0.117 -1.458,0.223 -2.188,0.322c1.354,-0.183 2.704,-0.367 4.058,-0.546c-0.622,0.081 -1.246,0.156 -1.87,0.224Zm-33.24,-3.816c-0.631,-0.244 -1.26,-0.496 -1.886,-0.758c1.213,0.513 2.429,1.025 3.646,1.538c-0.591,-0.253 -1.178,-0.513 -1.76,-0.78Zm55.448,-2.326c-0.571,0.255 -1.145,0.506 -1.721,0.752c1.216,-0.513 2.429,-1.025 3.645,-1.538c-0.639,0.269 -1.28,0.531 -1.924,0.786Zm-69.024,-5.626c-0.512,-0.372 -1.019,-0.75 -1.522,-1.135c1.029,0.8 2.058,1.592 3.091,2.388c-0.529,-0.412 -1.052,-0.83 -1.569,-1.253Zm91.348,-7.513c-0.463,0.371 -0.928,0.739 -1.395,1.103c1.033,-0.796 2.062,-1.592 3.091,-2.387c-0.562,0.433 -1.127,0.861 -1.696,1.284Zm-103.643,-5.001l-0.282,-0.358l2.384,3.091c-0.424,-0.551 -0.839,-1.108 -1.247,-1.67c-0.288,-0.352 -0.573,-0.706 -0.855,-1.063Zm-8.052,-14.409c-0.265,-0.588 -0.525,-1.18 -0.78,-1.774c0.513,1.216 1.025,2.433 1.538,3.645c-0.26,-0.621 -0.513,-1.245 -0.758,-1.871Zm131.596,-0.523c-0.371,0.498 -0.746,0.993 -1.126,1.486c0.8,-1.029 1.596,-2.058 2.388,-3.087c-0.417,0.537 -0.838,1.071 -1.262,1.601Zm1573.56,-7.573l0.067,0.02l-0.311,-0.088l0.244,0.068Zm-0.631,-0.177l0.099,0.028l-0.296,-0.082l0.197,0.054Zm-0.673,-0.182l0.133,0.036l-0.295,-0.079l0.162,0.043Zm-0.718,-0.187l0.169,0.044l-0.297,-0.076l0.128,0.032Zm-0.765,-0.191l0.202,0.05l-0.292,-0.072l0.09,0.022Zm-0.811,-0.196l0.209,0.051l-0.257,-0.062l0.048,0.011Zm-0.86,-0.2l-0.354,-0.086l0.354,0.086Zm-1706.64,-13.103c-0.111,-0.714 -0.215,-1.429 -0.313,-2.147c0.183,1.35 0.367,2.7 0.546,4.055c-0.083,-0.637 -0.16,-1.273 -0.233,-1.908Zm151.708,-2.332c-0.231,0.581 -0.468,1.159 -0.708,1.735c0.512,-1.216 1.025,-2.433 1.537,-3.645c-0.271,0.639 -0.547,1.276 -0.829,1.91Zm6.725,-24.316c-0.069,0.626 -0.144,1.251 -0.225,1.876c0.179,-1.354 0.362,-2.704 0.546,-4.062c-0.099,0.73 -0.206,1.459 -0.321,2.186Zm0.043,-22.06c0.117,0.73 0.224,1.462 0.324,2.195c-0.18,-1.35 -0.363,-2.704 -0.546,-4.054c0.08,0.619 0.155,1.239 0.222,1.859Zm-5.468,-20.017c0.294,0.65 0.58,1.304 0.858,1.962c-0.512,-1.213 -1.025,-2.429 -1.537,-3.646c0.232,0.56 0.459,1.121 0.679,1.684Zm-12.817,-21.191l-0.596,-0.772c0.384,0.496 0.763,0.995 1.138,1.496c0.418,0.528 0.833,1.059 1.246,1.591l-1.788,-2.315Zm803.702,-99.434c-20.246,0 -36.758,15.758 -36.758,36.758c-0,20.284 16.512,36.038 36.758,36.038c21.787,-0 38.3,-15.754 38.3,-36.038c-0,-21 -16.513,-36.758 -38.3,-36.758Zm773.65,-88.705l-2.36,-1.324l-0.878,-0.448c0.027,0.014 0.054,0.031 0.068,0.046c-0.015,0.029 -1.963,-0.846 -2.435,-0.999c-1.229,-0.396 -2.479,-0.737 -3.741,-1.021c-0.719,-0.159 -3.06,-0.272 -2.476,-0.262l1.726,0.054l-2.842,-0.127l-0.95,-0.006c-0.784,0.019 -1.565,0.06 -2.342,0.135c-0,-0 -0.198,0.063 -0.198,0.063c-0.707,0.244 -1.394,0.508 -2.13,0.65c0,0 -0.224,0.038 -0.224,0.038l-3.095,2.037l-0.374,0.211c-0.021,0.01 -0.04,0.017 -0.054,0.022c-0.012,0.003 -0.022,0.005 -0.029,0.005l-0.007,-0.002l-0.005,-0.011l0,-0.003l0.007,-0.011l0.005,-0.012l0.006,-0.008l0.003,-0.005l0.609,-0.566l-1.755,1.599l-1.075,1.087c-0.221,0.236 -1.812,2.172 -1.853,2.132c0.001,-0.003 0.001,-0.007 0.002,-0.01l0.012,-0.025c-0.566,0.807 -1.105,1.634 -1.632,2.465c-1.517,2.396 -2.871,4.896 -4.129,7.438c-0.567,1.15 -1.092,2.312 -1.634,3.471l-0.168,0.354l-0.186,0.533c-1.879,5.321 -3.616,10.604 -4.771,16.138c-0.27,1.275 -0.508,2.55 -0.725,3.829c-0.016,0.088 -0.253,1.954 -0.333,2.448l-0.092,0.964c-0.112,1.288 -0.2,2.575 -0.262,3.863c-0.146,2.991 -0.154,5.987 -0.004,8.979c0.062,1.267 0.15,2.542 0.271,3.808l0.018,1.059l-0.054,1.485l0.086,-1.819c-0.246,4.613 2.35,10.196 3.758,14.496l0.285,0.728c0.169,0.368 0.343,0.734 0.519,1.097c0.542,1.117 1.108,2.213 1.717,3.288c0.974,1.747 2.055,3.408 3.18,5.049l-0.126,-0.191c-0.081,-0.148 1.215,1.639 1.554,2.029c0.829,0.95 1.692,1.875 2.579,2.771c0.925,0.929 1.879,1.829 2.863,2.692c0.32,0.282 2.084,1.586 2.118,1.643c-0.009,0.004 -0.002,0.002 -0.02,-0.008l-0.08,-0.05c2.142,1.461 4.334,2.825 6.64,4.027c0.737,0.386 1.486,0.75 2.24,1.104l-0.156,-0.082c-0.033,-0.044 2.061,0.862 2.483,1.011c2.487,0.884 5.033,1.621 7.604,2.221c1.296,0.309 2.592,0.575 3.904,0.809c0.413,0.073 2.095,0.243 2.572,0.299c3.127,0.214 6.208,0.277 9.302,0.217c2.165,-0.039 4.336,-0.139 6.534,-0.287l0.551,-0.034l0.499,-0.1c1.252,-0.236 2.503,-0.438 3.75,-0.696c0.096,-1.889 0.174,-3.779 0.234,-5.67c0.421,-13.125 -0.029,-26.288 -1.492,-39.338c-0.121,-1.096 -0.25,-2.187 -0.387,-3.279c0.225,1.567 0.195,1.363 -0.088,-0.612c-0.242,-1.642 -0.487,-3.275 -0.762,-4.909c-0.492,-2.991 -1.038,-5.971 -1.663,-8.933c-1.196,-5.667 -2.687,-11.279 -4.683,-16.717c-0.221,-0.602 -0.447,-1.203 -0.682,-1.802c-0.098,-0.217 -0.244,-0.54 -0.435,-0.969c-0.642,-1.275 -1.242,-2.566 -1.921,-3.825c-1.177,-2.187 -2.477,-4.294 -3.896,-6.328l0.082,0.123c0.009,0.017 0.036,0.036 0.025,0.051c-0.052,-0.004 -1.591,-2.004 -1.802,-2.233c-0.892,-0.996 -1.825,-1.954 -2.805,-2.871c-0.342,-0.321 -2.211,-1.775 -2.017,-1.686c-0,0 0.067,0.039 0.067,0.039c-0.672,-0.46 -1.353,-0.905 -2.045,-1.328Zm-1548.24,-863.882c24.698,0.199 45.072,17.539 51.242,62.935c5.204,38.479 -8.471,91.963 -36.546,142.829c-27.387,49.571 -67.804,89.346 -97.166,102.375c-17.592,7.825 -4.563,24.771 2.621,24.771c81.52,15.004 132.387,50.217 160.42,92.613c-58.691,20.891 -125.208,45.658 -185.837,95.879c-24.804,20.858 -42.392,45.658 -50.867,72.404c-7.821,25.412 -7.821,51.508 0.65,74.987c16.296,45.621 59.979,73.692 113.467,73.692c37.15,0 73.046,-6.533 105.646,-19.562c14.748,-6.104 28.851,-13.457 42.1,-21.965l-1.909,2.323l-1.851,2.38l-1.351,1.822l-0.441,0.611c-3.824,5.34 -7.249,11.09 -10.294,17.294l-1.046,2.18l-1.338,2.946l-0.969,2.253l-1.246,3.063l-1.193,3.131l-1.14,3.199l-0.551,1.626c-0.181,0.543 -0.361,1.092 -0.538,1.643c-11.988,35.288 -13.5,92.325 -10.484,158.379c-24.016,10.48 -48.783,20.242 -74.304,30.009l-10.628,3.975l-5.275,1.985l-4.496,1.701c-20.169,7.651 -39.659,15.367 -57.89,23.729c-0.946,-0.204 -1.936,-0.312 -2.98,-0.312c-0.613,-0 -1.246,0.044 -1.887,0.132c-24.226,-16.737 -48.076,-33.951 -71.592,-51.713l-8.938,-6.779c-1.4,-1.079 -2.8,-2.117 -4.162,-3.196c-0.721,-0.537 -1.404,-1.079 -2.121,-1.616c-0.108,-0.071 -0.9,-0.684 -1.438,-1.113c-0.037,-0.033 -0.07,-0.033 -0.104,-0.071l-0.037,-0.037c-0.075,-0.038 -0.113,-0.071 -0.179,-0.142l-0.075,-0.075c-0.071,-0.033 -0.105,-0.071 -0.142,-0.071c-5.633,-4.379 -11.2,-8.758 -16.763,-13.171c-12.1,-9.55 -24.054,-19.241 -35.933,-29.041c-46.342,-38.375 -91.137,-78.721 -133.929,-121.079c-20.533,-20.317 -40.563,-41.171 -59.658,-62.855c-9.48,-10.733 -18.705,-21.683 -27.68,-32.841c-2.225,-2.767 -4.412,-5.529 -6.566,-8.296c-0.363,-0.467 -0.721,-0.971 -1.117,-1.433c-0.067,-0.075 -0.142,-0.184 -0.246,-0.325c0,-0 -0.075,-0.034 -0.075,-0.071c-0.037,-0.038 -0.071,-0.109 -0.108,-0.146l-0.033,-0.033c-0.075,-0.075 -0.109,-0.184 -0.184,-0.255c0,0 -0.033,0 -0.033,-0.033c-0.038,-0.037 -0.038,-0.037 -0.038,-0.075c-0.033,0 -0.07,-0.037 -0.07,-0.037l-0,-0.03l-3.3,-4.312c-4.384,-5.775 -8.65,-11.629 -12.892,-17.517c-16.579,-23.262 -31.804,-47.491 -45.121,-72.762c-6.642,-12.671 -12.85,-25.592 -18.412,-38.767c-0,0 -0.038,0 -0.038,-0.033c-0.179,-0.434 -1.075,-2.621 -1.325,-3.163c-0.612,-1.579 -1.258,-3.121 -1.867,-4.7c-1.4,-3.521 -2.762,-7.037 -4.095,-10.591c-2.475,-6.713 -4.809,-13.459 -6.996,-20.28c-4.492,-14 -8.329,-28.179 -11.45,-42.537c-1.55,-6.967 -2.875,-13.929 -4.021,-20.963c-0.542,-3.162 -1.004,-6.32 -1.475,-9.445c-0.038,-0.359 -0.108,-0.717 -0.142,-1.075c0,-0.105 -0.037,-0.213 -0.037,-0.288c-0,-0.071 -0.038,-0.142 -0.038,-0.217c-0.108,-0.787 -0.179,-1.541 -0.283,-2.295c-0.217,-1.867 -0.429,-3.734 -0.646,-5.596c-1.546,-14.254 -2.3,-28.646 -2.225,-43.009c0.067,-9.87 0.321,-19.883 1.25,-29.791c0,-0 0.075,-0.684 0.179,-1.942c0.329,-3.229 0.721,-6.425 1.225,-9.617c-0.108,0.142 -0.212,0.325 -0.325,0.467c0.825,-7.683 2.121,-18.162 3.804,-27.712l-0.047,0.33l-2.176,14.226l-0.633,5.262l2.809,-19.488l0.049,-0.323l-0.002,-0.011c1.394,-7.967 3.111,-15.228 5.082,-19.648l0.017,-0.057c0.038,-0.075 0.038,-0.104 0.075,-0.179c8.288,-22.683 24.479,-41.533 49.425,-57.612c35.217,-23.48 83.496,-38.48 134.363,-54.134c16.296,-5.204 32.591,-9.762 48.241,-15.004c-1.937,45.017 -1.287,98.463 0.65,159.775c3.267,114.15 12.417,214.554 12.417,215.879c2.588,53.45 89.346,23.479 94.55,-8.471c0,-1.325 9.121,-119.354 46.313,-245.891c20.854,-74.338 46.95,-133.029 76.275,-174.742c24.851,-34.483 65.069,-64.326 97.786,-64.262l0.338,0.002Zm1608.99,946.679c-0,-0 -0,-0 -0,-0Zm-75.622,-87.005c-0.392,-0.007 -0.85,0.099 -1.315,0.243l1.602,-0.214c-0.091,-0.018 -0.187,-0.027 -0.287,-0.029Zm83.866,-154.8c35.536,-13.282 91.955,-27.266 155.184,-16.123c-20.374,21.448 -45.956,35.334 -74.647,38.276c-28.59,2.929 -56.34,-5.403 -80.537,-22.153Zm-1500.84,-14.974c0,0 -2.808,2.629 -2.808,2.629c0,0 -2.968,2.991 -2.968,2.991l-1.245,1.319l-1.102,1.192c-0.852,0.947 -1.686,1.909 -2.502,2.886l-0.024,0.024l0.024,-0.024c0.816,-0.977 1.65,-1.939 2.502,-2.886l1.965,-2.126l0.956,-0.993l2.451,-2.439l2.239,-2.106c0.17,-0.156 0.341,-0.312 0.512,-0.467Zm1444.84,-51.09c23.028,-12.007 131.579,-62.862 252.369,-25.146c-2.925,10.412 -6.584,20.362 -10.911,29.746c-97.993,-24.697 -183.288,3.912 -224.697,22.693c-6.167,-8.416 -11.786,-17.547 -16.761,-27.293Zm-4.817,-200.025c17.733,-3.858 33.135,-6.558 44.684,-8.145c8.767,-0.9 14.875,1.12 18.013,5.891c6.262,9.438 5.141,32.263 -10.888,62.621c-0.612,0.979 -1.116,2.046 -1.716,3.129c-12.646,22.679 -36.213,55.034 -64.413,83.892l-3.634,3.687c-8.269,8.286 -16.859,16.203 -25.712,23.421c-1.421,1.159 -2.849,2.3 -4.284,3.421l0,0.001c-26.637,21.262 -54.853,36.07 -80.424,35.941c-25.996,-0.284 -47.333,-16.738 -65.129,-50.246c-12.721,-23.746 -14.05,-44.683 -4.3,-63.813c20.941,-41.045 88.254,-69.837 149.571,-87.525c12.262,-3.6 24.358,-6.775 35.791,-9.47l12.441,-2.805Zm445.775,98.083c-10.625,36.425 -28.183,56.858 -53.575,62.412c-25.508,5.467 -56.787,-3.646 -87.754,-19.617c-13.308,-6.679 -26.454,-14.7 -39.054,-23.387c-32.734,-22.304 -61.809,-48.654 -78.459,-68.025c-0.929,-1.125 -1.958,-2.242 -2.787,-3.379c-21.413,-26.113 -27.125,-48.029 -22.896,-58.442c2.104,-5.308 7.679,-8.529 16.446,-9.429c11.229,-0.738 26.246,-1.258 43.571,-1.1c4.175,-0.021 8.558,0.037 12.958,0.2c11.638,0.333 23.917,0.904 36.638,1.842c64.129,4.729 136.995,19.254 166.175,55.57c13.429,16.746 16.375,37.525 8.737,63.355Zm-254.255,13.158c-51.127,-3.685 -97.16,3.87 -133.549,13.99c11.575,-15.596 20.953,-30.212 27.526,-42.147c2.329,-4.109 4.346,-8.288 6.279,-12.25l0.421,-0.893c17.699,-37.75 19.436,-71.699 4.362,-94.503c-5.783,-8.775 -13.9,-15.375 -23.483,-19.488c-9.675,-4 -20.833,-5.6 -32.929,-4.362l-0.604,0.062c-0.405,0.042 -2.509,0.359 -5.913,0.913l-0.001,-0c19.567,-18.705 43.375,-30.817 69.875,-33.538c26.504,-2.717 52.163,4.225 75.12,18.57c-2.337,0.038 -3.749,0.179 -4.053,0.213l-0.6,0.062c-24.188,2.483 -42.538,15.158 -50.404,34.796c-10.109,25.579 -1.425,58.6 23.804,92.162c2.708,3.592 5.746,7.35 8.867,11.005c8.854,10.254 20.91,22.567 35.282,35.408Zm-2332.85,-297.061l1.643,-0.455l0.82,-0.141l0.538,-0.119l0.638,-0.083l1.259,-0.092l-1.563,0.144l-0.872,0.15l-1.541,0.34l-0.593,0.165l-1.286,0.451l-0.707,0.266l-2.085,1.003l-1.773,1.099c0,0 0.07,-0.052 0.204,-0.145l1.484,-0.913l0.085,-0.041l0.075,-0.046l1.836,-0.892l1.838,-0.691Zm1294.37,-788.993l-1.377,0.105l-1.309,0.334l-1.214,0.53l-0.974,0.595l-0.64,0.486l-0.844,0.766l-1.291,1.523l-0.73,1.117l-0.71,1.353l-0.35,0.821c-9.809,26.52 -37.71,45.093 -73.747,58.231c-1.772,0.646 -3.566,1.28 -5.379,1.901c-3.775,-17.045 -9.838,-31.332 -18.417,-41.853c-9.158,-11.125 -20.279,-16.904 -32.346,-16.438c-14.5,0 -27.062,6.784 -37.691,19.813c-10.659,13.317 -18.917,34.137 -24.517,61.742l-0.001,0.003c-2.376,0.278 -4.747,0.547 -7.111,0.806c-35.473,3.892 -69.521,5.737 -96.373,7.015l-0.003,-0c0.971,-13.996 1.437,-27.067 0.971,-37.688c-1.227,-18.537 -13.458,-25.388 -27.186,-25.445c-18.816,-0.078 -40.448,12.599 -40.448,25.445c0,11.592 0,25.125 -0.966,40.6c-31.875,1.9 -62.779,4.809 -90.817,10.117c-28.504,4.846 -52.154,11.129 -71.971,19.317c-23.191,9.687 -41.066,21.754 -55.066,36.72c-10.625,11.596 -18.846,25.13 -23.655,40.096c-5.312,15.475 -7.716,33.35 -6.787,52.159c-0,5.146 4.109,9.385 9.196,9.645l0.966,0.013c5.309,-0.471 9.188,-4.813 9.188,-10.125c-1.475,-32.846 6.75,-58.438 25.592,-78.754c38.162,-41.534 116.416,-54.1 202.387,-59.413c-0.971,20.321 -2.408,42.504 -4.342,66.663c-4.345,73.441 -9.662,157.008 -9.191,228.479c0.966,86.475 10.625,136.692 30.437,157.008c6.629,7.545 15.076,11.386 23.999,11.556l1.597,0.007c20.283,-0.471 40.096,-17.842 60.879,-52.625c15.434,-26.1 31.371,-61.85 47.346,-106.292c9.158,-25.917 16.229,-47.562 21.575,-64.825l0.001,-0.002c3.95,34.424 8.687,64.686 13.212,85.611c3.375,15.938 63.25,13.534 67.125,0.471c13.029,-43.937 27.533,-85.008 43.004,-114.942c17.875,-33.345 36.221,-51.695 51.188,-51.695c3.371,-0 4.846,0.975 5.812,2.412c2.404,2.433 5.317,11.121 1.904,35.279c-2.404,18.813 -7.716,41.534 -13.495,65.192c-14.038,57 -27.067,110.633 -7.755,134.754c4.346,5.817 13.067,12.563 28.034,12.563c24.625,-0 43.937,-20.746 57.004,-38.159c14,-18.341 28.971,-44.437 43.475,-76.783c7.712,-16.757 14.603,-33.593 20.457,-48.847l-0.001,-0.004c-3.154,-14.288 -4.879,-28.934 -4.734,-43.617l0.001,-0.004l-0.002,0.005c-7.109,20.925 -18.738,53.092 -33.134,84.717c-14.466,30.942 -28,55.567 -41.533,72.942c-17.375,21.245 -13.029,-0 -10.154,-21.255c2.904,-21.245 9.687,-46.379 15.467,-70.5c6.75,-25.125 12.566,-48.312 14.97,-68.595c3.375,-26.567 -6.283,-41.53 -15.437,-49.755c-27.067,-23.691 -76.35,-13.529 -98.571,9.192c-10.125,10.125 -20.279,24.625 -30.404,43.471c-11.592,21.717 -22.721,49.25 -32.846,79.692c-6.283,-40.567 -12.096,-94.196 -14.033,-146.855c10.158,-12.062 19.35,-25.129 27.062,-38.158c11.596,-19.817 19.817,-40.562 24.625,-61.817c3.178,-15.665 4.983,-31.495 5.277,-46.761l-0.214,-15.048c2.773,-0.844 5.482,-1.717 8.128,-2.62c18.521,-6.317 33.965,-14.061 46.717,-23.01l0.004,-0.003c20.279,-14.971 33.817,-34.279 39.129,-57.471c1.438,-5.308 -1.941,-10.154 -6.783,-11.592l-1.467,-0.277l-0.713,-0.039Zm-205.519,114.788c-4.342,32.846 -6.284,72.942 -4.809,119.788c0.575,24.479 1.975,49.645 3.909,74.054l0.001,0.01c-0.962,4.231 -3.571,14.68 -8.467,31.29l-1.161,3.908l-1.154,3.83l-1.215,3.981l-1.277,4.134l-1.341,4.285l-1.406,4.439l-1.472,4.592l-0.854,2.647l-1.539,4.714l-1.61,4.878l-1.682,5.041l-1.761,5.219l-1.826,5.355l-1.906,5.529l-1.983,5.693l-2.062,5.856l-2.14,6.019c-15.433,43.512 -30.904,77.787 -45.404,102.412c-5.405,9.05 -9.915,12.938 -13.68,12.865c-16.744,-0.324 -18.758,-78.956 -19.166,-130.24c-0.467,-69.071 4.846,-147.787 9.187,-217.358c1.938,-25.125 3.375,-48.783 4.342,-69.567c4.85,-0.466 9.192,-0.466 14,-0.466c28.9,-1.217 58.263,-2.405 86.692,-4.38l-0.216,1.472Zm316.895,185.479l-7.464,23.47l-0.001,0.004c-0.145,14.683 1.58,29.329 4.734,43.617l0.001,0.004c5.926,26.276 16.871,51.294 30.728,72.721c20.283,30.725 43.15,44.37 64.687,38.912c29.505,-7.504 44.867,-37.296 56.5,-62.175c13.388,-31.804 23.796,-73.3 33.13,-113.037c1.15,-5.275 -1.65,-10.55 -6.925,-11.7c-5.275,-1.15 -10.446,2.154 -11.596,7.429c-9.584,38.804 -19.779,79.258 -32.413,109.879c-32.704,73.55 -61.058,-34.35 -75.491,-79.546c30.37,-23.658 43.079,-44.296 38.445,-62.571c-3.554,-14.033 -14,-23.829 -28.212,-26.737c-9.479,-2.084 -19.567,-0.504 -29.979,3.625c-10.3,4.591 -19.884,12.021 -27.313,21.896c-7.971,9.979 -12.604,23.116 -15.112,38.695c-0.377,3.14 -0.666,6.309 -0.864,9.482l-0.319,9.502l7.464,-23.47Zm-303.604,30.44l-0.071,0.257l0.142,-0.511l-0.071,0.254Zm-12.964,-26.197l0.002,-0.004l-0.028,0.054l-0.003,0.007l0.029,-0.057Zm335.749,-0.781l-0.001,0.025l0.003,-0.095l-0.002,0.07Zm-334.991,-0.446l-0.041,0.057l0.046,-0.065l-0.005,0.008Zm0.554,-0.697l-0.015,0.017l0.011,-0.012l0.004,-0.005Zm0.873,-0.885l-0.008,0.007l0.004,-0.004l0.004,-0.003Zm11.691,-0.988l0.085,0.056l-0.206,-0.135l0.121,0.079Zm-10.057,-0.204l-0.022,0.013l0.005,-0.004l0.017,-0.009Zm313.639,-1.99l0.216,-0.328l-0.816,1.413l0.6,-1.085Zm-310.857,0.868l-0.055,0.013l0.082,-0.02l-0.027,0.007Zm1.4,-0.232l-0.023,0.002l0.023,-0.002Zm0.335,-0.025l-0.054,0.003l0.054,-0.003Zm0.984,-0.007l0.032,0.002l-0.081,-0.004l0.049,0.002Zm-0.261,-0.008l-0.048,-0.001l0.048,0.001Zm311.082,-3.436l-0.905,0.707l0.437,-0.383l0.468,-0.324l0.496,-0.387l0.553,-0.34l-1.049,0.727Zm11.491,-0.299l0.117,0.082l-0.252,-0.173l0.135,0.091Zm-9.373,-0.961l0.318,-0.13l-1.287,0.606l0.969,-0.476Zm0.815,-0.309l0.218,-0.07l-0.523,0.176l0.305,-0.106Zm0.953,-0.264l0.15,-0.032l-0.323,0.072l0.173,-0.04Zm0.645,-0.121l0.344,-0.046l-0.727,0.112l0.383,-0.066Zm1.267,-0.107l-0.806,0.048c0.268,-0.027 0.536,-0.043 0.806,-0.048Zm0.129,-0.001l0.21,0.002c-0.07,-0.001 -0.139,-0.002 -0.21,-0.002Zm-223.837,-193.796l-0,0.034c-0,15.041 -1.871,33.166 -6.425,53.096c-6.283,28.966 -19.817,54.091 -33.35,73.908c-0.933,-38.158 -0,-71.971 3.408,-100.008c0.863,-7.571 1.829,-14.467 2.838,-20.675l-0,-0.001c11.67,-1.763 22.866,-3.842 33.528,-6.317l0.001,-0.037Zm-84.683,-10.515l-4.032,0.522l4.157,-0.539l-0.125,0.017Zm2.065,-0.275l-1.09,0.145l1.099,-0.147l-0.009,0.002Zm2.101,-0.286l-1.015,0.138l1.028,-0.139l-0.013,0.001Zm2.799,-0.389l-1.317,0.184l1.317,-0.184Zm2.253,-0.32l-0.896,0.128l0.942,-0.135l-0.046,0.007Zm23.505,-3.766c-0,0 -6.792,1.169 -6.792,1.169l-2.294,0.378l-4.172,0.671l-3.151,0.495c-0,-0 5.383,-0.846 5.383,-0.846l3.922,-0.642l1.758,-0.296l5.428,-0.943l5.342,-0.976l-5.424,0.99Zm5.857,-1.072l-0.196,0.037l5.159,-0.991l-1.601,0.313l-3.362,0.641Zm8.565,-1.675l-3.381,0.678l3.393,-0.681l-0.012,0.003Zm5.667,-1.185l-2.792,0.591l2.795,-0.591l-0.003,0Zm4.3,-0.943c9.083,-30.257 20.104,-27.853 24.983,-6.315l3.756,-1.096l5.567,-1.693l-1.454,0.454l-3.103,0.944l-3.405,1l-1.361,0.391c-8.078,2.329 -16.439,4.412 -24.983,6.315Zm39.53,-10.802l-2.277,0.754l3.076,-1.026l1.637,-0.559l-2.436,0.831Zm-497.622,1153.57l2.055,-1.612l1.999,-1.493l1.948,-1.384l1.734,-1.174l2.148,-1.388l1.079,-0.669l1.151,-0.693l-1.619,0.988l-2.384,1.519l-1.096,0.736l-1.555,1.066l-1.831,1.318l-1.789,1.342c-0,0 -2.158,1.707 -2.158,1.707l-2.005,1.663l1.605,-1.345l0.718,-0.581Z"/><path d="M1429.05,1342.76c7.179,-2.621 7.179,-2.621 7.179,7.825c0,5.204 -3.912,19.562 -39.129,37.8c6.533,-23.479 17.592,-39.775 31.95,-45.625Z"/></g></g></svg>