<?xml version="1.0" encoding="UTF-8" standalone="no"?><!DOCTYPE svg PUBLIC "-//W3C//DTD SVG 1.1//EN" "http://www.w3.org/Graphics/SVG/1.1/DTD/svg11.dtd"><svg width="100%" height="100%" viewBox="0 0 3334 3334" version="1.1" xmlns="http://www.w3.org/2000/svg" xmlns:xlink="http://www.w3.org/1999/xlink" xml:space="preserve" xmlns:serif="http://www.serif.com/" style="fill-rule:evenodd;clip-rule:evenodd;stroke-linejoin:round;stroke-miterlimit:2;"><rect id="reversed-logo" x="0" y="0" width="3333.33" height="3333.33" style="fill:none;"/><g id="Layer-1" serif:id="Layer 1"><path d="M2916.81,2394.85l0,-1445.36l-1251.72,-722.679l-1251.72,722.679l0,1445.36l1251.72,722.68l1251.72,-722.68Z" style="fill-rule:nonzero;"/><path d="M1765.19,582.364c-5.313,-1.471 -9.654,2.404 -11.592,7.25c-10.271,27.858 -40.492,46.954 -79.154,60.2c-5.492,1.904 -11.163,3.662 -16.979,5.312c-8.075,2.334 -16.442,4.417 -24.984,6.317c-22.937,5.137 -47.204,8.867 -71.004,11.633c-38.012,4.45 -74.846,6.459 -103.487,7.821c0.966,-13.996 1.437,-27.062 0.966,-37.687c-2.904,-43.934 -67.629,-22.217 -67.629,-0c0,11.595 0,25.129 -0.966,40.6c-31.875,1.904 -62.784,4.808 -90.817,10.12c-28.504,4.846 -52.158,11.13 -71.975,19.313c-23.188,9.692 -41.067,21.754 -55.063,36.725c-10.625,11.592 -18.845,25.125 -23.654,40.096c-5.316,15.471 -7.721,33.346 -6.787,52.154c-0,5.317 4.379,9.658 9.691,9.658l0.467,0c5.313,-0.471 9.192,-4.812 9.192,-10.125c-1.475,-32.846 6.746,-58.437 25.591,-78.754c38.159,-41.533 116.413,-54.096 202.384,-59.408c-0.967,20.316 -2.404,42.5 -4.342,66.658c-4.342,73.446 -9.658,157.008 -9.192,228.483c0.971,86.475 10.625,136.688 30.442,157.009c6.783,7.716 15.471,11.558 24.625,11.558l0.971,0c20.279,-0.467 40.096,-17.837 60.879,-52.625c15.433,-26.096 31.371,-61.85 47.346,-106.287c9.154,-25.921 16.225,-47.563 21.575,-64.83c10.192,-32.916 14.142,-49.97 14.142,-50.616c1.475,-4.809 -1.9,-10.121 -7.25,-11.592c-4.809,-0.971 -10.121,1.938 -11.559,7.25c0,0.104 -0.146,0.825 -0.433,2.083c-2.042,9.009 -11.592,46.342 -34.854,111.421c-15.434,43.509 -30.904,77.788 -45.409,102.413c-29.433,49.287 -32.341,-54.563 -32.841,-117.379c-0.471,-69.067 4.846,-147.788 9.187,-217.355c1.938,-25.129 3.375,-48.783 4.342,-69.566c4.846,-0.467 9.192,-0.467 14,-0.467c28.896,-1.221 58.258,-2.404 86.692,-4.379c23.87,-1.617 47.095,-3.842 68.812,-7.146c11.667,-1.758 22.867,-3.842 33.529,-6.312l0,-0.038c0.75,-0.146 1.504,-0.325 2.259,-0.504c5.458,-1.329 10.662,-2.763 15.687,-4.308c22.183,-6.75 40.275,-15.4 54.85,-25.63c20.279,-14.97 33.817,-34.279 39.125,-57.47c1.438,-5.313 -1.937,-10.159 -6.783,-11.596" style="fill:#ffc800;fill-rule:nonzero;"/><path d="M1623.69,708.902c0.862,-7.575 1.829,-14.471 2.837,-20.68c1.83,-10.837 3.842,-19.704 5.959,-26.779c9.083,-30.258 20.104,-27.854 24.983,-6.316c1.65,7.033 2.588,16.116 2.588,26.745l-0,0.034c-0,15.041 -1.871,33.166 -6.43,53.091c-6.279,28.967 -19.812,54.096 -33.345,73.909c-0.934,-38.154 -0,-71.971 3.408,-100.004m262.762,167.129c-4.845,-1.434 -10.158,1.475 -12.062,6.283c-0,0.217 -2.692,9.225 -7.467,23.479c-7.108,20.925 -18.737,53.088 -33.133,84.713c-14.463,30.946 -27.996,55.571 -41.529,72.946c-17.375,21.245 -13.029,-0 -10.159,-21.255c2.909,-21.25 9.692,-46.379 15.471,-70.5c6.75,-25.129 12.567,-48.316 14.971,-68.6c3.371,-26.562 -6.283,-41.529 -15.437,-49.75c-27.067,-23.695 -76.355,-13.533 -98.571,9.188c-10.125,10.125 -20.284,24.625 -30.404,43.475c-11.596,21.717 -22.725,49.246 -32.846,79.688c-6.284,-40.567 -12.1,-94.192 -14.034,-146.851c10.159,-12.062 19.346,-25.129 27.063,-38.162c11.596,-19.813 19.817,-40.563 24.625,-61.812c4.237,-20.888 6.033,-42.067 5.062,-61.817c-0.216,-4.95 -0.612,-9.796 -1.187,-14.496c-0.642,-4.383 -1.433,-8.654 -2.367,-12.746c-3.771,-17.05 -9.837,-31.337 -18.416,-41.858c-9.155,-11.121 -20.28,-16.904 -32.342,-16.438c-14.5,0 -27.067,6.784 -37.692,19.817c-10.658,13.317 -18.916,34.133 -24.516,61.737c-1.434,7.005 -2.692,14.434 -3.767,22.296c-0.075,0.5 -0.146,0.967 -0.217,1.467c-4.346,32.85 -6.283,72.946 -4.812,119.792c0.575,24.479 1.975,49.645 3.912,74.054c1.438,18.233 3.2,36.075 5.1,52.871c3.946,34.429 8.688,64.687 13.209,85.616c3.375,15.934 63.25,13.529 67.125,0.467c13.033,-43.938 27.533,-85.004 43.008,-114.938c17.875,-33.35 36.217,-51.695 51.187,-51.695c3.371,-0 4.846,0.97 5.813,2.408c2.404,2.437 5.317,11.125 1.904,35.283c-2.404,18.813 -7.717,41.534 -13.496,65.192c-14.037,57 -27.066,110.633 -7.754,134.754c4.342,5.813 13.067,12.563 28.033,12.563c24.625,-0 43.938,-20.746 57.005,-38.159c14,-18.341 28.97,-44.441 43.47,-76.783c7.717,-16.763 14.609,-33.596 20.463,-48.854c13.208,-34.425 21.212,-60.95 21.537,-61.275c1.471,-5.313 -1.437,-10.625 -6.75,-12.1" style="fill:#ffc800;fill-rule:nonzero;"/><path d="M1943.42,849.759c4.667,-3.163 4.667,-3.163 6.571,4.304c0.967,3.771 0.75,14.792 -21.179,34.283c0.392,-18.016 5.383,-31.766 14.608,-38.587m106.359,24.375c-5.275,-1.154 -10.442,2.15 -11.592,7.429c-9.588,38.8 -19.779,79.258 -32.417,109.879c-32.7,73.55 -61.058,-34.354 -75.487,-79.55c30.366,-23.654 43.075,-44.296 38.446,-62.567c-3.555,-14.037 -14,-23.833 -28.217,-26.741c-9.475,-2.079 -19.563,-0.504 -29.975,3.629c-10.3,4.592 -19.888,12.021 -27.317,21.896c-7.966,9.975 -12.6,23.112 -15.112,38.696c-0.75,6.279 -1.15,12.67 -1.184,18.987c-0.145,14.683 1.58,29.325 4.738,43.613c5.925,26.279 16.871,51.3 30.729,72.725c20.283,30.729 43.146,44.37 64.683,38.912c29.509,-7.5 44.871,-37.296 56.5,-62.171c13.392,-31.804 23.8,-73.3 33.134,-113.037c1.15,-5.275 -1.65,-10.554 -6.929,-11.7" style="fill:#ffc800;fill-rule:nonzero;"/><path d="M995.252,1829.91c-28.717,4.558 -63.934,-28.038 -72.404,-51.513c-14.359,-39.808 1.975,-85.433 42.391,-119.358c58.05,-48.242 121.296,-71.071 182.609,-92.608c11.091,24.121 16.295,48.925 16.295,72.404c0,76.958 -50.22,170.862 -168.891,191.075m-161.104,-734.983c20.891,-63.246 58.045,-44.33 32.633,13.033c-9.804,21.537 -25.454,39.125 -45.663,54.133c3.267,-27.391 7.18,-50.221 13.03,-67.166m502.154,312.37c-6.496,-3.262 -13.675,0 -16.942,6.538c-4.2,9.617 -9.008,18.417 -14.358,26.454c-21.034,31.946 -50.4,52.767 -84.788,69.421c-6.496,-7.825 -14.325,-15 -22.796,-22.183c-24.804,-19.563 -55.458,-35.213 -91.316,-45.659c-16.946,-4.562 -35.217,-8.471 -54.134,-11.737c28.034,-15.004 54.775,-38.484 79.58,-68.454c20.212,-25.45 37.154,-54.134 48.891,-82.85c12.384,-29.971 18.917,-59.984 18.917,-86.725c-0,-32.596 -10.442,-59.984 -29.325,-78.9c-20.892,-21.542 -52.838,-32.63 -93.258,-32.63c-54.134,0 -101.734,29.363 -142.188,86.759c-31.3,44.333 -58.692,105.646 -80.875,181.925c-14.321,50.216 -24.767,101.083 -32.592,144.121c-4.558,-87.367 -8.47,-207.371 -2.62,-298.009c31.3,-18.916 57.395,-43.037 72.404,-76.962c19.562,-43.688 7.179,-70.429 -2.621,-82.167c-14.358,-18.271 -39.129,-27.392 -65.871,-22.829c-16.296,2.621 -32.596,10.446 -45.625,22.183c-15.004,13.029 -26.096,30.659 -32.629,51.513c-9.117,26.096 -15.004,66.512 -17.588,120.646c-18.92,6.533 -37.837,12.383 -57.4,18.27c-50.22,15.65 -102.379,31.305 -140.858,56.717c-36.579,24.05 -58.079,53.917 -65.187,91.033c-0.109,0.538 -0.217,1.042 -0.288,1.58c-1.579,8.725 -2.367,17.837 -2.367,27.387c0,7.179 5.884,13.029 13.067,13.029c4.413,0 8.363,-2.225 10.692,-5.633c0.829,-7.683 2.121,-18.158 3.808,-27.708c0,0.066 0.033,0.104 0.033,0.175c1.08,-6.959 2.767,-13.567 5.063,-19.884c0.037,-0.075 0.037,-0.108 0.071,-0.179c8.296,-22.687 24.483,-41.533 49.433,-57.617c35.213,-23.475 83.492,-38.479 134.358,-54.129c16.296,-5.204 32.592,-9.766 48.246,-15.008c-1.941,45.017 -1.291,98.467 0.646,159.779c3.267,114.146 12.421,214.55 12.421,215.879c2.583,53.45 89.346,23.475 94.55,-8.475c-0,-1.325 9.117,-119.35 46.308,-245.887c20.854,-74.342 46.95,-133.029 76.279,-174.742c43.721,-60.667 135.005,-106.975 149.363,-1.329c5.204,38.479 -8.471,91.967 -36.542,142.829c-27.387,49.575 -67.808,89.346 -97.171,102.379c-17.591,7.825 -4.558,24.771 2.621,24.771c81.521,15 132.388,50.213 160.421,92.608c-58.692,20.896 -125.208,45.663 -185.837,95.88c-24.805,20.858 -42.392,45.662 -50.867,72.404c-7.821,25.412 -7.821,51.512 0.65,74.987c16.296,45.625 59.983,73.696 113.467,73.696c37.154,0 73.05,-6.533 105.645,-19.566c14.75,-6.101 28.859,-13.459 42.105,-21.963l0.033,-0.037c12.6,-8.113 24.342,-17.234 35.179,-27.463c0,-0.037 0,-0.037 0.038,-0.037c0.97,-0.859 1.937,-1.759 2.87,-2.692c44.334,-43.038 70.43,-100.438 70.43,-157.154c-0,-37.188 -11.092,-71.759 -30.655,-101.084c8.471,-3.912 16.296,-8.47 24.767,-13.712c16.908,-10.3 31.267,-21.863 43.579,-34.892c15.721,-16.654 28.071,-35.754 37.942,-57.687c2.621,-6.529 -0,-14.359 -7.179,-16.979" style="fill:#ffc800;fill-rule:nonzero;"/><path d="M1431.54,1342.76c7.179,-2.621 7.179,-2.621 7.179,7.825c0,5.204 -3.912,19.562 -39.125,37.796c6.533,-23.475 17.588,-39.771 31.946,-45.621m131.096,67.158c-6.534,-3.262 -14.359,-0.641 -17.629,5.85c-7.105,13.321 -14.321,26.817 -21.609,40.1c-18.771,34.209 -38.05,67.125 -57.291,92.971c-67.159,85.433 -68.488,-65.221 -72.4,-129.154c47.633,-20.858 71.108,-43.683 71.108,-69.1c-0,-19.563 -10.446,-35.896 -28.067,-44.371c-11.741,-5.85 -25.416,-7.175 -40.421,-5.204c-15.008,2.621 -30.012,9.121 -43.041,19.567c-13.713,10.445 -24.121,26.091 -32.596,45.658c-9.15,23.692 -14.175,48.783 -15.683,74.054c-0.825,13.892 -0.613,27.892 0.537,41.675c2.154,25.238 7.429,49.896 15.146,72.725c16.3,46.954 41.712,72.404 71.721,72.404c41.104,0 71.075,-33.92 94.554,-62.6c11.129,-14.716 22.112,-31.591 32.95,-49.646c16.479,-27.533 32.558,-57.791 47.925,-87.337c3.267,-6.5 1.292,-14.325 -5.204,-17.592" style="fill:#ffc800;fill-rule:nonzero;"/><path d="M1645.44,1535.13c-28.683,50.866 -34.566,15.008 -34.566,-34.567c-0,-76.283 32.591,-129.121 77.604,-54.775c-0,0.642 0.646,1.287 1.296,1.971c-12.388,33.241 -27.392,63.25 -44.334,87.371m241.942,-128.471c-5.35,-1.584 -11.129,1.183 -14.108,5.816c-0.288,0.43 -0.538,0.892 -0.754,1.325l-0,0.038c-0.325,0.608 -0.575,1.254 -0.788,1.933c0,0.396 -5.962,25.563 -16.55,60.092c-6.962,22.617 -15.904,49.254 -26.492,75.562c-56.07,138.921 -63.895,75.025 -48.929,-49.537c7.829,-62.6 16.984,-101.079 16.984,-101.079c11.091,-52.196 -78.905,-56.109 -84.142,-31.988l-12.388,48.284c-29.358,-38.484 -73.045,-56.755 -110.845,-46.309c-21.538,5.209 -38.48,19.563 -50.9,41.067c-6.896,12.35 -11.955,27.137 -15.08,44.008c-2.545,13.425 -3.804,28.179 -3.804,44.046c0,5.204 0.109,10.192 0.325,14.933c3.517,79.617 35.392,95.371 55.1,97.242c55.425,0 90.638,-55.425 111.492,-93.904c-3.229,29.975 -4.558,56.717 -3.908,79.542c1.325,35.866 7.82,61.962 18.916,78.258c10.446,15.004 24.121,21.537 39.771,21.537c56.754,0 95.879,-95.879 111.533,-136.295c1.83,-4.563 3.588,-9.121 5.309,-13.646c24.158,-63.571 38.412,-122.834 39.058,-125.275c1.938,-7.179 -2.621,-14.359 -9.8,-15.65" style="fill:#ffc800;fill-rule:nonzero;"/><path d="M1945.43,1509.71c0,-26.742 3.913,-49.571 11.738,-67.842c31.946,-66.517 60.662,8.471 81.521,39.775c-0,15 -0,29.362 0.646,43.037c-57.4,63.934 -93.905,90.025 -93.905,-14.97m220.438,-297.4c22.796,-91.284 80.842,-196.93 46.271,-43.042c-13.029,60.662 -37.8,126.537 -56.067,170.871c-5.854,13.712 -12.383,28.029 -20.212,42.391c5.85,-58.691 16.3,-118.712 30.008,-170.22m189.104,194.345c-6.533,-1.941 -13.675,1.288 -16.296,8.471c0,0.642 -24.771,72.4 -63.25,143.475c-22.183,41.104 -44.366,73.696 -66.516,97.175c-75.025,85.434 -82.846,-89.35 -78.292,-204.112c0.683,-2.621 0.683,-5.238 0.683,-8.504c19.563,-31.95 37.154,-64.542 48.892,-93.225c18.917,-45.013 44.367,-112.175 57.4,-174.78c13.712,-64.575 11.737,-107.616 -5.854,-131.737c-8.509,-10.446 -24.154,-22.833 -52.838,-20.213c-22.829,2.584 -44.333,22.796 -63.933,61.275c-16.296,31.305 -31.3,75.671 -43.683,128.475c-16.946,68.492 -27.392,146.1 -31.305,218.467c-11.091,-16.296 -22.829,-29.329 -35.862,-39.775c-24.767,-19.562 -51.508,-28.033 -76.313,-22.829c-22.15,4.596 -40.42,18.917 -53.45,41.746c-0.395,0.646 -0.754,1.258 -1.075,1.904c-0.287,0.433 -0.541,0.896 -0.758,1.325l0,0.037c-9.437,16.98 -15.146,37.98 -17.333,62.03c-0.721,7.72 -1.079,15.758 -1.079,24.05c-0,17.77 1.329,33.67 4.02,47.67c4.7,25.13 13.675,44.117 26.634,56.68c13.066,12.387 29.366,18.916 47.637,18.275c44.329,-3.267 74.338,-31.988 109.554,-62.642c3.913,44.367 11.738,80.875 23.475,107.617c7.83,17.629 17.588,31.304 28.684,41.1c11.737,10.412 26.096,15.654 41.746,15.654l1.291,-0c10.45,-0 21.538,-2.621 31.95,-7.179l0.684,-0c42.354,-16.98 85.433,-65.871 128.47,-146.1c39.775,-73.013 63.896,-144.767 65.188,-147.355c1.975,-7.179 -1.292,-14.354 -8.471,-16.975" style="fill:#ffc800;fill-rule:nonzero;"/><path d="M1239.02,1872.52c26.996,-84.071 55.529,-24.017 32.271,28.541c-10.517,22.505 -24.771,41.242 -42.034,57.792c0,-36.042 3.013,-66.05 9.763,-86.333m342.954,51.046c21.033,-48.03 63.071,-106.575 77.321,-83.317c9.762,15.758 12.741,36.037 9.762,60.054c-3.016,27.75 -15.758,59.267 -35.287,90.067c-19.525,30.762 -49.534,57.037 -87.046,79.546c7.5,-59.3 19.492,-110.346 35.25,-146.35m214.658,307.704c-7.5,-2.263 -16.512,1.508 -18.771,9.762c0,0.288 -3.266,10.196 -9.262,26.421c-0,0.037 -0,0.037 -0.038,0.071c-11.412,31.012 -32.666,85.004 -59.729,138.629c-58.546,118.567 -103.562,198.871 -142.616,45.771c-13.5,-49.538 -21.755,-111.817 -25.488,-179.371c-3.012,-56.287 -2.262,-113.325 2.225,-165.125c54.817,-30.767 93.079,-63.792 116.342,-100.55c22.508,-36.037 35.283,-70.567 39.771,-103.592c3.77,-30.008 -0.755,-57.045 -13.496,-78.041c-15.759,-27.029 -42.038,-41.279 -72.796,-39.021c-24.017,1.508 -48.033,12.746 -70.575,33.025c-24.013,21.754 -45.013,52.516 -62.279,92.292c-16.513,36.791 -29.259,88.554 -36.759,148.608c-3.012,21 -5.275,42.037 -6.783,63.792c-43.508,17.262 -89.308,33.025 -133.571,48.029l-58.55,20.279c-5.991,-66.046 -12.741,-135.867 -15,-195.133c32.267,-24.013 54.775,-51.796 69.025,-84.067c9.013,-19.529 13.534,-39.021 12.025,-56.288c-0.75,-17.266 -5.991,-32.266 -15.758,-45.012c-17.263,-21.788 -46.521,-33.025 -76.567,-27.783c-8.004,1.4 -15.9,3.912 -23.437,7.537c-0.038,0 -0.038,0 -0.038,0.033c-8.687,4.134 -16.941,9.621 -24.554,16.442c-3.804,3.446 -7.358,7.108 -10.625,11.021l-0.033,0.037c-10.342,12.242 -18.2,26.846 -23.875,44.475c-11.988,35.288 -13.496,92.325 -10.479,158.375c-24.017,10.48 -48.784,20.246 -74.305,30.009c-28.466,10.625 -56,21 -81.058,32.666c-10.729,4.95 -20.996,10.159 -30.687,15.759c-7.646,4.379 -14.971,8.975 -21.863,13.854c-42.754,30.046 -63.787,66.804 -63.787,112.608c-0,8.254 6.75,15.004 15.004,15.004c8.258,0 15.004,-6.75 15.004,-15.004c-0,-78.829 82.562,-110.346 178.621,-147.1c21.787,-8.262 43.541,-16.516 65.296,-25.525c3.77,61.525 15.758,120.071 15.758,177.867l-21,11.271c-26.275,14.25 -46.521,28.5 -60.054,44.258c-16.513,18.775 -24.734,39.021 -24.734,60.808c0,8.259 6.75,15.009 15.005,15.009c8.258,-0 15.004,-6.75 15.004,-15.009c-0,-33.025 31.521,-60.054 79.55,-84.07c5.241,57.795 9.762,111.066 9.762,153.854c0.754,27.783 -1.508,49.537 -4.521,63.791c-4.491,17.263 -23.262,19.525 -21.758,32.267c-1.504,23.263 94.554,30.767 113.329,2.263c23.259,-35.288 20.279,-132.855 3.767,-293.455l65.296,-22.504c40.529,-14.25 82.562,-27.783 122.337,-43.541c-0.754,28.533 -1.508,57.791 -0.754,87.8c2.225,63.787 8.254,125.35 18.738,177.145c12.025,57.763 27.783,102.059 47.312,131.313c19.488,29.287 41.246,43.542 66.767,43.542l1.504,-0c39.021,-0 71.292,-32.271 93.833,-58.546c24.017,-29.259 48.784,-69.029 73.554,-118.567c10.371,-20.746 19.888,-41.567 28.321,-61.129c25.738,-59.7 41.642,-107.909 42.213,-108.483c2.262,-7.5 -1.504,-15.759 -9.763,-18.771" style="fill:#ffc800;fill-rule:nonzero;"/><path d="M1994.79,2235.03c-8.254,-1.504 -15.758,4.487 -17.266,12.746c-0,0.146 -0.538,3.483 -1.579,9.333c-4.342,24.267 -17.484,92.25 -37.438,158.767c-42.792,141.112 -69.821,135.871 -69.821,-36.754c0.754,-66.805 6.034,-108.838 6.034,-109.596c1.47,-53.267 -99.075,-54.775 -103.6,-29.254c-0.25,1.22 -1.292,11.308 -2.513,27.175c0,0.037 0,0.037 -0.033,0.07c-1.688,21.967 -3.7,55.03 -4.384,91c-0.287,17.017 -0.287,34.675 0.184,52.121c1.508,48.029 6.746,87.804 15.754,117.092c24.771,86.296 98.325,87.05 138.85,14.254c17.267,-27.787 33.021,-67.558 48.783,-117.85c3.229,-10.7 6.284,-21.429 9.154,-32.058c19.6,-72.759 29.863,-139.167 29.863,-139.813c1.508,-8.258 -3.733,-15.758 -11.988,-17.233m-166.633,-164.367c-20.246,0 -36.754,15.759 -36.754,36.759c-0,20.279 16.508,36.037 36.754,36.037c21.792,0 38.304,-15.758 38.304,-36.037c0,-21 -16.512,-36.759 -38.304,-36.759" style="fill:#ffc800;fill-rule:nonzero;"/><path d="M2189.92,2296.56c-37.55,-9.762 -66.05,-140.354 -28.537,-147.854c3.766,-0.754 14.287,0 22.541,21c7.505,15.792 11.238,39.054 11.238,67.559c-0,18.766 -2.263,39.016 -5.242,59.295m162.863,-57.037c-3.017,-7.5 -12.025,-11.275 -19.529,-7.5c-5.996,2.258 -7.5,5.992 -9.009,9.762c-4.525,9.725 -9.121,18.342 -14.108,25.809c-18.2,27.066 -42.108,39.091 -90.963,34.962c3.771,-21.754 6.03,-44.262 6.03,-65.291c-0,-32.275 -4.521,-60.025 -13.53,-79.55c-14.254,-33.78 -37.512,-39.021 -50.291,-39.021c-37.513,-0 -62.279,26.275 -64.542,67.558c-2.225,29.254 8.254,63.788 26.275,90.779c16.513,24.017 37.513,41.284 61.563,49.538c-36.038,126.108 -95.342,222.916 -105.105,25.525c-2.979,-55.534 0.755,-105.071 0.755,-105.071c3.77,-57.792 -96.059,-58.542 -102.055,-19.525c0,0.929 -1.15,12.454 -2.333,29.612c-1.687,24.663 -3.517,61.025 -2.187,94.23c0.679,14.429 1.758,28.033 3.158,40.741c6.208,56.109 19.312,95.45 38.875,116.879c12.025,12.742 27.029,19.492 43.542,19.492c26.275,0 51.045,-10.479 73.554,-31.517c19.487,-17.266 36,-42.033 51.041,-72.8c12.746,-27.745 23.263,-59.262 30.013,-91.566c42.462,1.791 72.437,-5.204 96.054,-23.696c16.046,-12.529 29.15,-30.367 41.283,-54.346l0,-0.754c3.017,-4.488 3.734,-9.763 1.509,-14.25" style="fill:#ffc800;fill-rule:nonzero;"/><path d="M2455.59,2157.71c8.254,-3.017 8.254,-3.017 8.254,9.012c-0,5.996 -4.483,22.504 -45.013,43.538c7.505,-27.025 20.246,-45.8 36.759,-52.55m150.871,77.321c-7.5,-3.771 -16.509,-0.755 -20.28,6.75c-29.254,54.775 -60.054,111.816 -90.816,153.095c-77.284,98.321 -78.792,-75.058 -83.317,-148.608c54.817,-24.017 81.808,-50.292 81.808,-79.546c0,-22.508 -11.987,-41.283 -32.27,-51.046c-13.496,-6.75 -29.259,-8.254 -46.525,-5.995c-17.263,3.012 -34.53,10.516 -49.534,22.508c-15.758,12.025 -27.746,30.046 -37.512,52.55c-10.267,26.529 -16.009,54.6 -17.875,82.85c-0.934,13.75 -0.971,27.567 -0.146,41.279c1.833,32.167 8.221,63.717 18.021,92.758c18.775,54.025 48.029,83.317 82.562,83.317c47.275,0 81.809,-39.021 108.8,-72.046c32.271,-42.787 63.788,-101.333 93.079,-157.621c3.734,-7.504 1.509,-16.512 -5.995,-20.245" style="fill:#ffc800;fill-rule:nonzero;"/><path d="M2875.37,1674.35c-0.183,11.12 -1.116,21.908 -2.883,32.475c-0.583,4.237 -1.371,8.487 -2.267,12.654c-14.9,68.225 -60.441,119.633 -118.887,125.621c-58.142,5.962 -112.817,-34.663 -141.196,-97.942c-2.075,-4.371 -3.971,-8.963 -5.567,-13.583c-3.608,-9.405 -6.545,-19.188 -8.912,-29.33c-10.683,10.975 -21.938,21.392 -33.629,30.534c4.346,13.608 9.662,26.704 16.012,38.987c37,72.884 105.071,119.063 177.425,111.642c72.754,-7.458 130.109,-66.796 151.5,-146.175c3.529,-13.292 6.075,-27.196 7.463,-41.496c-13.313,-6.679 -26.459,-14.7 -39.059,-23.387m-24.858,-179.925c-0.121,-0.196 -0.342,-0.371 -0.467,-0.563c-37.787,-40.829 -88.087,-63.679 -140.691,-58.287c-52.6,5.391 -97.313,38.083 -126.009,85.929c-0.091,0.112 -0.183,0.221 -0.17,0.325c-8.696,14.537 -15.934,30.35 -21.425,47.304c12.258,-3.596 24.354,-6.775 35.787,-9.471l12.442,-2.804c8.804,-18.417 20.196,-34.45 33.629,-47.438c19.567,-18.704 43.375,-30.816 69.879,-33.537c26.5,-2.713 52.163,4.229 75.117,18.575c15.779,9.887 30.287,23.267 42.646,39.517c4.17,-0.021 8.554,0.037 12.954,0.195c11.637,0.334 23.916,0.909 36.637,1.846c-8.796,-15.287 -18.979,-29.212 -30.329,-41.591" style="fill:#ffc800;fill-rule:nonzero;"/><path d="M2910.51,1524.39c96.587,14.345 170.092,59.052 164.044,99.774c-6.048,40.722 -8.124,112.137 -104.71,97.792c-96.586,-14.345 -216.967,-127.802 -210.919,-168.524c6.048,-40.722 54.999,-43.387 151.585,-29.042Z"/><path d="M2661.79,1617.23c-0.613,0.979 -1.117,2.05 -1.717,3.129c-12.646,22.679 -36.212,55.034 -64.412,83.892c2.366,10.142 5.3,19.925 8.912,29.329c2.517,-1.279 5.721,-2.829 9.504,-4.637c1.267,-0.538 2.53,-1.18 3.988,-1.838c1.358,-0.65 2.817,-1.304 4.379,-1.975c4.288,-1.867 9.175,-3.896 14.458,-5.962c0.292,-0.134 0.584,-0.267 0.875,-0.396l0.105,-0.013c25.7,-28.396 46.008,-57.766 57.595,-78.812c2.33,-4.109 4.346,-8.284 6.28,-12.25c-13.992,-1.417 -27.488,-4.921 -39.967,-10.467m-1.717,3.129c-12.646,22.679 -36.212,55.034 -64.412,83.892c-10.688,10.975 -21.938,21.392 -33.629,30.533c-26.638,21.263 -54.855,36.067 -80.425,35.942c-25.996,-0.288 -47.334,-16.738 -65.13,-50.25c-12.716,-23.742 -14.05,-44.683 -4.3,-63.808c20.946,-41.046 88.255,-69.838 149.575,-87.53c12.259,-3.595 24.355,-6.775 35.788,-9.47l12.437,-2.805c17.738,-3.854 33.138,-6.554 44.688,-8.141c8.767,-0.9 14.879,1.121 18.017,5.891c6.262,9.438 5.137,32.259 -10.892,62.617c-0.613,0.979 -1.117,2.05 -1.717,3.129m46.471,-88.058c-5.792,-8.771 -13.9,-15.375 -23.487,-19.488c-9.671,-3.995 -20.834,-5.6 -32.925,-4.358l-0.609,0.058c-0.404,0.042 -2.508,0.359 -5.912,0.913c-10.129,1.55 -32.442,5.362 -60.267,12.083l-0.3,0.029c-15.008,3.58 -31.558,8.025 -48.725,13.45c-83.362,26.159 -136.512,60.938 -158.15,103.171c-16.129,31.388 -14.562,65.542 4.483,101.371c31.384,58.796 71.984,71.433 100.621,71.654c3.971,0 7.934,-0.1 11.963,-0.512c28.908,-3.067 57.904,-17.238 84.808,-36.9c11.088,-8.059 21.867,-17.109 32.096,-26.609c9.754,-9.145 18.883,-18.433 27.546,-28.283l0.091,-0.108l0.105,-0.013c25.7,-28.396 46.008,-57.766 57.595,-78.812c2.33,-4.109 4.346,-8.284 6.28,-12.25c18.091,-38.109 19.97,-72.409 4.787,-95.396" style="fill:#ffc800;fill-rule:nonzero;"/><path d="M3055.75,1654.95c-10.625,36.42 -28.179,56.858 -53.579,62.412c-25.505,5.467 -56.784,-3.646 -87.746,-19.616c-13.313,-6.684 -26.459,-14.705 -39.059,-23.392c-32.733,-22.3 -61.808,-48.65 -78.458,-68.021c-0.925,-1.125 -1.958,-2.242 -2.787,-3.379c-21.413,-26.113 -27.121,-48.034 -22.896,-58.446c2.104,-5.304 7.679,-8.525 16.45,-9.425c11.225,-0.742 26.241,-1.263 43.571,-1.104c4.17,-0.021 8.554,0.041 12.954,0.2c11.637,0.333 23.916,0.904 36.637,1.841c64.129,4.734 137,19.255 166.179,55.571c13.425,16.746 16.371,37.525 8.734,63.359m22.771,-88.788c-29.655,-36.979 -88.859,-60.237 -175.796,-68.937c-18.521,-1.871 -36.342,-2.896 -52.167,-3.309c-0.212,-0.083 -0.312,-0.071 -0.517,-0.05c-29.616,-0.833 -52.533,0.088 -61.441,0.596c-2.338,0.034 -3.75,0.179 -4.05,0.213l-0.604,0.062c-24.188,2.479 -42.538,15.154 -50.405,34.796c-10.104,25.575 -1.425,58.596 23.805,92.162c2.712,3.588 5.745,7.351 8.866,11c15.834,18.338 41.909,43.259 73.159,66.021c9.808,7.242 20.195,14.221 30.845,20.767c11.855,7.342 24.246,14.012 36.75,19.754c30.688,14.267 62.5,22.617 91.921,19.604c4.029,-0.416 7.929,-1.12 11.817,-1.925c28,-6.029 65.292,-26.654 83.992,-90.583c11.387,-38.942 5.987,-72.708 -16.175,-100.171" style="fill:#ffc800;fill-rule:nonzero;"/><path d="M2872.86,1733.58c-137.846,-46.1 -261.313,25.013 -262.542,25.734l-25.796,-43.579c5.788,-3.455 144.071,-83.809 304.396,-30.188l-16.058,48.033Z" style="fill:#ffc800;fill-rule:nonzero;"/><path d="M2868.43,1818.06c-124.534,-44.479 -235.605,22.196 -236.713,22.884l-26.629,-43.084c5.35,-3.308 132.354,-80.362 280.371,-27.496l-17.029,47.696Z" style="fill:#ffc800;fill-rule:nonzero;"/><path d="M2762.35,1951.55l29.129,-92.917l-76.505,7.842l47.376,85.075Z" style="fill:#ffc800;fill-rule:nonzero;"/><path d="M2681.99,1469.99l-30.366,1.204l15.183,-0.6l-15.179,0.629c-0.029,-0.683 -3.475,-68.804 -46.925,-101.383l18.229,-24.313c55.142,41.338 58.921,121.084 59.058,124.463" style="fill:#ffc800;fill-rule:nonzero;"/><path d="M2631.1,1360.46c-1.321,-12.883 -12.834,-22.254 -25.713,-20.929c-12.883,1.317 -22.254,12.833 -20.933,25.708c1.321,12.884 12.833,22.255 25.712,20.938c12.879,-1.325 22.254,-12.833 20.934,-25.717" style="fill:#ffc800;fill-rule:nonzero;"/><path d="M2743.03,1463.74l29.975,-4.984l-14.988,2.488l14.992,-2.458c-0.109,-0.675 -10.559,-68.08 25.383,-108.796l-22.783,-20.109c-45.609,51.659 -33.129,130.521 -32.579,133.859" style="fill:#ffc800;fill-rule:nonzero;"/><path d="M2770.64,1346.15c-1.321,-12.884 8.05,-24.392 20.933,-25.717c12.879,-1.317 24.392,8.054 25.713,20.938c1.321,12.879 -8.05,24.391 -20.934,25.708c-12.879,1.325 -24.391,-8.046 -25.712,-20.929" style="fill:#ffc800;fill-rule:nonzero;"/><path d="M2601.22,2276.74c36.071,-64 53.379,-130.35 57.021,-191.966c0.887,-15.021 0.671,-30.113 -0.859,-45.084c-1.487,-14.579 -3.52,-29.525 -8.279,-43.45c-4.679,-13.695 -11.908,-27.508 -23.429,-36.683c-11.254,-8.962 -25.596,-15.133 -40.271,-13.842c-16.971,1.488 -30,10.95 -39.129,25.042c-7.004,10.821 -11.9,23.658 -14.533,36.254c-5.179,24.817 -3.221,53.046 11.733,74.359c16.471,23.483 44,35.45 72.425,34.379c28.963,-1.084 54.879,-14.654 76.1,-33.763c20.683,-18.625 37.438,-42.462 50.492,-66.933c13.491,-25.292 23.521,-52.654 29.041,-80.8c1.509,-7.688 2.617,-15.433 3.605,-23.204c1.062,-8.417 -8.192,-16.513 -16.155,-16.154c-9.662,0.433 -15.012,7.133 -16.154,16.154c-0.637,5.016 0.542,-3.217 -0.246,1.779c-0.237,1.512 -0.458,3.033 -0.704,4.542c-0.496,3.029 -1.046,6.041 -1.646,9.045c-1.295,6.513 -2.829,12.98 -4.595,19.38c-1.63,5.908 -3.455,11.762 -5.475,17.55c-1.009,2.891 -2.067,5.77 -3.171,8.629c-0.55,1.429 -1.117,2.854 -1.692,4.275c-0.383,0.946 -0.771,1.891 -1.167,2.833c0.63,-1.508 0.571,-1.387 -0.179,0.367c-5.275,11.654 -11.037,23.016 -17.746,33.916c-3.212,5.221 -6.595,10.338 -10.154,15.33c-1.762,2.47 -3.562,4.92 -5.412,7.329c2.104,-2.738 -0.863,1.054 -1.067,1.308c-1.221,1.517 -2.458,3.017 -3.721,4.5c-3.779,4.446 -7.741,8.75 -11.921,12.829c-2.083,2.029 -4.22,4.013 -6.408,5.929c-1.092,0.959 -2.2,1.896 -3.321,2.821c-0.741,0.613 -1.496,1.221 -2.254,1.817c1.367,-1.046 1.304,-1.008 -0.179,0.112c-4.296,3.092 -8.683,6.017 -13.325,8.575c-2.525,1.392 -5.117,2.642 -7.729,3.863c-4.246,1.992 2.962,-0.95 -1.475,0.596c-1.725,0.591 -3.417,1.246 -5.159,1.787c-2.562,0.804 -5.162,1.484 -7.787,2.038c-1.321,0.279 -2.65,0.496 -3.971,0.746c-4.379,0.833 3.4,-0.175 -1.05,0.129c-5.875,0.4 -11.558,0.45 -17.429,-0.046c4.075,0.346 -0.279,-0.058 -0.983,-0.179c-1.309,-0.238 -2.609,-0.504 -3.9,-0.809c-2.575,-0.6 -5.117,-1.341 -7.605,-2.225c-0.6,-0.212 -4.579,-1.954 -1.025,-0.32c-1.191,-0.55 -2.379,-1.105 -3.541,-1.709c-2.729,-1.421 -5.292,-3.066 -7.804,-4.833c3.087,2.171 -0.392,-0.371 -0.855,-0.779c-0.983,-0.867 -1.937,-1.767 -2.862,-2.692c-0.892,-0.896 -1.75,-1.825 -2.583,-2.771c-0.475,-0.55 -2.863,-3.887 -0.592,-0.637c-1.425,-2.038 -2.8,-4.079 -4.017,-6.25c-0.604,-1.075 -1.175,-2.175 -1.712,-3.288c-0.363,-0.737 -0.704,-1.487 -1.038,-2.246c0.821,1.963 0.896,2.1 0.234,0.421c-1.409,-4.3 -4.005,-9.883 -3.759,-14.496c-0.212,4.025 0.046,0.284 -0.05,-0.725c-0.121,-1.27 -0.208,-2.541 -0.275,-3.812c-0.146,-2.988 -0.141,-5.988 0.004,-8.975c0.067,-1.288 0.155,-2.579 0.267,-3.867c0.013,-0.121 0.421,-4.35 0.146,-1.708c-0.275,2.633 0.254,-1.571 0.275,-1.704c0.217,-1.279 0.458,-2.554 0.725,-3.825c1.158,-5.534 2.896,-10.821 4.775,-16.142c1.433,-4.054 -1.471,2.996 0.35,-0.887c0.546,-1.155 1.071,-2.321 1.633,-3.467c1.259,-2.542 2.617,-5.042 4.134,-7.442c0.754,-1.196 1.541,-2.383 2.391,-3.512c-2.129,2.825 0.771,-0.725 1.079,-1.05c0.959,-1.009 1.975,-1.967 3.042,-2.867c-2.671,2.242 1.796,-0.904 2.433,-1.296c3.23,-1.971 -2.841,0.471 0.825,-0.275c0.984,-0.2 2.646,-1.079 3.655,-0.879c-0.605,0.079 -1.205,0.158 -1.809,0.238c0.834,-0.08 1.671,-0.13 2.509,-0.146c1.275,-0.025 2.525,0.091 3.791,0.133c-4.046,-0.133 -0.204,-0.008 0.754,0.208c1.263,0.28 2.513,0.621 3.738,1.021c0.683,0.217 4.467,1.959 0.987,0.263c1.575,0.771 3.121,1.55 4.617,2.458c1.117,0.683 2.2,1.417 3.258,2.183c-3.087,-2.229 0.271,0.355 0.742,0.792c0.975,0.917 1.908,1.879 2.804,2.875c0.288,0.317 3.109,4 1.063,1.163c1.662,2.308 3.179,4.712 4.529,7.22c0.679,1.259 1.275,2.55 1.921,3.825c0.762,1.709 0.791,1.738 0.083,0.084c0.358,0.891 0.704,1.787 1.033,2.687c1.996,5.442 3.484,11.054 4.684,16.721c0.625,2.963 1.171,5.942 1.662,8.929c0.271,1.634 0.517,3.271 0.763,4.909c0.279,1.979 0.308,2.179 0.083,0.612c0.138,1.092 0.267,2.188 0.392,3.279c1.458,13.05 1.912,26.213 1.491,39.342c-0.245,7.658 -0.783,15.312 -1.583,22.933c-0.175,1.634 -0.358,3.271 -0.554,4.909c-0.129,1.087 -0.267,2.179 -0.408,3.27c0.216,-1.57 0.187,-1.366 -0.092,0.605c-0.567,3.812 -1.154,7.625 -1.821,11.42c-2.675,15.3 -6.271,30.434 -10.508,45.375c-8.538,30.075 -19.675,59.33 -31.721,88.155c-3.267,7.82 3.517,18.104 11.283,19.875c9.442,2.145 10.317,3.62 10.317,3.62" style="fill:#ffc800;fill-rule:nonzero;"/><path d="M975.759,2105.95c-3.625,6.929 -14.288,10.012 -20.854,5.458c-5.35,-3.663 -10.7,-7.363 -16.013,-11.096c-1.004,-0.683 -1.971,-1.396 -2.979,-2.083c-51.221,-36.113 -100.867,-74.484 -148.717,-114.971c-46.237,-39.129 -91.033,-80.163 -133.429,-123.45c-41.533,-42.392 -80.55,-87.588 -113.429,-137.092c-32.813,-49.425 -55.463,-103.662 -70.721,-161.133c-15.471,-58.3 -18.412,-126.75 -6.783,-186.233c0.075,-0.538 0.179,-1.042 0.287,-1.58c0,0 6.642,-4.987 14.217,-3.266c5.992,1.4 9.654,6.354 10.696,11.921c-1.684,9.55 -2.979,20.025 -3.804,27.708c0.108,-0.142 0.212,-0.321 0.32,-0.463c-0.5,3.192 -0.895,6.388 -1.22,9.617c-0.105,1.258 -0.18,1.938 -0.18,1.938c-0.933,9.908 -1.183,19.92 -1.254,29.795c-0.071,14.359 0.684,28.755 2.225,43.005c0.217,1.866 0.429,3.733 0.646,5.595c0.108,0.759 0.179,1.513 0.288,2.3c-0,0.075 0.037,0.142 0.037,0.217c0,0.075 0.038,0.179 0.038,0.288c0.033,0.358 0.104,0.716 0.141,1.075c0.467,3.125 0.934,6.283 1.471,9.441c1.15,7.034 2.475,14 4.021,20.963c3.125,14.358 6.962,28.541 11.45,42.537c2.192,6.821 4.525,13.571 7,20.284c1.329,3.554 2.692,7.07 4.092,10.587c0.612,1.579 1.254,3.121 1.866,4.704c0.254,0.538 1.15,2.725 1.329,3.159c0,0.037 0.038,0.037 0.038,0.037c5.562,13.171 11.771,26.092 18.412,38.767c13.317,25.271 28.538,49.5 45.121,72.762c4.238,5.884 8.509,11.738 12.888,17.517c1.116,1.437 2.191,2.871 3.304,4.308l-0,0.034c-0,-0 0.033,0.037 0.071,0.037c-0,0.038 -0,0.038 0.037,0.071c0,0.037 0.034,0.037 0.034,0.037c0.075,0.071 0.108,0.175 0.183,0.25l0.033,0.038c0.038,0.037 0.071,0.104 0.109,0.142c-0,0.037 0.07,0.075 0.07,0.075c0.109,0.141 0.18,0.245 0.25,0.32c0.396,0.467 0.755,0.967 1.113,1.434c2.158,2.766 4.346,5.533 6.571,8.296c8.975,11.162 18.2,22.108 27.675,32.845c19.1,21.68 39.129,42.538 59.662,62.85c42.788,42.359 87.588,82.709 133.929,121.08c11.88,9.804 23.834,19.495 35.93,29.041c5.566,4.413 11.129,8.796 16.766,13.175c0.034,0 0.071,0.038 0.142,0.071c0.037,0.033 0.037,0.033 0.071,0.071c0.071,0.075 0.108,0.108 0.179,0.146l0.037,0.033c0.038,0.038 0.071,0.038 0.109,0.075c0.537,0.429 1.325,1.042 1.433,1.108c0.721,0.542 1.404,1.08 2.121,1.617c1.362,1.079 2.762,2.121 4.162,3.2l8.938,6.779c24.196,18.271 48.75,35.967 73.696,53.163c0.254,0.179 0.466,0.321 0.716,0.504c7.038,4.846 9.588,13.104 5.459,20.892" style="fill:#ffc800;fill-rule:nonzero;"/><path d="M958.575,2109.03c12.438,10.467 24.875,20.925 37.317,31.388c11.313,9.516 21.292,20.32 30.35,31.991l-2.387,-3.087c5.72,7.416 10.62,15.287 14.275,23.929c-0.513,-1.217 -1.025,-2.433 -1.538,-3.646c3.179,7.663 5.354,15.675 6.471,23.896c-0.183,-1.354 -0.363,-2.704 -0.546,-4.058c1.113,8.57 1.063,17.225 -0.05,25.795c0.183,-1.35 0.363,-2.704 0.546,-4.058c-1.317,9.721 -3.971,19.188 -7.75,28.233c0.512,-1.212 1.025,-2.429 1.537,-3.645c-4.166,9.837 -9.608,19.07 -16.116,27.541c0.796,-1.029 1.591,-2.058 2.387,-3.091c-6.554,8.454 -14.116,16.062 -22.558,22.641c1.029,-0.8 2.058,-1.591 3.092,-2.391c-7.925,6.108 -16.542,11.25 -25.746,15.179c1.216,-0.513 2.433,-1.029 3.646,-1.542c-8.43,3.546 -17.25,6.025 -26.317,7.25c1.35,-0.179 2.704,-0.362 4.058,-0.546c-7.45,0.963 -15.025,1.142 -22.483,0.192c1.354,0.183 2.708,0.362 4.058,0.546c-6.4,-0.879 -12.612,-2.596 -18.571,-5.088c1.213,0.513 2.43,1.025 3.646,1.538c-6.021,-2.575 -11.654,-5.888 -16.858,-9.863c1.029,0.796 2.058,1.592 3.092,2.388c-5.292,-4.117 -10.021,-8.85 -14.146,-14.125l2.383,3.087c-4.467,-5.821 -8.05,-12.171 -10.937,-18.912c0.516,1.212 1.029,2.429 1.541,3.646c-3.533,-8.45 -5.791,-17.288 -7.021,-26.355c0.18,1.35 0.363,2.705 0.546,4.055c-2.008,-15.48 -1.25,-31.142 -0.471,-46.684c0.4,-7.991 -7.308,-15.625 -15.266,-15.266c-8.613,0.387 -14.838,6.712 -15.267,15.266c-1.021,20.409 -1.746,41.038 2.879,61.109c4.496,19.529 14.579,38.408 29.542,51.904c15.158,13.679 33.912,21.991 54.271,23.65c15.279,1.246 31.35,-1.404 45.65,-6.829c29.937,-11.359 55.271,-33.292 71.071,-61.163c15.858,-27.983 21.825,-62 12.45,-93.167c-2.471,-8.204 -5.934,-16.258 -10.2,-23.691c-5.084,-8.846 -11.58,-16.9 -18.146,-24.675c-14.059,-16.65 -31.196,-29.988 -47.8,-43.959c-4.35,-3.658 -8.696,-7.316 -13.046,-10.97c-3.163,-2.659 -6.525,-4.471 -10.796,-4.471c-3.742,-0 -8.212,1.666 -10.792,4.471c-5.2,5.662 -6.525,16.1 0,21.587" style="fill:#ffc800;fill-rule:nonzero;"/><path d="M484.228,1410.13c0.109,-0.142 0.217,-0.321 0.325,-0.463c-0.504,3.192 -0.9,6.388 -1.22,9.617c0.141,-1.938 0.466,-5.167 0.895,-9.154" style="fill:#ffc800;fill-rule:nonzero;"/><path d="M493.132,1362.72c-2.296,6.317 -3.984,12.925 -5.063,19.884c0,-0.071 -0.033,-0.109 -0.033,-0.18c1.4,-8.004 3.121,-15.287 5.096,-19.704" style="fill:#ffc800;fill-rule:nonzero;"/></g></svg>